STARTFONT 2.1
COMMENT
COMMENT Converted from OpenType font "Fairfax.otf" by "otf2bdf 3.0".
COMMENT
FONT -FreeType-Fairfax-Medium-R-Normal--17-120-100-100-P-76-ISO10646-1
SIZE 12 100 100
FONTBOUNDINGBOX 43 26 -17 -7
STARTPROPERTIES 19
FOUNDRY "FreeType"
FAMILY_NAME "Fairfax"
WEIGHT_NAME "Medium"
SLANT "R"
SETWIDTH_NAME "Normal"
ADD_STYLE_NAME ""
PIXEL_SIZE 17
POINT_SIZE 120
RESOLUTION_X 100
RESOLUTION_Y 100
SPACING "P"
AVERAGE_WIDTH 76
CHARSET_REGISTRY "ISO10646"
CHARSET_ENCODING "1"
FONT_ASCENT 12
FONT_DESCENT 4
COPYRIGHT "© 2008-2021 Kreative Software"
_OTF_FONTFILE "Fairfax.otf"
_OTF_PSNAME "Fairfax"
ENDPROPERTIES
CHARS 11164
STARTCHAR 0020
ENCODING 32
SWIDTH 480 0
DWIDTH 8 0
BBX 0 0 0 0
BITMAP
ENDCHAR
STARTCHAR 0021
ENCODING 33
SWIDTH 480 0
DWIDTH 8 0
BBX 1 10 3 0
BITMAP
80
80
80
80
80
80
80
00
00
80
ENDCHAR
STARTCHAR 0022
ENCODING 34
SWIDTH 480 0
DWIDTH 8 0
BBX 5 4 1 7
BITMAP
D8
D8
D8
D8
ENDCHAR
STARTCHAR 0023
ENCODING 35
SWIDTH 480 0
DWIDTH 8 0
BBX 7 7 0 3
BITMAP
6C
6C
FE
6C
FE
FE
6C
ENDCHAR
STARTCHAR 0024
ENCODING 36
SWIDTH 480 0
DWIDTH 8 0
BBX 7 12 0 -1
BITMAP
10
7C
7C
92
90
7C
7C
12
92
92
7C
10
ENDCHAR
STARTCHAR 0025
ENCODING 37
SWIDTH 480 0
DWIDTH 8 0
BBX 7 10 0 0
BITMAP
60
60
92
6C
10
10
6C
92
92
0C
ENDCHAR
STARTCHAR 0026
ENCODING 38
SWIDTH 480 0
DWIDTH 8 0
BBX 7 10 0 0
BITMAP
60
60
90
90
60
60
92
8C
8C
72
ENDCHAR
STARTCHAR 0027
ENCODING 39
SWIDTH 480 0
DWIDTH 8 0
BBX 5 4 1 7
BITMAP
18
20
20
C0
ENDCHAR
STARTCHAR 0028
ENCODING 40
SWIDTH 480 0
DWIDTH 8 0
BBX 5 12 1 -1
BITMAP
18
20
20
20
C0
C0
C0
C0
20
20
20
18
ENDCHAR
STARTCHAR 0029
ENCODING 41
SWIDTH 480 0
DWIDTH 8 0
BBX 5 12 1 -1
BITMAP
C0
20
20
20
18
18
18
18
20
20
20
C0
ENDCHAR
STARTCHAR 002A
ENCODING 42
SWIDTH 480 0
DWIDTH 8 0
BBX 7 7 0 3
BITMAP
10
10
92
7C
92
92
10
ENDCHAR
STARTCHAR 002B
ENCODING 43
SWIDTH 480 0
DWIDTH 8 0
BBX 7 7 0 1
BITMAP
10
10
FE
FE
10
10
10
ENDCHAR
STARTCHAR 002C
ENCODING 44
SWIDTH 480 0
DWIDTH 8 0
BBX 3 6 1 -3
BITMAP
E0
E0
E0
20
C0
C0
ENDCHAR
STARTCHAR 002D
ENCODING 45
SWIDTH 480 0
DWIDTH 8 0
BBX 7 2 0 4
BITMAP
FE
FE
ENDCHAR
STARTCHAR 002E
ENCODING 46
SWIDTH 480 0
DWIDTH 8 0
BBX 3 3 1 0
BITMAP
E0
E0
E0
ENDCHAR
STARTCHAR 002F
ENCODING 47
SWIDTH 480 0
DWIDTH 8 0
BBX 7 12 0 -1
BITMAP
02
02
02
0C
0C
10
10
60
60
60
80
80
ENDCHAR
STARTCHAR 0030
ENCODING 48
SWIDTH 480 0
DWIDTH 8 0
BBX 7 10 0 0
BITMAP
7C
7C
82
8E
92
92
E2
82
82
7C
ENDCHAR
STARTCHAR 0031
ENCODING 49
SWIDTH 480 0
DWIDTH 8 0
BBX 7 10 0 0
BITMAP
10
10
F0
10
10
10
10
10
10
FE
ENDCHAR
STARTCHAR 0032
ENCODING 50
SWIDTH 480 0
DWIDTH 8 0
BBX 7 10 0 0
BITMAP
7C
7C
82
02
0C
0C
10
60
60
FE
ENDCHAR
STARTCHAR 0033
ENCODING 51
SWIDTH 480 0
DWIDTH 8 0
BBX 7 10 0 0
BITMAP
7C
7C
82
02
1C
1C
02
82
82
7C
ENDCHAR
STARTCHAR 0034
ENCODING 52
SWIDTH 480 0
DWIDTH 8 0
BBX 7 10 0 0
BITMAP
0C
0C
1C
6C
8C
8C
FE
0C
0C
0C
ENDCHAR
STARTCHAR 0035
ENCODING 53
SWIDTH 480 0
DWIDTH 8 0
BBX 7 10 0 0
BITMAP
FE
FE
80
FC
02
02
02
82
82
7C
ENDCHAR
STARTCHAR 0036
ENCODING 54
SWIDTH 480 0
DWIDTH 8 0
BBX 7 10 0 0
BITMAP
7C
7C
80
FC
82
82
82
82
82
7C
ENDCHAR
STARTCHAR 0037
ENCODING 55
SWIDTH 480 0
DWIDTH 8 0
BBX 7 10 0 0
BITMAP
FE
FE
02
0C
0C
0C
10
10
10
10
ENDCHAR
STARTCHAR 0038
ENCODING 56
SWIDTH 480 0
DWIDTH 8 0
BBX 7 10 0 0
BITMAP
7C
7C
82
82
7C
7C
82
82
82
7C
ENDCHAR
STARTCHAR 0039
ENCODING 57
SWIDTH 480 0
DWIDTH 8 0
BBX 7 10 0 0
BITMAP
7C
7C
82
82
82
82
7E
02
02
7C
ENDCHAR
STARTCHAR 003A
ENCODING 58
SWIDTH 480 0
DWIDTH 8 0
BBX 3 7 1 0
BITMAP
E0
E0
E0
00
E0
E0
E0
ENDCHAR
STARTCHAR 003B
ENCODING 59
SWIDTH 480 0
DWIDTH 8 0
BBX 3 10 1 -3
BITMAP
E0
E0
E0
00
E0
E0
E0
20
C0
C0
ENDCHAR
STARTCHAR 003C
ENCODING 60
SWIDTH 480 0
DWIDTH 8 0
BBX 7 7 0 1
BITMAP
0E
70
80
80
70
0E
0E
ENDCHAR
STARTCHAR 003D
ENCODING 61
SWIDTH 480 0
DWIDTH 8 0
BBX 7 4 0 3
BITMAP
FE
00
00
FE
ENDCHAR
STARTCHAR 003E
ENCODING 62
SWIDTH 480 0
DWIDTH 8 0
BBX 7 7 0 1
BITMAP
E0
1C
02
02
1C
E0
E0
ENDCHAR
STARTCHAR 003F
ENCODING 63
SWIDTH 480 0
DWIDTH 8 0
BBX 7 10 0 0
BITMAP
7C
7C
82
02
0C
0C
10
00
00
10
ENDCHAR
STARTCHAR 0040
ENCODING 64
SWIDTH 480 0
DWIDTH 8 0
BBX 7 10 0 0
BITMAP
7C
7C
82
92
F2
F2
9E
80
80
7C
ENDCHAR
STARTCHAR 0041
ENCODING 65
SWIDTH 480 0
DWIDTH 8 0
BBX 7 10 0 0
BITMAP
7C
7C
82
82
FE
FE
82
82
82
82
ENDCHAR
STARTCHAR 0042
ENCODING 66
SWIDTH 480 0
DWIDTH 8 0
BBX 7 10 0 0
BITMAP
FC
FC
82
82
FC
FC
82
82
82
FC
ENDCHAR
STARTCHAR 0043
ENCODING 67
SWIDTH 480 0
DWIDTH 8 0
BBX 7 10 0 0
BITMAP
7C
7C
82
80
80
80
80
82
82
7C
ENDCHAR
STARTCHAR 0044
ENCODING 68
SWIDTH 480 0
DWIDTH 8 0
BBX 7 10 0 0
BITMAP
FC
FC
82
82
82
82
82
82
82
FC
ENDCHAR
STARTCHAR 0045
ENCODING 69
SWIDTH 480 0
DWIDTH 8 0
BBX 7 10 0 0
BITMAP
FE
FE
80
80
F0
F0
80
80
80
FE
ENDCHAR
STARTCHAR 0046
ENCODING 70
SWIDTH 480 0
DWIDTH 8 0
BBX 7 10 0 0
BITMAP
FE
FE
80
80
F0
F0
80
80
80
80
ENDCHAR
STARTCHAR 0047
ENCODING 71
SWIDTH 480 0
DWIDTH 8 0
BBX 7 10 0 0
BITMAP
7C
7C
82
80
8E
8E
82
82
82
7C
ENDCHAR
STARTCHAR 0048
ENCODING 72
SWIDTH 480 0
DWIDTH 8 0
BBX 7 10 0 0
BITMAP
82
82
82
82
FE
FE
82
82
82
82
ENDCHAR
STARTCHAR 0049
ENCODING 73
SWIDTH 480 0
DWIDTH 8 0
BBX 5 10 1 0
BITMAP
F8
F8
20
20
20
20
20
20
20
F8
ENDCHAR
STARTCHAR 004A
ENCODING 74
SWIDTH 480 0
DWIDTH 8 0
BBX 7 10 0 0
BITMAP
1E
1E
0C
0C
0C
0C
0C
8C
8C
70
ENDCHAR
STARTCHAR 004B
ENCODING 75
SWIDTH 480 0
DWIDTH 8 0
BBX 7 10 0 0
BITMAP
82
82
8C
90
E0
E0
90
8C
8C
82
ENDCHAR
STARTCHAR 004C
ENCODING 76
SWIDTH 480 0
DWIDTH 8 0
BBX 7 10 0 0
BITMAP
80
80
80
80
80
80
80
80
80
FE
ENDCHAR
STARTCHAR 004D
ENCODING 77
SWIDTH 480 0
DWIDTH 8 0
BBX 7 10 0 0
BITMAP
82
82
EE
92
92
92
82
82
82
82
ENDCHAR
STARTCHAR 004E
ENCODING 78
SWIDTH 480 0
DWIDTH 8 0
BBX 7 10 0 0
BITMAP
82
82
82
E2
92
92
8E
82
82
82
ENDCHAR
STARTCHAR 004F
ENCODING 79
SWIDTH 480 0
DWIDTH 8 0
BBX 7 10 0 0
BITMAP
7C
7C
82
82
82
82
82
82
82
7C
ENDCHAR
STARTCHAR 0050
ENCODING 80
SWIDTH 480 0
DWIDTH 8 0
BBX 7 10 0 0
BITMAP
FC
FC
82
82
FC
FC
80
80
80
80
ENDCHAR
STARTCHAR 0051
ENCODING 81
SWIDTH 480 0
DWIDTH 8 0
BBX 7 10 0 0
BITMAP
7C
7C
82
82
82
82
92
8C
8C
72
ENDCHAR
STARTCHAR 0052
ENCODING 82
SWIDTH 480 0
DWIDTH 8 0
BBX 7 10 0 0
BITMAP
FC
FC
82
82
FC
FC
90
8C
8C
82
ENDCHAR
STARTCHAR 0053
ENCODING 83
SWIDTH 480 0
DWIDTH 8 0
BBX 7 10 0 0
BITMAP
7C
7C
82
80
7C
7C
02
82
82
7C
ENDCHAR
STARTCHAR 0054
ENCODING 84
SWIDTH 480 0
DWIDTH 8 0
BBX 7 10 0 0
BITMAP
FE
FE
10
10
10
10
10
10
10
10
ENDCHAR
STARTCHAR 0055
ENCODING 85
SWIDTH 480 0
DWIDTH 8 0
BBX 7 10 0 0
BITMAP
82
82
82
82
82
82
82
82
82
7C
ENDCHAR
STARTCHAR 0056
ENCODING 86
SWIDTH 480 0
DWIDTH 8 0
BBX 7 10 0 0
BITMAP
82
82
82
6C
6C
6C
6C
10
10
10
ENDCHAR
STARTCHAR 0057
ENCODING 87
SWIDTH 480 0
DWIDTH 8 0
BBX 7 10 0 0
BITMAP
82
82
82
82
92
92
92
92
92
6C
ENDCHAR
STARTCHAR 0058
ENCODING 88
SWIDTH 480 0
DWIDTH 8 0
BBX 7 10 0 0
BITMAP
82
82
82
6C
10
10
6C
82
82
82
ENDCHAR
STARTCHAR 0059
ENCODING 89
SWIDTH 480 0
DWIDTH 8 0
BBX 7 10 0 0
BITMAP
82
82
82
6C
10
10
10
10
10
10
ENDCHAR
STARTCHAR 005A
ENCODING 90
SWIDTH 480 0
DWIDTH 8 0
BBX 7 10 0 0
BITMAP
FE
FE
02
0C
10
10
60
80
80
FE
ENDCHAR
STARTCHAR 005B
ENCODING 91
SWIDTH 480 0
DWIDTH 8 0
BBX 5 12 1 -1
BITMAP
F8
C0
C0
C0
C0
C0
C0
C0
C0
C0
C0
F8
ENDCHAR
STARTCHAR 005C
ENCODING 92
SWIDTH 480 0
DWIDTH 8 0
BBX 7 12 0 -1
BITMAP
80
80
80
60
60
10
10
0C
0C
0C
02
02
ENDCHAR
STARTCHAR 005D
ENCODING 93
SWIDTH 480 0
DWIDTH 8 0
BBX 5 12 1 -1
BITMAP
F8
18
18
18
18
18
18
18
18
18
18
F8
ENDCHAR
STARTCHAR 005E
ENCODING 94
SWIDTH 480 0
DWIDTH 8 0
BBX 7 4 0 6
BITMAP
10
10
6C
82
ENDCHAR
STARTCHAR 005F
ENCODING 95
SWIDTH 480 0
DWIDTH 8 0
BBX 7 2 0 -3
BITMAP
FE
FE
ENDCHAR
STARTCHAR 0060
ENCODING 96
SWIDTH 480 0
DWIDTH 8 0
BBX 5 4 1 7
BITMAP
C0
20
20
18
ENDCHAR
STARTCHAR 0061
ENCODING 97
SWIDTH 480 0
DWIDTH 8 0
BBX 7 7 0 0
BITMAP
7C
02
02
7E
82
82
7E
ENDCHAR
STARTCHAR 0062
ENCODING 98
SWIDTH 480 0
DWIDTH 8 0
BBX 7 10 0 0
BITMAP
80
80
80
9C
E2
E2
82
82
82
FC
ENDCHAR
STARTCHAR 0063
ENCODING 99
SWIDTH 480 0
DWIDTH 8 0
BBX 7 7 0 0
BITMAP
7C
82
82
80
80
80
7E
ENDCHAR
STARTCHAR 0064
ENCODING 100
SWIDTH 480 0
DWIDTH 8 0
BBX 7 10 0 0
BITMAP
02
02
02
7E
82
82
82
8E
8E
72
ENDCHAR
STARTCHAR 0065
ENCODING 101
SWIDTH 480 0
DWIDTH 8 0
BBX 7 7 0 0
BITMAP
7C
82
82
FE
80
80
7C
ENDCHAR
STARTCHAR 0066
ENCODING 102
SWIDTH 480 0
DWIDTH 8 0
BBX 6 10 1 0
BITMAP
1C
1C
20
F8
20
20
20
20
20
20
ENDCHAR
STARTCHAR 0067
ENCODING 103
SWIDTH 480 0
DWIDTH 8 0
BBX 7 10 0 -3
BITMAP
7E
82
82
82
8E
8E
72
02
7C
7C
ENDCHAR
STARTCHAR 0068
ENCODING 104
SWIDTH 480 0
DWIDTH 8 0
BBX 7 10 0 0
BITMAP
80
80
80
9C
E2
E2
82
82
82
82
ENDCHAR
STARTCHAR 0069
ENCODING 105
SWIDTH 480 0
DWIDTH 8 0
BBX 5 10 1 0
BITMAP
20
20
00
E0
20
20
20
20
20
F8
ENDCHAR
STARTCHAR 006A
ENCODING 106
SWIDTH 480 0
DWIDTH 8 0
BBX 4 13 0 -3
BITMAP
10
10
00
10
10
10
10
10
10
10
10
E0
E0
ENDCHAR
STARTCHAR 006B
ENCODING 107
SWIDTH 480 0
DWIDTH 8 0
BBX 7 10 0 0
BITMAP
80
80
80
8C
90
90
F0
8C
8C
82
ENDCHAR
STARTCHAR 006C
ENCODING 108
SWIDTH 480 0
DWIDTH 8 0
BBX 5 10 1 0
BITMAP
E0
E0
20
20
20
20
20
20
20
F8
ENDCHAR
STARTCHAR 006D
ENCODING 109
SWIDTH 480 0
DWIDTH 8 0
BBX 7 7 0 0
BITMAP
EC
92
92
92
92
92
92
ENDCHAR
STARTCHAR 006E
ENCODING 110
SWIDTH 480 0
DWIDTH 8 0
BBX 7 7 0 0
BITMAP
9C
E2
E2
82
82
82
82
ENDCHAR
STARTCHAR 006F
ENCODING 111
SWIDTH 480 0
DWIDTH 8 0
BBX 7 7 0 0
BITMAP
7C
82
82
82
82
82
7C
ENDCHAR
STARTCHAR 0070
ENCODING 112
SWIDTH 480 0
DWIDTH 8 0
BBX 7 10 0 -3
BITMAP
9C
E2
E2
82
82
82
FC
80
80
80
ENDCHAR
STARTCHAR 0071
ENCODING 113
SWIDTH 480 0
DWIDTH 8 0
BBX 7 10 0 -3
BITMAP
7E
82
82
82
8E
8E
72
02
02
02
ENDCHAR
STARTCHAR 0072
ENCODING 114
SWIDTH 480 0
DWIDTH 8 0
BBX 7 7 0 0
BITMAP
9C
E2
E2
80
80
80
80
ENDCHAR
STARTCHAR 0073
ENCODING 115
SWIDTH 480 0
DWIDTH 8 0
BBX 7 7 0 0
BITMAP
7E
80
80
7C
02
02
FC
ENDCHAR
STARTCHAR 0074
ENCODING 116
SWIDTH 480 0
DWIDTH 8 0
BBX 6 10 1 0
BITMAP
20
20
20
F8
20
20
20
20
20
1C
ENDCHAR
STARTCHAR 0075
ENCODING 117
SWIDTH 480 0
DWIDTH 8 0
BBX 7 7 0 0
BITMAP
82
82
82
82
8E
8E
72
ENDCHAR
STARTCHAR 0076
ENCODING 118
SWIDTH 480 0
DWIDTH 8 0
BBX 7 7 0 0
BITMAP
82
82
82
6C
6C
6C
10
ENDCHAR
STARTCHAR 0077
ENCODING 119
SWIDTH 480 0
DWIDTH 8 0
BBX 7 7 0 0
BITMAP
82
92
92
92
92
92
6C
ENDCHAR
STARTCHAR 0078
ENCODING 120
SWIDTH 480 0
DWIDTH 8 0
BBX 7 7 0 0
BITMAP
82
6C
6C
10
6C
6C
82
ENDCHAR
STARTCHAR 0079
ENCODING 121
SWIDTH 480 0
DWIDTH 8 0
BBX 7 10 0 -3
BITMAP
82
82
82
82
8E
8E
72
02
7C
7C
ENDCHAR
STARTCHAR 007A
ENCODING 122
SWIDTH 480 0
DWIDTH 8 0
BBX 7 7 0 0
BITMAP
FE
0C
0C
10
60
60
FE
ENDCHAR
STARTCHAR 007B
ENCODING 123
SWIDTH 480 0
DWIDTH 8 0
BBX 5 12 1 -1
BITMAP
18
20
20
20
20
C0
C0
20
20
20
20
18
ENDCHAR
STARTCHAR 007C
ENCODING 124
SWIDTH 480 0
DWIDTH 8 0
BBX 1 12 3 -1
BITMAP
80
80
80
80
80
80
80
80
80
80
80
80
ENDCHAR
STARTCHAR 007D
ENCODING 125
SWIDTH 480 0
DWIDTH 8 0
BBX 5 12 1 -1
BITMAP
C0
20
20
20
20
18
18
20
20
20
20
C0
ENDCHAR
STARTCHAR 007E
ENCODING 126
SWIDTH 480 0
DWIDTH 8 0
BBX 7 3 0 7
BITMAP
72
72
9C
ENDCHAR
STARTCHAR 007F
ENCODING 127
SWIDTH 480 0
DWIDTH 8 0
BBX 7 7 0 1
BITMAP
92
6C
92
92
6C
92
92
ENDCHAR
STARTCHAR 00A0
ENCODING 160
SWIDTH 480 0
DWIDTH 8 0
BBX 0 0 0 0
BITMAP
ENDCHAR
STARTCHAR 00A1
ENCODING 161
SWIDTH 480 0
DWIDTH 8 0
BBX 1 10 3 -3
BITMAP
80
00
00
80
80
80
80
80
80
80
ENDCHAR
STARTCHAR 00A2
ENCODING 162
SWIDTH 480 0
DWIDTH 8 0
BBX 7 9 0 -1
BITMAP
10
7C
92
92
90
90
90
7E
10
ENDCHAR
STARTCHAR 00A3
ENCODING 163
SWIDTH 480 0
DWIDTH 8 0
BBX 7 10 0 0
BITMAP
70
70
8C
80
F0
F0
80
82
82
FC
ENDCHAR
STARTCHAR 00A4
ENCODING 164
SWIDTH 480 0
DWIDTH 8 0
BBX 7 7 0 3
BITMAP
82
82
7C
6C
7C
7C
82
ENDCHAR
STARTCHAR 00A5
ENCODING 165
SWIDTH 480 0
DWIDTH 8 0
BBX 7 10 0 0
BITMAP
82
82
82
6C
10
10
FE
10
10
10
ENDCHAR
STARTCHAR 00A6
ENCODING 166
SWIDTH 480 0
DWIDTH 8 0
BBX 1 12 3 -1
BITMAP
80
80
80
80
80
00
00
80
80
80
80
80
ENDCHAR
STARTCHAR 00A7
ENCODING 167
SWIDTH 480 0
DWIDTH 8 0
BBX 7 10 0 0
BITMAP
1E
1E
60
7C
82
82
7C
0C
0C
F0
ENDCHAR
STARTCHAR 00A8
ENCODING 168
SWIDTH 480 0
DWIDTH 8 0
BBX 5 2 1 8
BITMAP
D8
D8
ENDCHAR
STARTCHAR 00A9
ENCODING 169
SWIDTH 480 0
DWIDTH 8 0
BBX 7 11 0 -1
BITMAP
FC
FC
02
72
82
82
82
72
72
02
FC
ENDCHAR
STARTCHAR 00AA
ENCODING 170
SWIDTH 480 0
DWIDTH 8 0
BBX 5 8 1 3
BITMAP
E0
38
38
D8
38
00
00
F8
ENDCHAR
STARTCHAR 00AB
ENCODING 171
SWIDTH 480 0
DWIDTH 8 0
BBX 7 7 0 1
BITMAP
12
6C
90
90
6C
12
12
ENDCHAR
STARTCHAR 00AC
ENCODING 172
SWIDTH 480 0
DWIDTH 8 0
BBX 7 5 0 1
BITMAP
FE
FE
02
02
02
ENDCHAR
STARTCHAR 00AD
ENCODING 173
SWIDTH 480 0
DWIDTH 8 0
BBX 7 2 0 4
BITMAP
FE
FE
ENDCHAR
STARTCHAR 00AE
ENCODING 174
SWIDTH 480 0
DWIDTH 8 0
BBX 7 11 0 -1
BITMAP
FC
FC
02
E2
92
92
E2
92
92
02
FC
ENDCHAR
STARTCHAR 00AF
ENCODING 175
SWIDTH 480 0
DWIDTH 8 0
BBX 7 2 0 8
BITMAP
FE
FE
ENDCHAR
STARTCHAR 00B0
ENCODING 176
SWIDTH 480 0
DWIDTH 8 0
BBX 6 5 0 6
BITMAP
70
8C
8C
8C
70
ENDCHAR
STARTCHAR 00B1
ENCODING 177
SWIDTH 480 0
DWIDTH 8 0
BBX 7 10 0 0
BITMAP
10
10
10
FE
10
10
10
00
00
FE
ENDCHAR
STARTCHAR 00B2
ENCODING 178
SWIDTH 480 0
DWIDTH 8 0
BBX 5 5 1 6
BITMAP
E0
18
18
20
F8
ENDCHAR
STARTCHAR 00B3
ENCODING 179
SWIDTH 480 0
DWIDTH 8 0
BBX 5 5 1 6
BITMAP
E0
38
38
18
E0
ENDCHAR
STARTCHAR 00B4
ENCODING 180
SWIDTH 480 0
DWIDTH 8 0
BBX 3 3 3 7
BITMAP
60
60
80
ENDCHAR
STARTCHAR 00B5
ENCODING 181
SWIDTH 480 0
DWIDTH 8 0
BBX 7 10 0 -3
BITMAP
82
82
82
82
EE
EE
92
80
80
80
ENDCHAR
STARTCHAR 00B6
ENCODING 182
SWIDTH 480 0
DWIDTH 8 0
BBX 7 10 0 0
BITMAP
7E
7E
92
92
92
92
7E
12
12
12
ENDCHAR
STARTCHAR 00B7
ENCODING 183
SWIDTH 480 0
DWIDTH 8 0
BBX 3 3 1 4
BITMAP
E0
E0
E0
ENDCHAR
STARTCHAR 00B8
ENCODING 184
SWIDTH 480 0
DWIDTH 8 0
BBX 5 4 1 -4
BITMAP
20
18
18
E0
ENDCHAR
STARTCHAR 00B9
ENCODING 185
SWIDTH 480 0
DWIDTH 8 0
BBX 5 5 1 6
BITMAP
20
E0
E0
20
F8
ENDCHAR
STARTCHAR 00BA
ENCODING 186
SWIDTH 480 0
DWIDTH 8 0
BBX 5 8 1 3
BITMAP
20
D8
D8
D8
20
00
00
F8
ENDCHAR
STARTCHAR 00BB
ENCODING 187
SWIDTH 480 0
DWIDTH 8 0
BBX 7 7 0 1
BITMAP
90
6C
12
12
6C
90
90
ENDCHAR
STARTCHAR 00BC
ENCODING 188
SWIDTH 480 0
DWIDTH 8 0
BBX 7 12 0 -1
BITMAP
60
E0
E0
62
FC
10
10
62
8E
8E
1E
02
ENDCHAR
STARTCHAR 00BD
ENCODING 189
SWIDTH 480 0
DWIDTH 8 0
BBX 7 12 0 -1
BITMAP
60
E0
E0
62
FC
10
10
7C
82
82
0C
1E
ENDCHAR
STARTCHAR 00BE
ENCODING 190
SWIDTH 480 0
DWIDTH 8 0
BBX 7 12 0 -1
BITMAP
E0
70
70
12
EC
10
10
62
8E
8E
1E
02
ENDCHAR
STARTCHAR 00BF
ENCODING 191
SWIDTH 480 0
DWIDTH 8 0
BBX 7 10 0 -3
BITMAP
10
00
00
10
60
60
80
82
7C
7C
ENDCHAR
STARTCHAR 00C0
ENCODING 192
SWIDTH 480 0
DWIDTH 8 0
BBX 7 14 0 0
BITMAP
60
70
10
00
7C
7C
82
82
FE
FE
82
82
82
82
ENDCHAR
STARTCHAR 00C1
ENCODING 193
SWIDTH 480 0
DWIDTH 8 0
BBX 7 14 0 0
BITMAP
0C
1C
10
00
7C
7C
82
82
FE
FE
82
82
82
82
ENDCHAR
STARTCHAR 00C2
ENCODING 194
SWIDTH 480 0
DWIDTH 8 0
BBX 7 14 0 0
BITMAP
10
7C
6C
00
7C
7C
82
82
FE
FE
82
82
82
82
ENDCHAR
STARTCHAR 00C3
ENCODING 195
SWIDTH 480 0
DWIDTH 8 0
BBX 7 14 0 0
BITMAP
72
92
9C
00
7C
7C
82
82
FE
FE
82
82
82
82
ENDCHAR
STARTCHAR 00C4
ENCODING 196
SWIDTH 480 0
DWIDTH 8 0
BBX 7 13 0 0
BITMAP
6C
6C
00
7C
7C
82
82
FE
FE
82
82
82
82
ENDCHAR
STARTCHAR 00C5
ENCODING 197
SWIDTH 480 0
DWIDTH 8 0
BBX 7 14 0 0
BITMAP
10
7C
6C
10
7C
7C
82
82
FE
FE
82
82
82
82
ENDCHAR
STARTCHAR 00C6
ENCODING 198
SWIDTH 480 0
DWIDTH 8 0
BBX 7 10 0 0
BITMAP
7E
7E
90
90
FC
FC
90
90
90
9E
ENDCHAR
STARTCHAR 00C7
ENCODING 199
SWIDTH 480 0
DWIDTH 8 0
BBX 7 13 0 -3
BITMAP
7C
7C
82
80
80
80
80
82
82
7C
10
60
60
ENDCHAR
STARTCHAR 00C8
ENCODING 200
SWIDTH 480 0
DWIDTH 8 0
BBX 7 14 0 0
BITMAP
60
70
10
00
FE
FE
80
80
F0
F0
80
80
80
FE
ENDCHAR
STARTCHAR 00C9
ENCODING 201
SWIDTH 480 0
DWIDTH 8 0
BBX 7 14 0 0
BITMAP
0C
1C
10
00
FE
FE
80
80
F0
F0
80
80
80
FE
ENDCHAR
STARTCHAR 00CA
ENCODING 202
SWIDTH 480 0
DWIDTH 8 0
BBX 7 14 0 0
BITMAP
10
7C
6C
00
FE
FE
80
80
F0
F0
80
80
80
FE
ENDCHAR
STARTCHAR 00CB
ENCODING 203
SWIDTH 480 0
DWIDTH 8 0
BBX 7 13 0 0
BITMAP
6C
6C
00
FE
FE
80
80
F0
F0
80
80
80
FE
ENDCHAR
STARTCHAR 00CC
ENCODING 204
SWIDTH 480 0
DWIDTH 8 0
BBX 5 14 1 0
BITMAP
C0
E0
20
00
F8
F8
20
20
20
20
20
20
20
F8
ENDCHAR
STARTCHAR 00CD
ENCODING 205
SWIDTH 480 0
DWIDTH 8 0
BBX 5 14 1 0
BITMAP
18
38
20
00
F8
F8
20
20
20
20
20
20
20
F8
ENDCHAR
STARTCHAR 00CE
ENCODING 206
SWIDTH 480 0
DWIDTH 8 0
BBX 5 14 1 0
BITMAP
20
F8
D8
00
F8
F8
20
20
20
20
20
20
20
F8
ENDCHAR
STARTCHAR 00CF
ENCODING 207
SWIDTH 480 0
DWIDTH 8 0
BBX 5 13 1 0
BITMAP
D8
D8
00
F8
F8
20
20
20
20
20
20
20
F8
ENDCHAR
STARTCHAR 00D0
ENCODING 208
SWIDTH 480 0
DWIDTH 8 0
BBX 7 10 0 0
BITMAP
7C
7C
62
62
F2
F2
62
62
62
7C
ENDCHAR
STARTCHAR 00D1
ENCODING 209
SWIDTH 480 0
DWIDTH 8 0
BBX 7 14 0 0
BITMAP
72
92
9C
00
82
82
82
E2
92
92
8E
82
82
82
ENDCHAR
STARTCHAR 00D2
ENCODING 210
SWIDTH 480 0
DWIDTH 8 0
BBX 7 14 0 0
BITMAP
60
70
10
00
7C
7C
82
82
82
82
82
82
82
7C
ENDCHAR
STARTCHAR 00D3
ENCODING 211
SWIDTH 480 0
DWIDTH 8 0
BBX 7 14 0 0
BITMAP
0C
1C
10
00
7C
7C
82
82
82
82
82
82
82
7C
ENDCHAR
STARTCHAR 00D4
ENCODING 212
SWIDTH 480 0
DWIDTH 8 0
BBX 7 14 0 0
BITMAP
10
7C
6C
00
7C
7C
82
82
82
82
82
82
82
7C
ENDCHAR
STARTCHAR 00D5
ENCODING 213
SWIDTH 480 0
DWIDTH 8 0
BBX 7 14 0 0
BITMAP
72
92
9C
00
7C
7C
82
82
82
82
82
82
82
7C
ENDCHAR
STARTCHAR 00D6
ENCODING 214
SWIDTH 480 0
DWIDTH 8 0
BBX 7 13 0 0
BITMAP
6C
6C
00
7C
7C
82
82
82
82
82
82
82
7C
ENDCHAR
STARTCHAR 00D7
ENCODING 215
SWIDTH 480 0
DWIDTH 8 0
BBX 7 7 0 1
BITMAP
82
6C
10
10
6C
82
82
ENDCHAR
STARTCHAR 00D8
ENCODING 216
SWIDTH 480 0
DWIDTH 8 0
BBX 7 10 0 0
BITMAP
72
72
8C
92
92
92
92
62
62
9C
ENDCHAR
STARTCHAR 00D9
ENCODING 217
SWIDTH 480 0
DWIDTH 8 0
BBX 7 14 0 0
BITMAP
60
70
10
00
82
82
82
82
82
82
82
82
82
7C
ENDCHAR
STARTCHAR 00DA
ENCODING 218
SWIDTH 480 0
DWIDTH 8 0
BBX 7 14 0 0
BITMAP
0C
1C
10
00
82
82
82
82
82
82
82
82
82
7C
ENDCHAR
STARTCHAR 00DB
ENCODING 219
SWIDTH 480 0
DWIDTH 8 0
BBX 7 14 0 0
BITMAP
10
7C
6C
00
82
82
82
82
82
82
82
82
82
7C
ENDCHAR
STARTCHAR 00DC
ENCODING 220
SWIDTH 480 0
DWIDTH 8 0
BBX 7 13 0 0
BITMAP
6C
6C
00
82
82
82
82
82
82
82
82
82
7C
ENDCHAR
STARTCHAR 00DD
ENCODING 221
SWIDTH 480 0
DWIDTH 8 0
BBX 7 14 0 0
BITMAP
0C
1C
10
00
82
82
82
6C
10
10
10
10
10
10
ENDCHAR
STARTCHAR 00DE
ENCODING 222
SWIDTH 480 0
DWIDTH 8 0
BBX 7 10 0 0
BITMAP
80
80
FC
82
82
82
82
FC
FC
80
ENDCHAR
STARTCHAR 00DF
ENCODING 223
SWIDTH 480 0
DWIDTH 8 0
BBX 7 10 0 0
BITMAP
7C
7C
82
82
9C
9C
82
82
82
9C
ENDCHAR
STARTCHAR 00E0
ENCODING 224
SWIDTH 480 0
DWIDTH 8 0
BBX 7 11 0 0
BITMAP
60
10
10
00
7C
02
02
7E
82
82
7E
ENDCHAR
STARTCHAR 00E1
ENCODING 225
SWIDTH 480 0
DWIDTH 8 0
BBX 7 11 0 0
BITMAP
0C
10
10
00
7C
02
02
7E
82
82
7E
ENDCHAR
STARTCHAR 00E2
ENCODING 226
SWIDTH 480 0
DWIDTH 8 0
BBX 7 11 0 0
BITMAP
10
6C
6C
00
7C
02
02
7E
82
82
7E
ENDCHAR
STARTCHAR 00E3
ENCODING 227
SWIDTH 480 0
DWIDTH 8 0
BBX 7 11 0 0
BITMAP
72
9C
9C
00
7C
02
02
7E
82
82
7E
ENDCHAR
STARTCHAR 00E4
ENCODING 228
SWIDTH 480 0
DWIDTH 8 0
BBX 7 10 0 0
BITMAP
6C
6C
00
7C
02
02
7E
82
82
7E
ENDCHAR
STARTCHAR 00E5
ENCODING 229
SWIDTH 480 0
DWIDTH 8 0
BBX 7 13 0 0
BITMAP
10
10
6C
10
10
00
7C
02
02
7E
82
82
7E
ENDCHAR
STARTCHAR 00E6
ENCODING 230
SWIDTH 480 0
DWIDTH 8 0
BBX 7 7 0 0
BITMAP
6C
12
12
7E
90
90
7E
ENDCHAR
STARTCHAR 00E7
ENCODING 231
SWIDTH 480 0
DWIDTH 8 0
BBX 7 10 0 -3
BITMAP
7C
82
82
80
80
80
7E
10
60
60
ENDCHAR
STARTCHAR 00E8
ENCODING 232
SWIDTH 480 0
DWIDTH 8 0
BBX 7 11 0 0
BITMAP
60
10
10
00
7C
82
82
FE
80
80
7C
ENDCHAR
STARTCHAR 00E9
ENCODING 233
SWIDTH 480 0
DWIDTH 8 0
BBX 7 11 0 0
BITMAP
0C
10
10
00
7C
82
82
FE
80
80
7C
ENDCHAR
STARTCHAR 00EA
ENCODING 234
SWIDTH 480 0
DWIDTH 8 0
BBX 7 11 0 0
BITMAP
10
6C
6C
00
7C
82
82
FE
80
80
7C
ENDCHAR
STARTCHAR 00EB
ENCODING 235
SWIDTH 480 0
DWIDTH 8 0
BBX 7 10 0 0
BITMAP
6C
6C
00
7C
82
82
FE
80
80
7C
ENDCHAR
STARTCHAR 00EC
ENCODING 236
SWIDTH 480 0
DWIDTH 8 0
BBX 5 11 1 0
BITMAP
C0
20
20
00
E0
20
20
20
20
20
F8
ENDCHAR
STARTCHAR 00ED
ENCODING 237
SWIDTH 480 0
DWIDTH 8 0
BBX 5 11 1 0
BITMAP
18
20
20
00
E0
20
20
20
20
20
F8
ENDCHAR
STARTCHAR 00EE
ENCODING 238
SWIDTH 480 0
DWIDTH 8 0
BBX 5 11 1 0
BITMAP
20
D8
D8
00
E0
20
20
20
20
20
F8
ENDCHAR
STARTCHAR 00EF
ENCODING 239
SWIDTH 480 0
DWIDTH 8 0
BBX 5 10 1 0
BITMAP
D8
D8
00
E0
20
20
20
20
20
F8
ENDCHAR
STARTCHAR 00F0
ENCODING 240
SWIDTH 480 0
DWIDTH 8 0
BBX 7 10 0 0
BITMAP
72
72
0C
72
8E
8E
82
82
82
7C
ENDCHAR
STARTCHAR 00F1
ENCODING 241
SWIDTH 480 0
DWIDTH 8 0
BBX 7 11 0 0
BITMAP
72
9C
9C
00
9C
E2
E2
82
82
82
82
ENDCHAR
STARTCHAR 00F2
ENCODING 242
SWIDTH 480 0
DWIDTH 8 0
BBX 7 11 0 0
BITMAP
60
10
10
00
7C
82
82
82
82
82
7C
ENDCHAR
STARTCHAR 00F3
ENCODING 243
SWIDTH 480 0
DWIDTH 8 0
BBX 7 11 0 0
BITMAP
0C
10
10
00
7C
82
82
82
82
82
7C
ENDCHAR
STARTCHAR 00F4
ENCODING 244
SWIDTH 480 0
DWIDTH 8 0
BBX 7 11 0 0
BITMAP
10
6C
6C
00
7C
82
82
82
82
82
7C
ENDCHAR
STARTCHAR 00F5
ENCODING 245
SWIDTH 480 0
DWIDTH 8 0
BBX 7 11 0 0
BITMAP
72
9C
9C
00
7C
82
82
82
82
82
7C
ENDCHAR
STARTCHAR 00F6
ENCODING 246
SWIDTH 480 0
DWIDTH 8 0
BBX 7 10 0 0
BITMAP
6C
6C
00
7C
82
82
82
82
82
7C
ENDCHAR
STARTCHAR 00F7
ENCODING 247
SWIDTH 480 0
DWIDTH 8 0
BBX 7 7 0 1
BITMAP
10
00
FE
FE
00
10
10
ENDCHAR
STARTCHAR 00F8
ENCODING 248
SWIDTH 480 0
DWIDTH 8 0
BBX 7 7 0 0
BITMAP
72
8C
8C
92
62
62
9C
ENDCHAR
STARTCHAR 00F9
ENCODING 249
SWIDTH 480 0
DWIDTH 8 0
BBX 7 11 0 0
BITMAP
60
10
10
00
82
82
82
82
8E
8E
72
ENDCHAR
STARTCHAR 00FA
ENCODING 250
SWIDTH 480 0
DWIDTH 8 0
BBX 7 11 0 0
BITMAP
0C
10
10
00
82
82
82
82
8E
8E
72
ENDCHAR
STARTCHAR 00FB
ENCODING 251
SWIDTH 480 0
DWIDTH 8 0
BBX 7 11 0 0
BITMAP
10
6C
6C
00
82
82
82
82
8E
8E
72
ENDCHAR
STARTCHAR 00FC
ENCODING 252
SWIDTH 480 0
DWIDTH 8 0
BBX 7 10 0 0
BITMAP
6C
6C
00
82
82
82
82
8E
8E
72
ENDCHAR
STARTCHAR 00FD
ENCODING 253
SWIDTH 480 0
DWIDTH 8 0
BBX 7 14 0 -3
BITMAP
0C
10
10
00
82
82
82
82
8E
8E
72
02
7C
7C
ENDCHAR
STARTCHAR 00FE
ENCODING 254
SWIDTH 480 0
DWIDTH 8 0
BBX 7 13 0 -3
BITMAP
80
80
80
9C
E2
E2
82
82
82
FC
80
80
80
ENDCHAR
STARTCHAR 00FF
ENCODING 255
SWIDTH 480 0
DWIDTH 8 0
BBX 7 13 0 -3
BITMAP
6C
6C
00
82
82
82
82
8E
8E
72
02
7C
7C
ENDCHAR
STARTCHAR 0100
ENCODING 256
SWIDTH 480 0
DWIDTH 8 0
BBX 7 13 0 0
BITMAP
7C
7C
00
7C
7C
82
82
FE
FE
82
82
82
82
ENDCHAR
STARTCHAR 0101
ENCODING 257
SWIDTH 480 0
DWIDTH 8 0
BBX 7 10 0 0
BITMAP
7C
7C
00
7C
02
02
7E
82
82
7E
ENDCHAR
STARTCHAR 0102
ENCODING 258
SWIDTH 480 0
DWIDTH 8 0
BBX 7 14 0 0
BITMAP
82
FE
7C
00
7C
7C
82
82
FE
FE
82
82
82
82
ENDCHAR
STARTCHAR 0103
ENCODING 259
SWIDTH 480 0
DWIDTH 8 0
BBX 7 11 0 0
BITMAP
82
7C
7C
00
7C
02
02
7E
82
82
7E
ENDCHAR
STARTCHAR 0104
ENCODING 260
SWIDTH 480 0
DWIDTH 8 0
BBX 7 13 0 -3
BITMAP
7C
7C
82
82
FE
FE
82
82
82
82
0C
02
02
ENDCHAR
STARTCHAR 0105
ENCODING 261
SWIDTH 480 0
DWIDTH 8 0
BBX 7 10 0 -3
BITMAP
7C
02
02
7E
82
82
7E
10
0C
0C
ENDCHAR
STARTCHAR 0106
ENCODING 262
SWIDTH 480 0
DWIDTH 8 0
BBX 7 14 0 0
BITMAP
0C
1C
10
00
7C
7C
82
80
80
80
80
82
82
7C
ENDCHAR
STARTCHAR 0107
ENCODING 263
SWIDTH 480 0
DWIDTH 8 0
BBX 7 11 0 0
BITMAP
0C
10
10
00
7C
82
82
80
80
80
7E
ENDCHAR
STARTCHAR 0108
ENCODING 264
SWIDTH 480 0
DWIDTH 8 0
BBX 7 14 0 0
BITMAP
10
7C
6C
00
7C
7C
82
80
80
80
80
82
82
7C
ENDCHAR
STARTCHAR 0109
ENCODING 265
SWIDTH 480 0
DWIDTH 8 0
BBX 7 11 0 0
BITMAP
10
6C
6C
00
7C
82
82
80
80
80
7E
ENDCHAR
STARTCHAR 010A
ENCODING 266
SWIDTH 480 0
DWIDTH 8 0
BBX 7 13 0 0
BITMAP
10
10
00
7C
7C
82
80
80
80
80
82
82
7C
ENDCHAR
STARTCHAR 010B
ENCODING 267
SWIDTH 480 0
DWIDTH 8 0
BBX 7 10 0 0
BITMAP
10
10
00
7C
82
82
80
80
80
7E
ENDCHAR
STARTCHAR 010C
ENCODING 268
SWIDTH 480 0
DWIDTH 8 0
BBX 7 14 0 0
BITMAP
6C
7C
10
00
7C
7C
82
80
80
80
80
82
82
7C
ENDCHAR
STARTCHAR 010D
ENCODING 269
SWIDTH 480 0
DWIDTH 8 0
BBX 7 11 0 0
BITMAP
6C
10
10
00
7C
82
82
80
80
80
7E
ENDCHAR
STARTCHAR 010E
ENCODING 270
SWIDTH 480 0
DWIDTH 8 0
BBX 7 14 0 0
BITMAP
6C
7C
10
00
FC
FC
82
82
82
82
82
82
82
FC
ENDCHAR
STARTCHAR 010F
ENCODING 271
SWIDTH 480 0
DWIDTH 8 0
BBX 7 14 0 0
BITMAP
6C
7C
10
00
02
02
02
7E
82
82
82
8E
8E
72
ENDCHAR
STARTCHAR 0110
ENCODING 272
SWIDTH 480 0
DWIDTH 8 0
BBX 7 10 0 0
BITMAP
7C
7C
62
62
F2
F2
62
62
62
7C
ENDCHAR
STARTCHAR 0111
ENCODING 273
SWIDTH 480 0
DWIDTH 8 0
BBX 8 10 0 0
BITMAP
02
02
0F
72
8E
8E
82
8E
8E
72
ENDCHAR
STARTCHAR 0112
ENCODING 274
SWIDTH 480 0
DWIDTH 8 0
BBX 7 13 0 0
BITMAP
7C
7C
00
FE
FE
80
80
F0
F0
80
80
80
FE
ENDCHAR
STARTCHAR 0113
ENCODING 275
SWIDTH 480 0
DWIDTH 8 0
BBX 7 10 0 0
BITMAP
7C
7C
00
7C
82
82
FE
80
80
7C
ENDCHAR
STARTCHAR 0114
ENCODING 276
SWIDTH 480 0
DWIDTH 8 0
BBX 7 14 0 0
BITMAP
82
FE
7C
00
FE
FE
80
80
F0
F0
80
80
80
FE
ENDCHAR
STARTCHAR 0115
ENCODING 277
SWIDTH 480 0
DWIDTH 8 0
BBX 7 11 0 0
BITMAP
82
7C
7C
00
7C
82
82
FE
80
80
7C
ENDCHAR
STARTCHAR 0116
ENCODING 278
SWIDTH 480 0
DWIDTH 8 0
BBX 7 13 0 0
BITMAP
10
10
00
FE
FE
80
80
F0
F0
80
80
80
FE
ENDCHAR
STARTCHAR 0117
ENCODING 279
SWIDTH 480 0
DWIDTH 8 0
BBX 7 10 0 0
BITMAP
10
10
00
7C
82
82
FE
80
80
7C
ENDCHAR
STARTCHAR 0118
ENCODING 280
SWIDTH 480 0
DWIDTH 8 0
BBX 7 13 0 -3
BITMAP
FE
FE
80
80
F0
F0
80
80
80
FE
10
0C
0C
ENDCHAR
STARTCHAR 0119
ENCODING 281
SWIDTH 480 0
DWIDTH 8 0
BBX 7 10 0 -3
BITMAP
7C
82
82
FE
80
80
7C
10
0C
0C
ENDCHAR
STARTCHAR 011A
ENCODING 282
SWIDTH 480 0
DWIDTH 8 0
BBX 7 14 0 0
BITMAP
6C
7C
10
00
FE
FE
80
80
F0
F0
80
80
80
FE
ENDCHAR
STARTCHAR 011B
ENCODING 283
SWIDTH 480 0
DWIDTH 8 0
BBX 7 11 0 0
BITMAP
6C
10
10
00
7C
82
82
FE
80
80
7C
ENDCHAR
STARTCHAR 011C
ENCODING 284
SWIDTH 480 0
DWIDTH 8 0
BBX 7 14 0 0
BITMAP
10
7C
6C
00
7C
7C
82
80
8E
8E
82
82
82
7C
ENDCHAR
STARTCHAR 011D
ENCODING 285
SWIDTH 480 0
DWIDTH 8 0
BBX 7 14 0 -3
BITMAP
10
6C
6C
00
7E
82
82
82
8E
8E
72
02
7C
7C
ENDCHAR
STARTCHAR 011E
ENCODING 286
SWIDTH 480 0
DWIDTH 8 0
BBX 7 14 0 0
BITMAP
82
FE
7C
00
7C
7C
82
80
8E
8E
82
82
82
7C
ENDCHAR
STARTCHAR 011F
ENCODING 287
SWIDTH 480 0
DWIDTH 8 0
BBX 7 14 0 -3
BITMAP
82
7C
7C
00
7E
82
82
82
8E
8E
72
02
7C
7C
ENDCHAR
STARTCHAR 0120
ENCODING 288
SWIDTH 480 0
DWIDTH 8 0
BBX 7 13 0 0
BITMAP
10
10
00
7C
7C
82
80
8E
8E
82
82
82
7C
ENDCHAR
STARTCHAR 0121
ENCODING 289
SWIDTH 480 0
DWIDTH 8 0
BBX 7 13 0 -3
BITMAP
10
10
00
7E
82
82
82
8E
8E
72
02
7C
7C
ENDCHAR
STARTCHAR 0122
ENCODING 290
SWIDTH 480 0
DWIDTH 8 0
BBX 7 16 0 -6
BITMAP
7C
7C
82
80
8E
8E
82
82
82
7C
00
70
70
10
60
60
ENDCHAR
STARTCHAR 0123
ENCODING 291
SWIDTH 480 0
DWIDTH 8 0
BBX 7 16 0 -3
BITMAP
0C
0C
10
1C
1C
00
7E
82
82
82
8E
8E
72
02
7C
7C
ENDCHAR
STARTCHAR 0124
ENCODING 292
SWIDTH 480 0
DWIDTH 8 0
BBX 7 14 0 0
BITMAP
10
7C
6C
00
82
82
82
82
FE
FE
82
82
82
82
ENDCHAR
STARTCHAR 0125
ENCODING 293
SWIDTH 480 0
DWIDTH 8 0
BBX 7 14 0 0
BITMAP
10
7C
6C
00
80
80
80
9C
E2
E2
82
82
82
82
ENDCHAR
STARTCHAR 0126
ENCODING 294
SWIDTH 480 0
DWIDTH 8 0
BBX 9 10 -1 0
BITMAP
4100
4100
FF80
4100
7F00
7F00
4100
4100
4100
4100
ENDCHAR
STARTCHAR 0127
ENCODING 295
SWIDTH 480 0
DWIDTH 8 0
BBX 8 10 -1 0
BITMAP
40
40
F0
4E
71
71
41
41
41
41
ENDCHAR
STARTCHAR 0128
ENCODING 296
SWIDTH 480 0
DWIDTH 8 0
BBX 7 14 0 0
BITMAP
72
92
9C
00
7C
7C
10
10
10
10
10
10
10
7C
ENDCHAR
STARTCHAR 0129
ENCODING 297
SWIDTH 480 0
DWIDTH 8 0
BBX 7 11 0 0
BITMAP
72
9C
9C
00
70
10
10
10
10
10
7C
ENDCHAR
STARTCHAR 012A
ENCODING 298
SWIDTH 480 0
DWIDTH 8 0
BBX 5 13 1 0
BITMAP
F8
F8
00
F8
F8
20
20
20
20
20
20
20
F8
ENDCHAR
STARTCHAR 012B
ENCODING 299
SWIDTH 480 0
DWIDTH 8 0
BBX 5 10 1 0
BITMAP
F8
F8
00
E0
20
20
20
20
20
F8
ENDCHAR
STARTCHAR 012C
ENCODING 300
SWIDTH 480 0
DWIDTH 8 0
BBX 7 14 0 0
BITMAP
82
FE
7C
00
7C
7C
10
10
10
10
10
10
10
7C
ENDCHAR
STARTCHAR 012D
ENCODING 301
SWIDTH 480 0
DWIDTH 8 0
BBX 7 11 0 0
BITMAP
82
7C
7C
00
70
10
10
10
10
10
7C
ENDCHAR
STARTCHAR 012E
ENCODING 302
SWIDTH 480 0
DWIDTH 8 0
BBX 5 13 1 -3
BITMAP
F8
F8
20
20
20
20
20
20
20
F8
20
18
18
ENDCHAR
STARTCHAR 012F
ENCODING 303
SWIDTH 480 0
DWIDTH 8 0
BBX 5 13 1 -3
BITMAP
20
20
00
E0
20
20
20
20
20
F8
20
18
18
ENDCHAR
STARTCHAR 0130
ENCODING 304
SWIDTH 480 0
DWIDTH 8 0
BBX 5 13 1 0
BITMAP
20
20
00
F8
F8
20
20
20
20
20
20
20
F8
ENDCHAR
STARTCHAR 0131
ENCODING 305
SWIDTH 480 0
DWIDTH 8 0
BBX 5 7 1 0
BITMAP
E0
20
20
20
20
20
F8
ENDCHAR
STARTCHAR 0132
ENCODING 306
SWIDTH 480 0
DWIDTH 8 0
BBX 7 10 0 0
BITMAP
FE
FE
6C
6C
6C
6C
6C
6C
6C
F0
ENDCHAR
STARTCHAR 0133
ENCODING 307
SWIDTH 480 0
DWIDTH 8 0
BBX 5 13 1 -3
BITMAP
D8
D8
00
D8
D8
D8
D8
D8
D8
D8
18
E0
E0
ENDCHAR
STARTCHAR 0134
ENCODING 308
SWIDTH 480 0
DWIDTH 8 0
BBX 7 14 0 0
BITMAP
10
7C
6C
00
1E
1E
0C
0C
0C
0C
0C
8C
8C
70
ENDCHAR
STARTCHAR 0135
ENCODING 309
SWIDTH 480 0
DWIDTH 8 0
BBX 6 14 0 -3
BITMAP
10
6C
6C
00
10
10
10
10
10
10
10
10
E0
E0
ENDCHAR
STARTCHAR 0136
ENCODING 310
SWIDTH 480 0
DWIDTH 8 0
BBX 7 16 0 -6
BITMAP
82
82
8C
90
E0
E0
90
8C
8C
82
00
70
70
10
60
60
ENDCHAR
STARTCHAR 0137
ENCODING 311
SWIDTH 480 0
DWIDTH 8 0
BBX 7 16 0 -6
BITMAP
80
80
80
8C
90
90
F0
8C
8C
82
00
70
70
10
60
60
ENDCHAR
STARTCHAR 0138
ENCODING 312
SWIDTH 480 0
DWIDTH 8 0
BBX 7 7 0 0
BITMAP
8C
90
90
F0
8C
8C
82
ENDCHAR
STARTCHAR 0139
ENCODING 313
SWIDTH 480 0
DWIDTH 8 0
BBX 7 14 0 0
BITMAP
0C
1C
10
00
80
80
80
80
80
80
80
80
80
FE
ENDCHAR
STARTCHAR 013A
ENCODING 314
SWIDTH 480 0
DWIDTH 8 0
BBX 5 14 1 0
BITMAP
18
38
20
00
E0
E0
20
20
20
20
20
20
20
F8
ENDCHAR
STARTCHAR 013B
ENCODING 315
SWIDTH 480 0
DWIDTH 8 0
BBX 7 16 0 -6
BITMAP
80
80
80
80
80
80
80
80
80
FE
00
70
70
10
60
60
ENDCHAR
STARTCHAR 013C
ENCODING 316
SWIDTH 480 0
DWIDTH 8 0
BBX 5 16 1 -6
BITMAP
E0
E0
20
20
20
20
20
20
20
F8
00
E0
E0
20
C0
C0
ENDCHAR
STARTCHAR 013D
ENCODING 317
SWIDTH 480 0
DWIDTH 8 0
BBX 7 14 0 0
BITMAP
6C
7C
10
00
80
80
80
80
80
80
80
80
80
FE
ENDCHAR
STARTCHAR 013E
ENCODING 318
SWIDTH 480 0
DWIDTH 8 0
BBX 5 14 1 0
BITMAP
D8
F8
20
00
E0
E0
20
20
20
20
20
20
20
F8
ENDCHAR
STARTCHAR 013F
ENCODING 319
SWIDTH 480 0
DWIDTH 8 0
BBX 7 10 0 0
BITMAP
80
80
80
80
90
90
80
80
80
FE
ENDCHAR
STARTCHAR 0140
ENCODING 320
SWIDTH 480 0
DWIDTH 8 0
BBX 6 10 1 0
BITMAP
E0
E0
20
20
24
24
20
20
20
F8
ENDCHAR
STARTCHAR 0141
ENCODING 321
SWIDTH 480 0
DWIDTH 8 0
BBX 7 10 0 0
BITMAP
60
60
60
70
E0
E0
60
60
60
7E
ENDCHAR
STARTCHAR 0142
ENCODING 322
SWIDTH 480 0
DWIDTH 8 0
BBX 5 10 1 0
BITMAP
E0
E0
20
38
E0
E0
20
20
20
F8
ENDCHAR
STARTCHAR 0143
ENCODING 323
SWIDTH 480 0
DWIDTH 8 0
BBX 7 14 0 0
BITMAP
0C
1C
10
00
82
82
82
E2
92
92
8E
82
82
82
ENDCHAR
STARTCHAR 0144
ENCODING 324
SWIDTH 480 0
DWIDTH 8 0
BBX 7 11 0 0
BITMAP
0C
10
10
00
9C
E2
E2
82
82
82
82
ENDCHAR
STARTCHAR 0145
ENCODING 325
SWIDTH 480 0
DWIDTH 8 0
BBX 7 16 0 -6
BITMAP
82
82
82
E2
92
92
8E
82
82
82
00
70
70
10
60
60
ENDCHAR
STARTCHAR 0146
ENCODING 326
SWIDTH 480 0
DWIDTH 8 0
BBX 7 13 0 -6
BITMAP
9C
E2
E2
82
82
82
82
00
70
70
10
60
60
ENDCHAR
STARTCHAR 0147
ENCODING 327
SWIDTH 480 0
DWIDTH 8 0
BBX 7 14 0 0
BITMAP
6C
7C
10
00
82
82
82
E2
92
92
8E
82
82
82
ENDCHAR
STARTCHAR 0148
ENCODING 328
SWIDTH 480 0
DWIDTH 8 0
BBX 7 11 0 0
BITMAP
6C
10
10
00
9C
E2
E2
82
82
82
82
ENDCHAR
STARTCHAR 0149
ENCODING 329
SWIDTH 480 0
DWIDTH 8 0
BBX 7 13 0 0
BITMAP
E0
E0
60
80
80
00
9C
E2
E2
82
82
82
82
ENDCHAR
STARTCHAR 014A
ENCODING 330
SWIDTH 480 0
DWIDTH 8 0
BBX 7 13 0 -3
BITMAP
82
82
82
E2
92
92
8E
82
82
82
02
7C
7C
ENDCHAR
STARTCHAR 014B
ENCODING 331
SWIDTH 480 0
DWIDTH 8 0
BBX 7 10 0 -3
BITMAP
9C
E2
E2
82
82
82
82
02
7C
7C
ENDCHAR
STARTCHAR 014C
ENCODING 332
SWIDTH 480 0
DWIDTH 8 0
BBX 7 13 0 0
BITMAP
7C
7C
00
7C
7C
82
82
82
82
82
82
82
7C
ENDCHAR
STARTCHAR 014D
ENCODING 333
SWIDTH 480 0
DWIDTH 8 0
BBX 7 10 0 0
BITMAP
7C
7C
00
7C
82
82
82
82
82
7C
ENDCHAR
STARTCHAR 014E
ENCODING 334
SWIDTH 480 0
DWIDTH 8 0
BBX 7 14 0 0
BITMAP
82
FE
7C
00
7C
7C
82
82
82
82
82
82
82
7C
ENDCHAR
STARTCHAR 014F
ENCODING 335
SWIDTH 480 0
DWIDTH 8 0
BBX 7 11 0 0
BITMAP
82
7C
7C
00
7C
82
82
82
82
82
7C
ENDCHAR
STARTCHAR 0150
ENCODING 336
SWIDTH 480 0
DWIDTH 8 0
BBX 7 14 0 0
BITMAP
12
7E
6C
00
7C
7C
82
82
82
82
82
82
82
7C
ENDCHAR
STARTCHAR 0151
ENCODING 337
SWIDTH 480 0
DWIDTH 8 0
BBX 7 11 0 0
BITMAP
12
6C
6C
00
7C
82
82
82
82
82
7C
ENDCHAR
STARTCHAR 0152
ENCODING 338
SWIDTH 480 0
DWIDTH 8 0
BBX 7 10 0 0
BITMAP
7E
7E
90
90
9C
9C
90
90
90
7E
ENDCHAR
STARTCHAR 0153
ENCODING 339
SWIDTH 480 0
DWIDTH 8 0
BBX 7 7 0 0
BITMAP
6C
92
92
9E
90
90
6E
ENDCHAR
STARTCHAR 0154
ENCODING 340
SWIDTH 480 0
DWIDTH 8 0
BBX 7 14 0 0
BITMAP
0C
1C
10
00
FC
FC
82
82
FC
FC
90
8C
8C
82
ENDCHAR
STARTCHAR 0155
ENCODING 341
SWIDTH 480 0
DWIDTH 8 0
BBX 7 11 0 0
BITMAP
0C
10
10
00
9C
E2
E2
80
80
80
80
ENDCHAR
STARTCHAR 0156
ENCODING 342
SWIDTH 480 0
DWIDTH 8 0
BBX 7 16 0 -6
BITMAP
FC
FC
82
82
FC
FC
90
8C
8C
82
00
70
70
10
60
60
ENDCHAR
STARTCHAR 0157
ENCODING 343
SWIDTH 480 0
DWIDTH 8 0
BBX 7 13 0 -6
BITMAP
9C
E2
E2
80
80
80
80
00
70
70
10
60
60
ENDCHAR
STARTCHAR 0158
ENCODING 344
SWIDTH 480 0
DWIDTH 8 0
BBX 7 14 0 0
BITMAP
6C
7C
10
00
FC
FC
82
82
FC
FC
90
8C
8C
82
ENDCHAR
STARTCHAR 0159
ENCODING 345
SWIDTH 480 0
DWIDTH 8 0
BBX 7 11 0 0
BITMAP
6C
10
10
00
9C
E2
E2
80
80
80
80
ENDCHAR
STARTCHAR 015A
ENCODING 346
SWIDTH 480 0
DWIDTH 8 0
BBX 7 14 0 0
BITMAP
0C
1C
10
00
7C
7C
82
80
7C
7C
02
82
82
7C
ENDCHAR
STARTCHAR 015B
ENCODING 347
SWIDTH 480 0
DWIDTH 8 0
BBX 7 11 0 0
BITMAP
0C
10
10
00
7E
80
80
7C
02
02
FC
ENDCHAR
STARTCHAR 015C
ENCODING 348
SWIDTH 480 0
DWIDTH 8 0
BBX 7 14 0 0
BITMAP
10
7C
6C
00
7C
7C
82
80
7C
7C
02
82
82
7C
ENDCHAR
STARTCHAR 015D
ENCODING 349
SWIDTH 480 0
DWIDTH 8 0
BBX 7 11 0 0
BITMAP
10
6C
6C
00
7E
80
80
7C
02
02
FC
ENDCHAR
STARTCHAR 015E
ENCODING 350
SWIDTH 480 0
DWIDTH 8 0
BBX 7 13 0 -3
BITMAP
7C
7C
82
80
7C
7C
02
82
82
7C
10
60
60
ENDCHAR
STARTCHAR 015F
ENCODING 351
SWIDTH 480 0
DWIDTH 8 0
BBX 7 10 0 -3
BITMAP
7E
80
80
7C
02
02
FC
10
60
60
ENDCHAR
STARTCHAR 0160
ENCODING 352
SWIDTH 480 0
DWIDTH 8 0
BBX 7 14 0 0
BITMAP
6C
7C
10
00
7C
7C
82
80
7C
7C
02
82
82
7C
ENDCHAR
STARTCHAR 0161
ENCODING 353
SWIDTH 480 0
DWIDTH 8 0
BBX 7 11 0 0
BITMAP
6C
10
10
00
7E
80
80
7C
02
02
FC
ENDCHAR
STARTCHAR 0162
ENCODING 354
SWIDTH 480 0
DWIDTH 8 0
BBX 7 13 0 -3
BITMAP
FE
FE
10
10
10
10
10
10
10
10
0C
70
70
ENDCHAR
STARTCHAR 0163
ENCODING 355
SWIDTH 480 0
DWIDTH 8 0
BBX 6 13 1 -3
BITMAP
20
20
20
F8
20
20
20
20
20
1C
18
20
20
ENDCHAR
STARTCHAR 0164
ENCODING 356
SWIDTH 480 0
DWIDTH 8 0
BBX 7 14 0 0
BITMAP
6C
7C
10
00
FE
FE
10
10
10
10
10
10
10
10
ENDCHAR
STARTCHAR 0165
ENCODING 357
SWIDTH 480 0
DWIDTH 8 0
BBX 6 14 1 0
BITMAP
D8
F8
20
00
20
20
20
F8
20
20
20
20
20
1C
ENDCHAR
STARTCHAR 0166
ENCODING 358
SWIDTH 480 0
DWIDTH 8 0
BBX 7 10 0 0
BITMAP
FE
FE
10
10
7C
7C
10
10
10
10
ENDCHAR
STARTCHAR 0167
ENCODING 359
SWIDTH 480 0
DWIDTH 8 0
BBX 6 10 1 0
BITMAP
20
20
20
F8
20
20
F8
20
20
1C
ENDCHAR
STARTCHAR 0168
ENCODING 360
SWIDTH 480 0
DWIDTH 8 0
BBX 7 14 0 0
BITMAP
72
92
9C
00
82
82
82
82
82
82
82
82
82
7C
ENDCHAR
STARTCHAR 0169
ENCODING 361
SWIDTH 480 0
DWIDTH 8 0
BBX 7 11 0 0
BITMAP
72
9C
9C
00
82
82
82
82
8E
8E
72
ENDCHAR
STARTCHAR 016A
ENCODING 362
SWIDTH 480 0
DWIDTH 8 0
BBX 7 13 0 0
BITMAP
7C
7C
00
82
82
82
82
82
82
82
82
82
7C
ENDCHAR
STARTCHAR 016B
ENCODING 363
SWIDTH 480 0
DWIDTH 8 0
BBX 7 10 0 0
BITMAP
7C
7C
00
82
82
82
82
8E
8E
72
ENDCHAR
STARTCHAR 016C
ENCODING 364
SWIDTH 480 0
DWIDTH 8 0
BBX 7 14 0 0
BITMAP
82
FE
7C
00
82
82
82
82
82
82
82
82
82
7C
ENDCHAR
STARTCHAR 016D
ENCODING 365
SWIDTH 480 0
DWIDTH 8 0
BBX 7 11 0 0
BITMAP
82
7C
7C
00
82
82
82
82
8E
8E
72
ENDCHAR
STARTCHAR 016E
ENCODING 366
SWIDTH 480 0
DWIDTH 8 0
BBX 7 14 0 0
BITMAP
10
7C
6C
10
82
82
82
82
82
82
82
82
82
7C
ENDCHAR
STARTCHAR 016F
ENCODING 367
SWIDTH 480 0
DWIDTH 8 0
BBX 7 13 0 0
BITMAP
10
10
6C
10
10
00
82
82
82
82
8E
8E
72
ENDCHAR
STARTCHAR 0170
ENCODING 368
SWIDTH 480 0
DWIDTH 8 0
BBX 7 14 0 0
BITMAP
12
7E
6C
00
82
82
82
82
82
82
82
82
82
7C
ENDCHAR
STARTCHAR 0171
ENCODING 369
SWIDTH 480 0
DWIDTH 8 0
BBX 7 11 0 0
BITMAP
12
6C
6C
00
82
82
82
82
8E
8E
72
ENDCHAR
STARTCHAR 0172
ENCODING 370
SWIDTH 480 0
DWIDTH 8 0
BBX 7 13 0 -3
BITMAP
82
82
82
82
82
82
82
82
82
7C
10
0C
0C
ENDCHAR
STARTCHAR 0173
ENCODING 371
SWIDTH 480 0
DWIDTH 8 0
BBX 7 10 0 -3
BITMAP
82
82
82
82
8E
8E
72
10
0C
0C
ENDCHAR
STARTCHAR 0174
ENCODING 372
SWIDTH 480 0
DWIDTH 8 0
BBX 7 14 0 0
BITMAP
10
7C
6C
00
82
82
82
82
92
92
92
92
92
6C
ENDCHAR
STARTCHAR 0175
ENCODING 373
SWIDTH 480 0
DWIDTH 8 0
BBX 7 11 0 0
BITMAP
10
6C
6C
00
82
92
92
92
92
92
6C
ENDCHAR
STARTCHAR 0176
ENCODING 374
SWIDTH 480 0
DWIDTH 8 0
BBX 7 14 0 0
BITMAP
10
7C
6C
00
82
82
82
6C
10
10
10
10
10
10
ENDCHAR
STARTCHAR 0177
ENCODING 375
SWIDTH 480 0
DWIDTH 8 0
BBX 7 14 0 -3
BITMAP
10
6C
6C
00
82
82
82
82
8E
8E
72
02
7C
7C
ENDCHAR
STARTCHAR 0178
ENCODING 376
SWIDTH 480 0
DWIDTH 8 0
BBX 7 13 0 0
BITMAP
6C
6C
00
82
82
82
6C
10
10
10
10
10
10
ENDCHAR
STARTCHAR 0179
ENCODING 377
SWIDTH 480 0
DWIDTH 8 0
BBX 7 14 0 0
BITMAP
0C
1C
10
00
FE
FE
02
0C
10
10
60
80
80
FE
ENDCHAR
STARTCHAR 017A
ENCODING 378
SWIDTH 480 0
DWIDTH 8 0
BBX 7 11 0 0
BITMAP
0C
10
10
00
FE
0C
0C
10
60
60
FE
ENDCHAR
STARTCHAR 017B
ENCODING 379
SWIDTH 480 0
DWIDTH 8 0
BBX 7 13 0 0
BITMAP
10
10
00
FE
FE
02
0C
10
10
60
80
80
FE
ENDCHAR
STARTCHAR 017C
ENCODING 380
SWIDTH 480 0
DWIDTH 8 0
BBX 7 10 0 0
BITMAP
10
10
00
FE
0C
0C
10
60
60
FE
ENDCHAR
STARTCHAR 017D
ENCODING 381
SWIDTH 480 0
DWIDTH 8 0
BBX 7 14 0 0
BITMAP
6C
7C
10
00
FE
FE
02
0C
10
10
60
80
80
FE
ENDCHAR
STARTCHAR 017E
ENCODING 382
SWIDTH 480 0
DWIDTH 8 0
BBX 7 11 0 0
BITMAP
6C
10
10
00
FE
0C
0C
10
60
60
FE
ENDCHAR
STARTCHAR 017F
ENCODING 383
SWIDTH 480 0
DWIDTH 8 0
BBX 6 10 1 0
BITMAP
1C
1C
20
E0
20
20
20
20
20
20
ENDCHAR
STARTCHAR 0180
ENCODING 384
SWIDTH 480 0
DWIDTH 8 0
BBX 8 10 -1 0
BITMAP
40
40
F0
4E
71
71
41
41
41
7E
ENDCHAR
STARTCHAR 0181
ENCODING 385
SWIDTH 480 0
DWIDTH 8 0
BBX 7 10 0 0
BITMAP
7C
7C
92
12
1C
1C
12
12
12
1C
ENDCHAR
STARTCHAR 0182
ENCODING 386
SWIDTH 480 0
DWIDTH 8 0
BBX 7 10 0 0
BITMAP
FE
FE
80
80
FC
FC
82
82
82
FC
ENDCHAR
STARTCHAR 0183
ENCODING 387
SWIDTH 480 0
DWIDTH 8 0
BBX 7 10 0 0
BITMAP
FE
FE
80
9C
E2
E2
82
82
82
FC
ENDCHAR
STARTCHAR 0184
ENCODING 388
SWIDTH 480 0
DWIDTH 8 0
BBX 7 10 0 0
BITMAP
60
60
E0
E0
7C
7C
62
62
62
7C
ENDCHAR
STARTCHAR 0185
ENCODING 389
SWIDTH 480 0
DWIDTH 8 0
BBX 7 10 0 0
BITMAP
60
60
E0
EC
72
72
62
62
62
7C
ENDCHAR
STARTCHAR 0186
ENCODING 390
SWIDTH 480 0
DWIDTH 8 0
BBX 7 10 0 0
BITMAP
7C
7C
82
02
02
02
02
82
82
7C
ENDCHAR
STARTCHAR 0187
ENCODING 391
SWIDTH 480 0
DWIDTH 8 0
BBX 8 13 0 0
BITMAP
01
01
02
7E
7E
82
80
80
80
80
82
82
7C
ENDCHAR
STARTCHAR 0188
ENCODING 392
SWIDTH 480 0
DWIDTH 8 0
BBX 8 10 0 0
BITMAP
01
01
02
7E
82
82
80
80
80
7E
ENDCHAR
STARTCHAR 0189
ENCODING 393
SWIDTH 480 0
DWIDTH 8 0
BBX 7 10 0 0
BITMAP
7C
7C
62
62
F2
F2
62
62
62
7C
ENDCHAR
STARTCHAR 018A
ENCODING 394
SWIDTH 480 0
DWIDTH 8 0
BBX 7 10 0 0
BITMAP
7C
7C
92
12
12
12
12
12
12
1C
ENDCHAR
STARTCHAR 018B
ENCODING 395
SWIDTH 480 0
DWIDTH 8 0
BBX 7 10 0 0
BITMAP
FE
FE
02
02
7E
7E
82
82
82
7E
ENDCHAR
STARTCHAR 018C
ENCODING 396
SWIDTH 480 0
DWIDTH 8 0
BBX 7 10 0 0
BITMAP
FE
FE
02
7E
82
82
82
8E
8E
72
ENDCHAR
STARTCHAR 018D
ENCODING 397
SWIDTH 480 0
DWIDTH 8 0
BBX 7 10 0 -3
BITMAP
7C
82
82
82
82
82
7C
02
7C
7C
ENDCHAR
STARTCHAR 018E
ENCODING 398
SWIDTH 480 0
DWIDTH 8 0
BBX 7 10 0 0
BITMAP
FE
FE
02
02
1E
1E
02
02
02
FE
ENDCHAR
STARTCHAR 018F
ENCODING 399
SWIDTH 480 0
DWIDTH 8 0
BBX 7 10 0 0
BITMAP
7C
7C
82
02
FE
FE
82
82
82
7C
ENDCHAR
STARTCHAR 0190
ENCODING 400
SWIDTH 480 0
DWIDTH 8 0
BBX 7 10 0 0
BITMAP
7C
7C
82
80
70
70
80
82
82
7C
ENDCHAR
STARTCHAR 0191
ENCODING 401
SWIDTH 480 0
DWIDTH 8 0
BBX 7 11 0 -1
BITMAP
7E
7E
60
60
7C
7C
60
60
60
60
80
ENDCHAR
STARTCHAR 0192
ENCODING 402
SWIDTH 480 0
DWIDTH 8 0
BBX 7 13 0 -3
BITMAP
0E
0E
10
7C
10
10
10
10
10
10
10
E0
E0
ENDCHAR
STARTCHAR 0193
ENCODING 403
SWIDTH 480 0
DWIDTH 8 0
BBX 8 13 0 0
BITMAP
01
01
02
7E
7E
82
80
8E
8E
82
82
82
7C
ENDCHAR
STARTCHAR 0194
ENCODING 404
SWIDTH 480 0
DWIDTH 8 0
BBX 7 13 0 -3
BITMAP
82
82
82
82
6C
6C
6C
10
10
10
6C
10
10
ENDCHAR
STARTCHAR 0195
ENCODING 405
SWIDTH 480 0
DWIDTH 8 0
BBX 7 10 0 0
BITMAP
80
80
80
E2
92
92
92
92
92
8C
ENDCHAR
STARTCHAR 0196
ENCODING 406
SWIDTH 480 0
DWIDTH 8 0
BBX 6 10 1 0
BITMAP
E0
E0
20
20
20
20
20
24
24
18
ENDCHAR
STARTCHAR 0197
ENCODING 407
SWIDTH 480 0
DWIDTH 8 0
BBX 5 10 1 0
BITMAP
F8
F8
20
20
F8
F8
20
20
20
F8
ENDCHAR
STARTCHAR 0198
ENCODING 408
SWIDTH 480 0
DWIDTH 8 0
BBX 7 10 0 0
BITMAP
8C
8C
92
92
E0
E0
90
8C
8C
82
ENDCHAR
STARTCHAR 0199
ENCODING 409
SWIDTH 480 0
DWIDTH 8 0
BBX 7 10 0 0
BITMAP
70
70
80
8C
90
90
F0
8C
8C
82
ENDCHAR
STARTCHAR 019A
ENCODING 410
SWIDTH 480 0
DWIDTH 8 0
BBX 5 10 1 0
BITMAP
E0
E0
20
20
F8
F8
20
20
20
F8
ENDCHAR
STARTCHAR 019B
ENCODING 411
SWIDTH 480 0
DWIDTH 8 0
BBX 7 10 0 0
BITMAP
90
90
60
90
6C
6C
6C
82
82
82
ENDCHAR
STARTCHAR 019C
ENCODING 412
SWIDTH 480 0
DWIDTH 8 0
BBX 7 10 0 0
BITMAP
92
92
92
92
92
92
92
92
92
6E
ENDCHAR
STARTCHAR 019D
ENCODING 413
SWIDTH 480 0
DWIDTH 8 0
BBX 7 11 0 -1
BITMAP
62
62
62
72
72
72
6E
62
62
62
80
ENDCHAR
STARTCHAR 019E
ENCODING 414
SWIDTH 480 0
DWIDTH 8 0
BBX 7 10 0 -3
BITMAP
9C
E2
E2
82
82
82
82
02
02
02
ENDCHAR
STARTCHAR 019F
ENCODING 415
SWIDTH 480 0
DWIDTH 8 0
BBX 7 10 0 0
BITMAP
7C
7C
82
82
FE
FE
82
82
82
7C
ENDCHAR
STARTCHAR 01A0
ENCODING 416
SWIDTH 480 0
DWIDTH 8 0
BBX 7 11 0 0
BITMAP
02
72
72
8C
82
82
82
82
82
82
7C
ENDCHAR
STARTCHAR 01A1
ENCODING 417
SWIDTH 480 0
DWIDTH 8 0
BBX 7 8 0 0
BITMAP
02
72
8C
8C
82
82
82
7C
ENDCHAR
STARTCHAR 01A2
ENCODING 418
SWIDTH 480 0
DWIDTH 8 0
BBX 7 13 0 -3
BITMAP
6C
6C
92
92
92
92
92
92
92
62
02
02
02
ENDCHAR
STARTCHAR 01A3
ENCODING 419
SWIDTH 480 0
DWIDTH 8 0
BBX 7 10 0 -3
BITMAP
6C
92
92
92
92
92
62
02
02
02
ENDCHAR
STARTCHAR 01A4
ENCODING 420
SWIDTH 480 0
DWIDTH 8 0
BBX 7 10 0 0
BITMAP
7C
7C
92
12
1C
1C
10
10
10
10
ENDCHAR
STARTCHAR 01A5
ENCODING 421
SWIDTH 480 0
DWIDTH 8 0
BBX 7 13 0 -3
BITMAP
70
70
80
9C
E2
E2
82
82
82
FC
80
80
80
ENDCHAR
STARTCHAR 01A6
ENCODING 422
SWIDTH 480 0
DWIDTH 8 0
BBX 8 14 0 -1
BITMAP
80
80
80
FC
FC
82
82
FC
FC
90
8C
8C
82
01
ENDCHAR
STARTCHAR 01A7
ENCODING 423
SWIDTH 480 0
DWIDTH 8 0
BBX 7 10 0 0
BITMAP
7C
7C
82
02
7C
7C
80
82
82
7C
ENDCHAR
STARTCHAR 01A8
ENCODING 424
SWIDTH 480 0
DWIDTH 8 0
BBX 7 7 0 0
BITMAP
FC
02
02
7C
80
80
7E
ENDCHAR
STARTCHAR 01A9
ENCODING 425
SWIDTH 480 0
DWIDTH 8 0
BBX 7 10 0 0
BITMAP
FE
FE
60
10
0C
0C
10
60
60
FE
ENDCHAR
STARTCHAR 01AA
ENCODING 426
SWIDTH 480 0
DWIDTH 8 0
BBX 7 13 0 -3
BITMAP
60
60
90
70
10
10
10
10
10
10
10
0E
0E
ENDCHAR
STARTCHAR 01AB
ENCODING 427
SWIDTH 480 0
DWIDTH 8 0
BBX 6 13 1 -3
BITMAP
20
20
20
F8
20
20
20
20
20
1C
04
38
38
ENDCHAR
STARTCHAR 01AC
ENCODING 428
SWIDTH 480 0
DWIDTH 8 0
BBX 7 10 0 0
BITMAP
7E
7E
90
10
10
10
10
10
10
10
ENDCHAR
STARTCHAR 01AD
ENCODING 429
SWIDTH 480 0
DWIDTH 8 0
BBX 6 11 1 0
BITMAP
1C
20
20
20
F8
20
20
20
20
20
1C
ENDCHAR
STARTCHAR 01AE
ENCODING 430
SWIDTH 480 0
DWIDTH 8 0
BBX 7 13 0 -3
BITMAP
FE
FE
10
10
10
10
10
10
10
10
10
0E
0E
ENDCHAR
STARTCHAR 01AF
ENCODING 431
SWIDTH 480 0
DWIDTH 8 0
BBX 8 13 0 0
BITMAP
0E
0E
01
82
82
82
82
82
82
82
82
82
7C
ENDCHAR
STARTCHAR 01B0
ENCODING 432
SWIDTH 480 0
DWIDTH 8 0
BBX 8 10 0 0
BITMAP
0E
0E
01
82
82
82
82
8E
8E
72
ENDCHAR
STARTCHAR 01B1
ENCODING 433
SWIDTH 480 0
DWIDTH 8 0
BBX 7 10 0 0
BITMAP
EE
EE
6C
82
82
82
82
82
82
7C
ENDCHAR
STARTCHAR 01B2
ENCODING 434
SWIDTH 480 0
DWIDTH 8 0
BBX 7 10 0 0
BITMAP
9C
9C
82
82
82
82
82
8C
8C
70
ENDCHAR
STARTCHAR 01B3
ENCODING 435
SWIDTH 480 0
DWIDTH 8 0
BBX 8 10 0 0
BITMAP
83
83
8C
6C
10
10
10
10
10
10
ENDCHAR
STARTCHAR 01B4
ENCODING 436
SWIDTH 480 0
DWIDTH 8 0
BBX 8 11 0 -3
BITMAP
01
82
82
82
82
8E
8E
72
02
7C
7C
ENDCHAR
STARTCHAR 01B5
ENCODING 437
SWIDTH 480 0
DWIDTH 8 0
BBX 7 10 0 0
BITMAP
FE
FE
02
0C
FE
FE
60
80
80
FE
ENDCHAR
STARTCHAR 01B6
ENCODING 438
SWIDTH 480 0
DWIDTH 8 0
BBX 7 7 0 0
BITMAP
FE
0C
0C
FE
60
60
FE
ENDCHAR
STARTCHAR 01B7
ENCODING 439
SWIDTH 480 0
DWIDTH 8 0
BBX 7 11 0 -1
BITMAP
FE
FE
02
0C
10
10
0C
02
02
82
7C
ENDCHAR
STARTCHAR 01B8
ENCODING 440
SWIDTH 480 0
DWIDTH 8 0
BBX 7 11 0 -1
BITMAP
FE
FE
80
60
10
10
60
80
80
82
7C
ENDCHAR
STARTCHAR 01B9
ENCODING 441
SWIDTH 480 0
DWIDTH 8 0
BBX 7 10 0 -3
BITMAP
FE
60
60
10
60
60
80
82
7C
7C
ENDCHAR
STARTCHAR 01BA
ENCODING 442
SWIDTH 480 0
DWIDTH 8 0
BBX 7 11 0 -4
BITMAP
FE
0C
0C
10
0C
0C
02
7C
80
80
70
ENDCHAR
STARTCHAR 01BB
ENCODING 443
SWIDTH 480 0
DWIDTH 8 0
BBX 7 10 0 0
BITMAP
7C
7C
82
02
FE
FE
10
60
60
FE
ENDCHAR
STARTCHAR 01BC
ENCODING 444
SWIDTH 480 0
DWIDTH 8 0
BBX 7 10 0 0
BITMAP
FE
FE
60
7C
02
02
02
82
82
7C
ENDCHAR
STARTCHAR 01BD
ENCODING 445
SWIDTH 480 0
DWIDTH 8 0
BBX 7 8 0 -1
BITMAP
FE
60
60
7C
02
02
82
7C
ENDCHAR
STARTCHAR 01BE
ENCODING 446
SWIDTH 480 0
DWIDTH 8 0
BBX 6 10 1 0
BITMAP
20
20
20
F8
20
20
18
04
04
F8
ENDCHAR
STARTCHAR 01BF
ENCODING 447
SWIDTH 480 0
DWIDTH 8 0
BBX 7 10 0 -3
BITMAP
9C
E2
E2
82
82
82
8C
90
E0
E0
ENDCHAR
STARTCHAR 01C0
ENCODING 448
SWIDTH 480 0
DWIDTH 8 0
BBX 1 10 3 0
BITMAP
80
80
80
80
80
80
80
80
80
80
ENDCHAR
STARTCHAR 01C1
ENCODING 449
SWIDTH 480 0
DWIDTH 8 0
BBX 5 10 1 0
BITMAP
D8
D8
D8
D8
D8
D8
D8
D8
D8
D8
ENDCHAR
STARTCHAR 01C2
ENCODING 450
SWIDTH 480 0
DWIDTH 8 0
BBX 7 10 0 0
BITMAP
10
10
10
FE
10
10
FE
10
10
10
ENDCHAR
STARTCHAR 01C3
ENCODING 451
SWIDTH 480 0
DWIDTH 8 0
BBX 1 10 3 0
BITMAP
80
80
80
80
80
80
80
00
00
80
ENDCHAR
STARTCHAR 01C4
ENCODING 452
SWIDTH 480 0
DWIDTH 8 0
BBX 7 14 0 0
BITMAP
12
1E
0C
00
FE
FE
92
9C
9C
9C
90
90
90
EE
ENDCHAR
STARTCHAR 01C5
ENCODING 453
SWIDTH 480 0
DWIDTH 8 0
BBX 7 13 0 0
BITMAP
12
12
0C
E0
E0
90
9E
92
92
9C
90
90
EE
ENDCHAR
STARTCHAR 01C6
ENCODING 454
SWIDTH 480 0
DWIDTH 8 0
BBX 7 13 0 0
BITMAP
12
12
0C
10
10
10
7E
92
92
9C
90
90
6E
ENDCHAR
STARTCHAR 01C7
ENCODING 455
SWIDTH 480 0
DWIDTH 8 0
BBX 7 10 0 0
BITMAP
9E
9E
8C
8C
8C
8C
8C
8C
8C
F0
ENDCHAR
STARTCHAR 01C8
ENCODING 456
SWIDTH 480 0
DWIDTH 8 0
BBX 7 13 0 -3
BITMAP
82
82
80
82
82
82
82
82
82
F2
02
1C
1C
ENDCHAR
STARTCHAR 01C9
ENCODING 457
SWIDTH 480 0
DWIDTH 8 0
BBX 7 13 0 -3
BITMAP
E2
E2
60
62
62
62
62
62
62
F2
02
1C
1C
ENDCHAR
STARTCHAR 01CA
ENCODING 458
SWIDTH 480 0
DWIDTH 8 0
BBX 7 10 0 0
BITMAP
92
92
92
F2
92
92
92
92
92
9C
ENDCHAR
STARTCHAR 01CB
ENCODING 459
SWIDTH 480 0
DWIDTH 8 0
BBX 7 13 0 -3
BITMAP
92
92
90
F2
92
92
92
92
92
92
02
1C
1C
ENDCHAR
STARTCHAR 01CC
ENCODING 460
SWIDTH 480 0
DWIDTH 8 0
BBX 7 13 0 -3
BITMAP
02
02
00
E2
92
92
92
92
92
92
02
1C
1C
ENDCHAR
STARTCHAR 01CD
ENCODING 461
SWIDTH 480 0
DWIDTH 8 0
BBX 7 14 0 0
BITMAP
6C
7C
10
00
7C
7C
82
82
FE
FE
82
82
82
82
ENDCHAR
STARTCHAR 01CE
ENCODING 462
SWIDTH 480 0
DWIDTH 8 0
BBX 7 11 0 0
BITMAP
6C
10
10
00
7C
02
02
7E
82
82
7E
ENDCHAR
STARTCHAR 01CF
ENCODING 463
SWIDTH 480 0
DWIDTH 8 0
BBX 5 14 1 0
BITMAP
D8
F8
20
00
F8
F8
20
20
20
20
20
20
20
F8
ENDCHAR
STARTCHAR 01D0
ENCODING 464
SWIDTH 480 0
DWIDTH 8 0
BBX 5 11 1 0
BITMAP
D8
20
20
00
E0
20
20
20
20
20
F8
ENDCHAR
STARTCHAR 01D1
ENCODING 465
SWIDTH 480 0
DWIDTH 8 0
BBX 7 14 0 0
BITMAP
6C
7C
10
00
7C
7C
82
82
82
82
82
82
82
7C
ENDCHAR
STARTCHAR 01D2
ENCODING 466
SWIDTH 480 0
DWIDTH 8 0
BBX 7 11 0 0
BITMAP
6C
10
10
00
7C
82
82
82
82
82
7C
ENDCHAR
STARTCHAR 01D3
ENCODING 467
SWIDTH 480 0
DWIDTH 8 0
BBX 7 14 0 0
BITMAP
6C
7C
10
00
82
82
82
82
82
82
82
82
82
7C
ENDCHAR
STARTCHAR 01D4
ENCODING 468
SWIDTH 480 0
DWIDTH 8 0
BBX 7 11 0 0
BITMAP
6C
10
10
00
82
82
82
82
8E
8E
72
ENDCHAR
STARTCHAR 01D5
ENCODING 469
SWIDTH 480 0
DWIDTH 8 0
BBX 7 15 0 0
BITMAP
7C
00
6C
6C
00
82
82
82
82
82
82
82
82
82
7C
ENDCHAR
STARTCHAR 01D6
ENCODING 470
SWIDTH 480 0
DWIDTH 8 0
BBX 7 13 0 0
BITMAP
7C
7C
00
6C
6C
00
82
82
82
82
8E
8E
72
ENDCHAR
STARTCHAR 01D7
ENCODING 471
SWIDTH 480 0
DWIDTH 8 0
BBX 7 17 0 0
BITMAP
0C
0C
10
00
6C
6C
00
82
82
82
82
82
82
82
82
82
7C
ENDCHAR
STARTCHAR 01D8
ENCODING 472
SWIDTH 480 0
DWIDTH 8 0
BBX 7 14 0 0
BITMAP
0C
1C
10
00
6C
6C
00
82
82
82
82
8E
8E
72
ENDCHAR
STARTCHAR 01D9
ENCODING 473
SWIDTH 480 0
DWIDTH 8 0
BBX 7 17 0 0
BITMAP
6C
6C
10
00
6C
6C
00
82
82
82
82
82
82
82
82
82
7C
ENDCHAR
STARTCHAR 01DA
ENCODING 474
SWIDTH 480 0
DWIDTH 8 0
BBX 7 14 0 0
BITMAP
6C
7C
10
00
6C
6C
00
82
82
82
82
8E
8E
72
ENDCHAR
STARTCHAR 01DB
ENCODING 475
SWIDTH 480 0
DWIDTH 8 0
BBX 7 17 0 0
BITMAP
60
60
10
00
6C
6C
00
82
82
82
82
82
82
82
82
82
7C
ENDCHAR
STARTCHAR 01DC
ENCODING 476
SWIDTH 480 0
DWIDTH 8 0
BBX 7 14 0 0
BITMAP
60
70
10
00
6C
6C
00
82
82
82
82
8E
8E
72
ENDCHAR
STARTCHAR 01DD
ENCODING 477
SWIDTH 480 0
DWIDTH 8 0
BBX 7 7 0 0
BITMAP
7C
02
02
FE
82
82
7C
ENDCHAR
STARTCHAR 01DE
ENCODING 478
SWIDTH 480 0
DWIDTH 8 0
BBX 7 15 0 0
BITMAP
7C
00
6C
6C
00
7C
7C
82
82
FE
FE
82
82
82
82
ENDCHAR
STARTCHAR 01DF
ENCODING 479
SWIDTH 480 0
DWIDTH 8 0
BBX 7 13 0 0
BITMAP
7C
7C
00
6C
6C
00
7C
02
02
7E
82
82
7E
ENDCHAR
STARTCHAR 01E0
ENCODING 480
SWIDTH 480 0
DWIDTH 8 0
BBX 7 15 0 0
BITMAP
7C
00
10
10
00
7C
7C
82
82
FE
FE
82
82
82
82
ENDCHAR
STARTCHAR 01E1
ENCODING 481
SWIDTH 480 0
DWIDTH 8 0
BBX 7 13 0 0
BITMAP
7C
7C
00
10
10
00
7C
02
02
7E
82
82
7E
ENDCHAR
STARTCHAR 01E2
ENCODING 482
SWIDTH 480 0
DWIDTH 8 0
BBX 7 13 0 0
BITMAP
7C
7C
00
7E
7E
90
90
FC
FC
90
90
90
9E
ENDCHAR
STARTCHAR 01E3
ENCODING 483
SWIDTH 480 0
DWIDTH 8 0
BBX 7 10 0 0
BITMAP
7C
7C
00
6C
12
12
7E
90
90
7E
ENDCHAR
STARTCHAR 01E4
ENCODING 484
SWIDTH 480 0
DWIDTH 8 0
BBX 8 10 0 0
BITMAP
7C
7C
80
8E
82
82
8F
82
82
7C
ENDCHAR
STARTCHAR 01E5
ENCODING 485
SWIDTH 480 0
DWIDTH 8 0
BBX 8 10 0 -3
BITMAP
7E
82
82
82
8E
8E
72
0F
7C
7C
ENDCHAR
STARTCHAR 01E6
ENCODING 486
SWIDTH 480 0
DWIDTH 8 0
BBX 7 14 0 0
BITMAP
6C
7C
10
00
7C
7C
82
80
8E
8E
82
82
82
7C
ENDCHAR
STARTCHAR 01E7
ENCODING 487
SWIDTH 480 0
DWIDTH 8 0
BBX 7 14 0 -3
BITMAP
6C
10
10
00
7E
82
82
82
8E
8E
72
02
7C
7C
ENDCHAR
STARTCHAR 01E8
ENCODING 488
SWIDTH 480 0
DWIDTH 8 0
BBX 7 14 0 0
BITMAP
6C
7C
10
00
82
82
8C
90
E0
E0
90
8C
8C
82
ENDCHAR
STARTCHAR 01E9
ENCODING 489
SWIDTH 480 0
DWIDTH 8 0
BBX 7 14 0 0
BITMAP
6C
7C
10
00
80
80
80
8C
90
90
F0
8C
8C
82
ENDCHAR
STARTCHAR 01EA
ENCODING 490
SWIDTH 480 0
DWIDTH 8 0
BBX 7 13 0 -3
BITMAP
7C
7C
82
82
82
82
82
82
82
7C
10
0C
0C
ENDCHAR
STARTCHAR 01EB
ENCODING 491
SWIDTH 480 0
DWIDTH 8 0
BBX 7 10 0 -3
BITMAP
7C
82
82
82
82
82
7C
10
0C
0C
ENDCHAR
STARTCHAR 01EC
ENCODING 492
SWIDTH 480 0
DWIDTH 8 0
BBX 7 16 0 -3
BITMAP
7C
7C
00
7C
7C
82
82
82
82
82
82
82
7C
10
0C
0C
ENDCHAR
STARTCHAR 01ED
ENCODING 493
SWIDTH 480 0
DWIDTH 8 0
BBX 7 13 0 -3
BITMAP
7C
7C
00
7C
82
82
82
82
82
7C
10
0C
0C
ENDCHAR
STARTCHAR 01EE
ENCODING 494
SWIDTH 480 0
DWIDTH 8 0
BBX 7 15 0 -1
BITMAP
6C
7C
10
00
FE
FE
02
0C
10
10
0C
02
02
82
7C
ENDCHAR
STARTCHAR 01EF
ENCODING 495
SWIDTH 480 0
DWIDTH 8 0
BBX 7 14 0 -3
BITMAP
6C
10
10
00
FE
0C
0C
10
0C
0C
02
82
7C
7C
ENDCHAR
STARTCHAR 01F0
ENCODING 496
SWIDTH 480 0
DWIDTH 8 0
BBX 6 14 0 -3
BITMAP
6C
10
10
00
10
10
10
10
10
10
10
10
E0
E0
ENDCHAR
STARTCHAR 01F1
ENCODING 497
SWIDTH 480 0
DWIDTH 8 0
BBX 7 10 0 0
BITMAP
FE
FE
92
9C
9C
9C
90
90
90
EE
ENDCHAR
STARTCHAR 01F2
ENCODING 498
SWIDTH 480 0
DWIDTH 8 0
BBX 7 10 0 0
BITMAP
E0
E0
90
9E
92
92
9C
90
90
EE
ENDCHAR
STARTCHAR 01F3
ENCODING 499
SWIDTH 480 0
DWIDTH 8 0
BBX 7 10 0 0
BITMAP
10
10
10
7E
92
92
9C
90
90
6E
ENDCHAR
STARTCHAR 01F4
ENCODING 500
SWIDTH 480 0
DWIDTH 8 0
BBX 7 14 0 0
BITMAP
0C
1C
10
00
7C
7C
82
80
8E
8E
82
82
82
7C
ENDCHAR
STARTCHAR 01F5
ENCODING 501
SWIDTH 480 0
DWIDTH 8 0
BBX 7 14 0 -3
BITMAP
0C
10
10
00
7E
82
82
82
8E
8E
72
02
7C
7C
ENDCHAR
STARTCHAR 01F6
ENCODING 502
SWIDTH 480 0
DWIDTH 8 0
BBX 7 10 0 0
BITMAP
90
90
90
92
F2
F2
92
92
92
8C
ENDCHAR
STARTCHAR 01F7
ENCODING 503
SWIDTH 480 0
DWIDTH 8 0
BBX 7 10 0 0
BITMAP
FC
FC
82
82
8C
8C
90
E0
E0
80
ENDCHAR
STARTCHAR 01F8
ENCODING 504
SWIDTH 480 0
DWIDTH 8 0
BBX 7 14 0 0
BITMAP
60
70
10
00
82
82
82
E2
92
92
8E
82
82
82
ENDCHAR
STARTCHAR 01F9
ENCODING 505
SWIDTH 480 0
DWIDTH 8 0
BBX 7 11 0 0
BITMAP
60
10
10
00
9C
E2
E2
82
82
82
82
ENDCHAR
STARTCHAR 01FA
ENCODING 506
SWIDTH 480 0
DWIDTH 8 0
BBX 7 18 0 0
BITMAP
0C
10
10
00
10
7C
6C
10
7C
7C
82
82
FE
FE
82
82
82
82
ENDCHAR
STARTCHAR 01FB
ENCODING 507
SWIDTH 480 0
DWIDTH 8 0
BBX 7 17 0 0
BITMAP
0C
0C
10
00
10
10
6C
10
10
00
7C
02
02
7E
82
82
7E
ENDCHAR
STARTCHAR 01FC
ENCODING 508
SWIDTH 480 0
DWIDTH 8 0
BBX 7 14 0 0
BITMAP
0C
1C
10
00
7E
7E
90
90
FC
FC
90
90
90
9E
ENDCHAR
STARTCHAR 01FD
ENCODING 509
SWIDTH 480 0
DWIDTH 8 0
BBX 7 11 0 0
BITMAP
0C
10
10
00
6C
12
12
7E
90
90
7E
ENDCHAR
STARTCHAR 01FE
ENCODING 510
SWIDTH 480 0
DWIDTH 8 0
BBX 7 14 0 0
BITMAP
0C
1C
10
00
72
72
8C
92
92
92
92
62
62
9C
ENDCHAR
STARTCHAR 01FF
ENCODING 511
SWIDTH 480 0
DWIDTH 8 0
BBX 7 11 0 0
BITMAP
0C
10
10
00
72
8C
8C
92
62
62
9C
ENDCHAR
STARTCHAR 0200
ENCODING 512
SWIDTH 480 0
DWIDTH 8 0
BBX 7 14 0 0
BITMAP
90
FC
6C
00
7C
7C
82
82
FE
FE
82
82
82
82
ENDCHAR
STARTCHAR 0201
ENCODING 513
SWIDTH 480 0
DWIDTH 8 0
BBX 7 11 0 0
BITMAP
90
6C
6C
00
7C
02
02
7E
82
82
7E
ENDCHAR
STARTCHAR 0202
ENCODING 514
SWIDTH 480 0
DWIDTH 8 0
BBX 7 14 0 0
BITMAP
7C
FE
82
00
7C
7C
82
82
FE
FE
82
82
82
82
ENDCHAR
STARTCHAR 0203
ENCODING 515
SWIDTH 480 0
DWIDTH 8 0
BBX 7 11 0 0
BITMAP
7C
82
82
00
7C
02
02
7E
82
82
7E
ENDCHAR
STARTCHAR 0204
ENCODING 516
SWIDTH 480 0
DWIDTH 8 0
BBX 7 14 0 0
BITMAP
90
FC
6C
00
FE
FE
80
80
F0
F0
80
80
80
FE
ENDCHAR
STARTCHAR 0205
ENCODING 517
SWIDTH 480 0
DWIDTH 8 0
BBX 7 11 0 0
BITMAP
90
6C
6C
00
7C
82
82
FE
80
80
7C
ENDCHAR
STARTCHAR 0206
ENCODING 518
SWIDTH 480 0
DWIDTH 8 0
BBX 7 14 0 0
BITMAP
7C
FE
82
00
FE
FE
80
80
F0
F0
80
80
80
FE
ENDCHAR
STARTCHAR 0207
ENCODING 519
SWIDTH 480 0
DWIDTH 8 0
BBX 7 11 0 0
BITMAP
7C
82
82
00
7C
82
82
FE
80
80
7C
ENDCHAR
STARTCHAR 0208
ENCODING 520
SWIDTH 480 0
DWIDTH 8 0
BBX 6 14 0 0
BITMAP
90
FC
6C
00
7C
7C
10
10
10
10
10
10
10
7C
ENDCHAR
STARTCHAR 0209
ENCODING 521
SWIDTH 480 0
DWIDTH 8 0
BBX 6 11 0 0
BITMAP
90
6C
6C
00
70
10
10
10
10
10
7C
ENDCHAR
STARTCHAR 020A
ENCODING 522
SWIDTH 480 0
DWIDTH 8 0
BBX 7 14 0 0
BITMAP
7C
FE
82
00
7C
7C
10
10
10
10
10
10
10
7C
ENDCHAR
STARTCHAR 020B
ENCODING 523
SWIDTH 480 0
DWIDTH 8 0
BBX 7 11 0 0
BITMAP
7C
82
82
00
70
10
10
10
10
10
7C
ENDCHAR
STARTCHAR 020C
ENCODING 524
SWIDTH 480 0
DWIDTH 8 0
BBX 7 14 0 0
BITMAP
90
FC
6C
00
7C
7C
82
82
82
82
82
82
82
7C
ENDCHAR
STARTCHAR 020D
ENCODING 525
SWIDTH 480 0
DWIDTH 8 0
BBX 7 11 0 0
BITMAP
90
6C
6C
00
7C
82
82
82
82
82
7C
ENDCHAR
STARTCHAR 020E
ENCODING 526
SWIDTH 480 0
DWIDTH 8 0
BBX 7 14 0 0
BITMAP
7C
FE
82
00
7C
7C
82
82
82
82
82
82
82
7C
ENDCHAR
STARTCHAR 020F
ENCODING 527
SWIDTH 480 0
DWIDTH 8 0
BBX 7 11 0 0
BITMAP
7C
82
82
00
7C
82
82
82
82
82
7C
ENDCHAR
STARTCHAR 0210
ENCODING 528
SWIDTH 480 0
DWIDTH 8 0
BBX 7 14 0 0
BITMAP
90
FC
6C
00
FC
FC
82
82
FC
FC
90
8C
8C
82
ENDCHAR
STARTCHAR 0211
ENCODING 529
SWIDTH 480 0
DWIDTH 8 0
BBX 7 11 0 0
BITMAP
90
6C
6C
00
9C
E2
E2
80
80
80
80
ENDCHAR
STARTCHAR 0212
ENCODING 530
SWIDTH 480 0
DWIDTH 8 0
BBX 7 14 0 0
BITMAP
7C
FE
82
00
FC
FC
82
82
FC
FC
90
8C
8C
82
ENDCHAR
STARTCHAR 0213
ENCODING 531
SWIDTH 480 0
DWIDTH 8 0
BBX 7 11 0 0
BITMAP
7C
82
82
00
9C
E2
E2
80
80
80
80
ENDCHAR
STARTCHAR 0214
ENCODING 532
SWIDTH 480 0
DWIDTH 8 0
BBX 7 14 0 0
BITMAP
90
FC
6C
00
82
82
82
82
82
82
82
82
82
7C
ENDCHAR
STARTCHAR 0215
ENCODING 533
SWIDTH 480 0
DWIDTH 8 0
BBX 7 11 0 0
BITMAP
90
6C
6C
00
82
82
82
82
8E
8E
72
ENDCHAR
STARTCHAR 0216
ENCODING 534
SWIDTH 480 0
DWIDTH 8 0
BBX 7 14 0 0
BITMAP
7C
FE
82
00
82
82
82
82
82
82
82
82
82
7C
ENDCHAR
STARTCHAR 0217
ENCODING 535
SWIDTH 480 0
DWIDTH 8 0
BBX 7 11 0 0
BITMAP
7C
82
82
00
82
82
82
82
8E
8E
72
ENDCHAR
STARTCHAR 0218
ENCODING 536
SWIDTH 480 0
DWIDTH 8 0
BBX 7 16 0 -6
BITMAP
7C
7C
82
80
7C
7C
02
82
82
7C
00
70
70
10
60
60
ENDCHAR
STARTCHAR 0219
ENCODING 537
SWIDTH 480 0
DWIDTH 8 0
BBX 7 13 0 -6
BITMAP
7E
80
80
7C
02
02
FC
00
70
70
10
60
60
ENDCHAR
STARTCHAR 021A
ENCODING 538
SWIDTH 480 0
DWIDTH 8 0
BBX 7 16 0 -6
BITMAP
FE
FE
10
10
10
10
10
10
10
10
00
70
70
10
60
60
ENDCHAR
STARTCHAR 021B
ENCODING 539
SWIDTH 480 0
DWIDTH 8 0
BBX 6 16 1 -6
BITMAP
20
20
20
F8
20
20
20
20
20
1C
00
38
38
18
20
20
ENDCHAR
STARTCHAR 021C
ENCODING 540
SWIDTH 480 0
DWIDTH 8 0
BBX 7 10 0 0
BITMAP
FC
FC
02
0C
72
72
02
0C
0C
F0
ENDCHAR
STARTCHAR 021D
ENCODING 541
SWIDTH 480 0
DWIDTH 8 0
BBX 7 10 0 -3
BITMAP
FC
02
02
0C
72
72
02
0C
F0
F0
ENDCHAR
STARTCHAR 021E
ENCODING 542
SWIDTH 480 0
DWIDTH 8 0
BBX 7 14 0 0
BITMAP
6C
7C
10
00
82
82
82
82
FE
FE
82
82
82
82
ENDCHAR
STARTCHAR 021F
ENCODING 543
SWIDTH 480 0
DWIDTH 8 0
BBX 7 14 0 0
BITMAP
6C
7C
10
00
80
80
80
9C
E2
E2
82
82
82
82
ENDCHAR
STARTCHAR 0220
ENCODING 544
SWIDTH 480 0
DWIDTH 8 0
BBX 7 13 0 -3
BITMAP
9C
9C
E2
82
82
82
82
82
82
82
02
02
02
ENDCHAR
STARTCHAR 0221
ENCODING 545
SWIDTH 480 0
DWIDTH 8 0
BBX 8 11 0 -1
BITMAP
0C
0C
0C
7C
8C
8C
8E
9D
9D
6E
10
ENDCHAR
STARTCHAR 0222
ENCODING 546
SWIDTH 480 0
DWIDTH 8 0
BBX 7 10 0 0
BITMAP
6C
6C
82
82
7C
7C
82
82
82
7C
ENDCHAR
STARTCHAR 0223
ENCODING 547
SWIDTH 480 0
DWIDTH 8 0
BBX 7 10 0 0
BITMAP
6C
6C
82
7C
82
82
82
82
82
7C
ENDCHAR
STARTCHAR 0224
ENCODING 548
SWIDTH 480 0
DWIDTH 8 0
BBX 7 13 0 -3
BITMAP
FE
FE
02
0C
10
10
60
80
80
FE
02
0C
0C
ENDCHAR
STARTCHAR 0225
ENCODING 549
SWIDTH 480 0
DWIDTH 8 0
BBX 7 10 0 -3
BITMAP
FE
0C
0C
10
60
60
FE
02
0C
0C
ENDCHAR
STARTCHAR 0226
ENCODING 550
SWIDTH 480 0
DWIDTH 8 0
BBX 7 13 0 0
BITMAP
10
10
00
7C
7C
82
82
FE
FE
82
82
82
82
ENDCHAR
STARTCHAR 0227
ENCODING 551
SWIDTH 480 0
DWIDTH 8 0
BBX 7 10 0 0
BITMAP
10
10
00
7C
02
02
7E
82
82
7E
ENDCHAR
STARTCHAR 0228
ENCODING 552
SWIDTH 480 0
DWIDTH 8 0
BBX 7 13 0 -3
BITMAP
FE
FE
80
80
F0
F0
80
80
80
FE
10
60
60
ENDCHAR
STARTCHAR 0229
ENCODING 553
SWIDTH 480 0
DWIDTH 8 0
BBX 7 10 0 -3
BITMAP
7C
82
82
FE
80
80
7C
10
60
60
ENDCHAR
STARTCHAR 022A
ENCODING 554
SWIDTH 480 0
DWIDTH 8 0
BBX 7 15 0 0
BITMAP
7C
00
6C
6C
00
7C
7C
82
82
82
82
82
82
82
7C
ENDCHAR
STARTCHAR 022B
ENCODING 555
SWIDTH 480 0
DWIDTH 8 0
BBX 7 13 0 0
BITMAP
7C
7C
00
6C
6C
00
7C
82
82
82
82
82
7C
ENDCHAR
STARTCHAR 022C
ENCODING 556
SWIDTH 480 0
DWIDTH 8 0
BBX 7 17 0 0
BITMAP
7C
7C
00
72
92
9C
00
7C
7C
82
82
82
82
82
82
82
7C
ENDCHAR
STARTCHAR 022D
ENCODING 557
SWIDTH 480 0
DWIDTH 8 0
BBX 7 14 0 0
BITMAP
7C
7C
00
72
9C
9C
00
7C
82
82
82
82
82
7C
ENDCHAR
STARTCHAR 022E
ENCODING 558
SWIDTH 480 0
DWIDTH 8 0
BBX 7 13 0 0
BITMAP
10
10
00
7C
7C
82
82
82
82
82
82
82
7C
ENDCHAR
STARTCHAR 022F
ENCODING 559
SWIDTH 480 0
DWIDTH 8 0
BBX 7 10 0 0
BITMAP
10
10
00
7C
82
82
82
82
82
7C
ENDCHAR
STARTCHAR 0230
ENCODING 560
SWIDTH 480 0
DWIDTH 8 0
BBX 7 15 0 0
BITMAP
7C
00
10
10
00
7C
7C
82
82
82
82
82
82
82
7C
ENDCHAR
STARTCHAR 0231
ENCODING 561
SWIDTH 480 0
DWIDTH 8 0
BBX 7 13 0 0
BITMAP
7C
7C
00
10
10
00
7C
82
82
82
82
82
7C
ENDCHAR
STARTCHAR 0232
ENCODING 562
SWIDTH 480 0
DWIDTH 8 0
BBX 7 13 0 0
BITMAP
7C
7C
00
82
82
82
6C
10
10
10
10
10
10
ENDCHAR
STARTCHAR 0233
ENCODING 563
SWIDTH 480 0
DWIDTH 8 0
BBX 7 13 0 -3
BITMAP
7C
7C
00
82
82
82
82
8E
8E
72
02
7C
7C
ENDCHAR
STARTCHAR 0234
ENCODING 564
SWIDTH 480 0
DWIDTH 8 0
BBX 6 10 1 0
BITMAP
E0
E0
20
20
20
20
38
24
24
D8
ENDCHAR
STARTCHAR 0235
ENCODING 565
SWIDTH 480 0
DWIDTH 8 0
BBX 8 7 0 0
BITMAP
90
EC
EC
8E
8D
8D
92
ENDCHAR
STARTCHAR 0236
ENCODING 566
SWIDTH 480 0
DWIDTH 8 0
BBX 7 11 0 -1
BITMAP
60
60
60
F0
60
60
6C
72
72
1C
60
ENDCHAR
STARTCHAR 0237
ENCODING 567
SWIDTH 480 0
DWIDTH 8 0
BBX 4 10 0 -3
BITMAP
10
10
10
10
10
10
10
10
E0
E0
ENDCHAR
STARTCHAR 0238
ENCODING 568
SWIDTH 480 0
DWIDTH 8 0
BBX 7 10 0 0
BITMAP
10
10
10
7C
92
92
92
92
92
7C
ENDCHAR
STARTCHAR 0239
ENCODING 569
SWIDTH 480 0
DWIDTH 8 0
BBX 7 10 0 -3
BITMAP
7C
92
92
92
92
92
7C
10
10
10
ENDCHAR
STARTCHAR 023A
ENCODING 570
SWIDTH 480 0
DWIDTH 8 0
BBX 7 12 0 -1
BITMAP
0C
7C
7C
8E
92
FE
FE
92
E2
E2
E2
60
ENDCHAR
STARTCHAR 023B
ENCODING 571
SWIDTH 480 0
DWIDTH 8 0
BBX 7 12 0 -1
BITMAP
0C
7C
7C
8E
90
90
90
90
E2
E2
7C
60
ENDCHAR
STARTCHAR 023C
ENCODING 572
SWIDTH 480 0
DWIDTH 8 0
BBX 7 9 0 -1
BITMAP
0C
7C
92
92
90
90
90
7E
60
ENDCHAR
STARTCHAR 023D
ENCODING 573
SWIDTH 480 0
DWIDTH 8 0
BBX 7 10 0 0
BITMAP
60
60
60
60
F0
F0
60
60
60
7E
ENDCHAR
STARTCHAR 023E
ENCODING 574
SWIDTH 480 0
DWIDTH 8 0
BBX 7 12 0 -1
BITMAP
02
FE
FE
1C
1C
10
10
70
70
70
90
80
ENDCHAR
STARTCHAR 023F
ENCODING 575
SWIDTH 480 0
DWIDTH 8 0
BBX 7 10 0 -3
BITMAP
7E
80
80
7C
02
02
FC
60
1C
1C
ENDCHAR
STARTCHAR 0240
ENCODING 576
SWIDTH 480 0
DWIDTH 8 0
BBX 7 8 0 -1
BITMAP
FE
0C
0C
10
60
60
E2
1C
ENDCHAR
STARTCHAR 0241
ENCODING 577
SWIDTH 480 0
DWIDTH 8 0
BBX 7 10 0 0
BITMAP
7C
7C
82
02
0C
0C
10
10
10
10
ENDCHAR
STARTCHAR 0242
ENCODING 578
SWIDTH 480 0
DWIDTH 8 0
BBX 7 7 0 0
BITMAP
7C
82
82
0C
10
10
10
ENDCHAR
STARTCHAR 0243
ENCODING 579
SWIDTH 480 0
DWIDTH 8 0
BBX 7 10 0 0
BITMAP
7C
7C
62
62
7C
7C
F2
62
62
7C
ENDCHAR
STARTCHAR 0244
ENCODING 580
SWIDTH 480 0
DWIDTH 8 0
BBX 9 10 -1 0
BITMAP
4100
4100
4100
FF80
4100
4100
4100
4100
4100
3E00
ENDCHAR
STARTCHAR 0245
ENCODING 581
SWIDTH 480 0
DWIDTH 8 0
BBX 7 10 0 0
BITMAP
10
10
10
6C
6C
6C
6C
82
82
82
ENDCHAR
STARTCHAR 0246
ENCODING 582
SWIDTH 480 0
DWIDTH 8 0
BBX 7 12 0 -1
BITMAP
0C
FE
FE
8C
90
F0
F0
90
E0
E0
FE
60
ENDCHAR
STARTCHAR 0247
ENCODING 583
SWIDTH 480 0
DWIDTH 8 0
BBX 7 9 0 -1
BITMAP
0C
7C
92
92
FE
90
90
7C
60
ENDCHAR
STARTCHAR 0248
ENCODING 584
SWIDTH 480 0
DWIDTH 8 0
BBX 7 10 0 0
BITMAP
1E
1E
0C
0C
1E
1E
0C
8C
8C
70
ENDCHAR
STARTCHAR 0249
ENCODING 585
SWIDTH 480 0
DWIDTH 8 0
BBX 6 13 0 -3
BITMAP
10
10
00
10
10
10
7C
10
10
10
10
E0
E0
ENDCHAR
STARTCHAR 024A
ENCODING 586
SWIDTH 480 0
DWIDTH 8 0
BBX 8 13 0 -3
BITMAP
7E
7E
82
82
82
82
82
82
82
7E
02
01
01
ENDCHAR
STARTCHAR 024B
ENCODING 587
SWIDTH 480 0
DWIDTH 8 0
BBX 8 10 0 -3
BITMAP
7E
82
82
82
8E
8E
72
02
01
01
ENDCHAR
STARTCHAR 024C
ENCODING 588
SWIDTH 480 0
DWIDTH 8 0
BBX 7 10 0 0
BITMAP
7C
7C
62
62
FC
FC
70
6C
6C
62
ENDCHAR
STARTCHAR 024D
ENCODING 589
SWIDTH 480 0
DWIDTH 8 0
BBX 8 7 -1 0
BITMAP
4E
71
71
40
F0
F0
40
ENDCHAR
STARTCHAR 024E
ENCODING 590
SWIDTH 480 0
DWIDTH 8 0
BBX 9 10 -1 0
BITMAP
4100
4100
FF80
3600
0800
0800
0800
0800
0800
0800
ENDCHAR
STARTCHAR 024F
ENCODING 591
SWIDTH 480 0
DWIDTH 8 0
BBX 9 10 -1 -3
BITMAP
4100
FF80
FF80
4100
4700
4700
3900
0100
3E00
3E00
ENDCHAR
STARTCHAR 0250
ENCODING 592
SWIDTH 480 0
DWIDTH 8 0
BBX 7 7 0 0
BITMAP
FC
82
82
FC
80
80
7C
ENDCHAR
STARTCHAR 0251
ENCODING 593
SWIDTH 480 0
DWIDTH 8 0
BBX 7 7 0 0
BITMAP
7E
82
82
82
8E
8E
72
ENDCHAR
STARTCHAR 0252
ENCODING 594
SWIDTH 480 0
DWIDTH 8 0
BBX 7 7 0 0
BITMAP
9C
E2
E2
82
82
82
FC
ENDCHAR
STARTCHAR 0253
ENCODING 595
SWIDTH 480 0
DWIDTH 8 0
BBX 7 10 0 0
BITMAP
70
70
80
9C
E2
E2
82
82
82
FC
ENDCHAR
STARTCHAR 0254
ENCODING 596
SWIDTH 480 0
DWIDTH 8 0
BBX 7 7 0 0
BITMAP
7C
82
82
02
02
02
FC
ENDCHAR
STARTCHAR 0255
ENCODING 597
SWIDTH 480 0
DWIDTH 8 0
BBX 7 8 0 -1
BITMAP
7E
80
80
8C
92
92
7C
60
ENDCHAR
STARTCHAR 0256
ENCODING 598
SWIDTH 480 0
DWIDTH 8 0
BBX 8 13 0 -3
BITMAP
02
02
02
7E
82
82
82
8E
8E
72
02
01
01
ENDCHAR
STARTCHAR 0257
ENCODING 599
SWIDTH 480 0
DWIDTH 8 0
BBX 8 10 0 0
BITMAP
01
01
02
7E
82
82
82
8E
8E
72
ENDCHAR
STARTCHAR 0258
ENCODING 600
SWIDTH 480 0
DWIDTH 8 0
BBX 7 7 0 0
BITMAP
7C
82
82
FE
02
02
7C
ENDCHAR
STARTCHAR 0259
ENCODING 601
SWIDTH 480 0
DWIDTH 8 0
BBX 7 7 0 0
BITMAP
7C
02
02
FE
82
82
7C
ENDCHAR
STARTCHAR 025A
ENCODING 602
SWIDTH 480 0
DWIDTH 8 0
BBX 8 7 0 0
BITMAP
60
12
12
FE
91
91
60
ENDCHAR
STARTCHAR 025B
ENCODING 603
SWIDTH 480 0
DWIDTH 8 0
BBX 7 7 0 0
BITMAP
7C
82
82
70
82
82
7C
ENDCHAR
STARTCHAR 025C
ENCODING 604
SWIDTH 480 0
DWIDTH 8 0
BBX 7 7 0 0
BITMAP
7C
82
82
1C
82
82
7C
ENDCHAR
STARTCHAR 025D
ENCODING 605
SWIDTH 480 0
DWIDTH 8 0
BBX 8 7 0 0
BITMAP
E0
12
12
7E
11
11
E0
ENDCHAR
STARTCHAR 025E
ENCODING 606
SWIDTH 480 0
DWIDTH 8 0
BBX 7 7 0 0
BITMAP
1C
62
62
8C
62
62
1C
ENDCHAR
STARTCHAR 025F
ENCODING 607
SWIDTH 480 0
DWIDTH 8 0
BBX 6 10 0 -3
BITMAP
10
10
10
10
10
10
7C
10
E0
E0
ENDCHAR
STARTCHAR 0260
ENCODING 608
SWIDTH 480 0
DWIDTH 8 0
BBX 8 13 0 -3
BITMAP
01
01
02
7E
82
82
82
8E
8E
72
02
7C
7C
ENDCHAR
STARTCHAR 0261
ENCODING 609
SWIDTH 480 0
DWIDTH 8 0
BBX 8 10 0 -3
BITMAP
7E
82
82
82
8F
8F
7E
12
1C
1C
ENDCHAR
STARTCHAR 0262
ENCODING 610
SWIDTH 480 0
DWIDTH 8 0
BBX 7 7 0 0
BITMAP
7C
80
80
8E
82
82
7C
ENDCHAR
STARTCHAR 0263
ENCODING 611
SWIDTH 480 0
DWIDTH 8 0
BBX 7 10 0 -3
BITMAP
82
82
82
6C
6C
6C
10
6C
10
10
ENDCHAR
STARTCHAR 0264
ENCODING 612
SWIDTH 480 0
DWIDTH 8 0
BBX 7 7 0 0
BITMAP
EE
6C
6C
10
6C
6C
10
ENDCHAR
STARTCHAR 0265
ENCODING 613
SWIDTH 480 0
DWIDTH 8 0
BBX 7 10 0 -3
BITMAP
82
82
82
82
8E
8E
72
02
02
02
ENDCHAR
STARTCHAR 0266
ENCODING 614
SWIDTH 480 0
DWIDTH 8 0
BBX 7 10 0 0
BITMAP
70
70
80
9C
E2
E2
82
82
82
82
ENDCHAR
STARTCHAR 0267
ENCODING 615
SWIDTH 480 0
DWIDTH 8 0
BBX 7 13 0 -3
BITMAP
70
70
80
9C
E2
E2
82
82
82
82
02
1C
1C
ENDCHAR
STARTCHAR 0268
ENCODING 616
SWIDTH 480 0
DWIDTH 8 0
BBX 5 10 1 0
BITMAP
20
20
00
E0
20
20
F8
20
20
F8
ENDCHAR
STARTCHAR 0269
ENCODING 617
SWIDTH 480 0
DWIDTH 8 0
BBX 6 7 1 0
BITMAP
E0
20
20
20
24
24
18
ENDCHAR
STARTCHAR 026A
ENCODING 618
SWIDTH 480 0
DWIDTH 8 0
BBX 5 7 1 0
BITMAP
F8
20
20
20
20
20
F8
ENDCHAR
STARTCHAR 026B
ENCODING 619
SWIDTH 480 0
DWIDTH 8 0
BBX 7 10 0 0
BITMAP
70
70
10
72
9C
9C
10
10
10
7C
ENDCHAR
STARTCHAR 026C
ENCODING 620
SWIDTH 480 0
DWIDTH 8 0
BBX 6 10 0 0
BITMAP
70
70
10
70
90
90
7C
10
10
7C
ENDCHAR
STARTCHAR 026D
ENCODING 621
SWIDTH 480 0
DWIDTH 8 0
BBX 6 13 1 -3
BITMAP
E0
E0
20
20
20
20
20
20
20
20
20
1C
1C
ENDCHAR
STARTCHAR 026E
ENCODING 622
SWIDTH 480 0
DWIDTH 8 0
BBX 7 13 0 -3
BITMAP
E0
E0
60
7E
62
62
6C
62
62
F2
02
1C
1C
ENDCHAR
STARTCHAR 026F
ENCODING 623
SWIDTH 480 0
DWIDTH 8 0
BBX 7 7 0 0
BITMAP
92
92
92
92
92
92
6E
ENDCHAR
STARTCHAR 0270
ENCODING 624
SWIDTH 480 0
DWIDTH 8 0
BBX 7 10 0 -3
BITMAP
92
92
92
92
92
92
6E
02
02
02
ENDCHAR
STARTCHAR 0271
ENCODING 625
SWIDTH 480 0
DWIDTH 8 0
BBX 7 10 0 -3
BITMAP
EC
92
92
92
92
92
92
02
1C
1C
ENDCHAR
STARTCHAR 0272
ENCODING 626
SWIDTH 480 0
DWIDTH 8 0
BBX 7 10 0 -3
BITMAP
6C
72
72
62
62
62
62
60
80
80
ENDCHAR
STARTCHAR 0273
ENCODING 627
SWIDTH 480 0
DWIDTH 8 0
BBX 8 10 0 -3
BITMAP
9C
E2
E2
82
82
82
82
02
01
01
ENDCHAR
STARTCHAR 0274
ENCODING 628
SWIDTH 480 0
DWIDTH 8 0
BBX 7 7 0 0
BITMAP
82
E2
E2
92
8E
8E
82
ENDCHAR
STARTCHAR 0275
ENCODING 629
SWIDTH 480 0
DWIDTH 8 0
BBX 7 7 0 0
BITMAP
7C
82
82
FE
82
82
7C
ENDCHAR
STARTCHAR 0276
ENCODING 630
SWIDTH 480 0
DWIDTH 8 0
BBX 7 7 0 0
BITMAP
7E
90
90
9E
90
90
7E
ENDCHAR
STARTCHAR 0277
ENCODING 631
SWIDTH 480 0
DWIDTH 8 0
BBX 7 7 0 0
BITMAP
10
6C
6C
82
92
92
6C
ENDCHAR
STARTCHAR 0278
ENCODING 632
SWIDTH 480 0
DWIDTH 8 0
BBX 7 13 0 -3
BITMAP
10
10
10
7C
92
92
92
92
92
7C
10
10
10
ENDCHAR
STARTCHAR 0279
ENCODING 633
SWIDTH 480 0
DWIDTH 8 0
BBX 7 7 0 0
BITMAP
02
02
02
02
8E
8E
72
ENDCHAR
STARTCHAR 027A
ENCODING 634
SWIDTH 480 0
DWIDTH 8 0
BBX 7 10 0 0
BITMAP
02
02
02
02
02
02
02
8E
8E
72
ENDCHAR
STARTCHAR 027B
ENCODING 635
SWIDTH 480 0
DWIDTH 8 0
BBX 8 10 0 -3
BITMAP
02
02
02
02
8E
8E
72
02
01
01
ENDCHAR
STARTCHAR 027C
ENCODING 636
SWIDTH 480 0
DWIDTH 8 0
BBX 7 10 0 -3
BITMAP
9C
E2
E2
80
80
80
80
80
80
80
ENDCHAR
STARTCHAR 027D
ENCODING 637
SWIDTH 480 0
DWIDTH 8 0
BBX 7 10 0 -3
BITMAP
9C
E2
E2
80
80
80
80
80
70
70
ENDCHAR
STARTCHAR 027E
ENCODING 638
SWIDTH 480 0
DWIDTH 8 0
BBX 7 7 0 0
BITMAP
1C
62
62
80
80
80
80
ENDCHAR
STARTCHAR 027F
ENCODING 639
SWIDTH 480 0
DWIDTH 8 0
BBX 7 7 0 0
BITMAP
70
8C
8C
02
02
02
02
ENDCHAR
STARTCHAR 0280
ENCODING 640
SWIDTH 480 0
DWIDTH 8 0
BBX 7 7 0 0
BITMAP
FC
82
82
FC
90
90
8C
ENDCHAR
STARTCHAR 0281
ENCODING 641
SWIDTH 480 0
DWIDTH 8 0
BBX 7 7 0 0
BITMAP
8C
90
90
FC
82
82
FC
ENDCHAR
STARTCHAR 0282
ENCODING 642
SWIDTH 480 0
DWIDTH 8 0
BBX 7 10 0 -3
BITMAP
7E
80
80
7C
02
02
FC
80
70
70
ENDCHAR
STARTCHAR 0283
ENCODING 643
SWIDTH 480 0
DWIDTH 8 0
BBX 7 13 0 -3
BITMAP
0E
0E
10
10
10
10
10
10
10
10
10
E0
E0
ENDCHAR
STARTCHAR 0284
ENCODING 644
SWIDTH 480 0
DWIDTH 8 0
BBX 7 13 0 -3
BITMAP
0E
0E
10
10
10
10
10
10
10
7C
10
E0
E0
ENDCHAR
STARTCHAR 0285
ENCODING 645
SWIDTH 480 0
DWIDTH 8 0
BBX 7 10 0 0
BITMAP
E0
E0
10
10
10
10
10
10
10
0E
ENDCHAR
STARTCHAR 0286
ENCODING 646
SWIDTH 480 0
DWIDTH 8 0
BBX 7 13 0 -3
BITMAP
0E
0E
10
10
10
10
10
10
10
70
90
6C
6C
ENDCHAR
STARTCHAR 0287
ENCODING 647
SWIDTH 480 0
DWIDTH 8 0
BBX 6 10 0 -3
BITMAP
E0
10
10
10
10
10
7C
10
10
10
ENDCHAR
STARTCHAR 0288
ENCODING 648
SWIDTH 480 0
DWIDTH 8 0
BBX 6 13 1 -3
BITMAP
20
20
20
F8
20
20
20
20
20
20
20
1C
1C
ENDCHAR
STARTCHAR 0289
ENCODING 649
SWIDTH 480 0
DWIDTH 8 0
BBX 9 7 -1 0
BITMAP
4100
FF80
FF80
4100
4700
4700
3900
ENDCHAR
STARTCHAR 028A
ENCODING 650
SWIDTH 480 0
DWIDTH 8 0
BBX 7 7 0 0
BITMAP
EE
6C
6C
82
82
82
7C
ENDCHAR
STARTCHAR 028B
ENCODING 651
SWIDTH 480 0
DWIDTH 8 0
BBX 7 7 0 0
BITMAP
9C
82
82
82
8C
8C
70
ENDCHAR
STARTCHAR 028C
ENCODING 652
SWIDTH 480 0
DWIDTH 8 0
BBX 7 7 0 0
BITMAP
10
6C
6C
6C
82
82
82
ENDCHAR
STARTCHAR 028D
ENCODING 653
SWIDTH 480 0
DWIDTH 8 0
BBX 7 7 0 0
BITMAP
6C
92
92
92
92
92
82
ENDCHAR
STARTCHAR 028E
ENCODING 654
SWIDTH 480 0
DWIDTH 8 0
BBX 7 10 0 0
BITMAP
7C
7C
80
9C
E2
E2
82
82
82
82
ENDCHAR
STARTCHAR 028F
ENCODING 655
SWIDTH 480 0
DWIDTH 8 0
BBX 7 7 0 0
BITMAP
82
6C
6C
10
10
10
10
ENDCHAR
STARTCHAR 0290
ENCODING 656
SWIDTH 480 0
DWIDTH 8 0
BBX 8 10 0 -3
BITMAP
FE
0C
0C
10
60
60
FE
02
01
01
ENDCHAR
STARTCHAR 0291
ENCODING 657
SWIDTH 480 0
DWIDTH 8 0
BBX 8 8 0 -1
BITMAP
FE
0C
0C
12
6D
6D
FE
10
ENDCHAR
STARTCHAR 0292
ENCODING 658
SWIDTH 480 0
DWIDTH 8 0
BBX 7 10 0 -3
BITMAP
FE
0C
0C
10
0C
0C
02
82
7C
7C
ENDCHAR
STARTCHAR 0293
ENCODING 659
SWIDTH 480 0
DWIDTH 8 0
BBX 7 11 0 -4
BITMAP
FE
0C
0C
10
0C
0C
62
92
7C
7C
02
ENDCHAR
STARTCHAR 0294
ENCODING 660
SWIDTH 480 0
DWIDTH 8 0
BBX 7 10 0 0
BITMAP
7C
7C
82
02
0C
0C
10
10
10
10
ENDCHAR
STARTCHAR 0295
ENCODING 661
SWIDTH 480 0
DWIDTH 8 0
BBX 7 10 0 0
BITMAP
7C
7C
82
80
60
60
10
10
10
10
ENDCHAR
STARTCHAR 0296
ENCODING 662
SWIDTH 480 0
DWIDTH 8 0
BBX 7 10 0 0
BITMAP
10
10
10
10
0C
0C
02
82
82
7C
ENDCHAR
STARTCHAR 0297
ENCODING 663
SWIDTH 480 0
DWIDTH 8 0
BBX 7 10 0 -3
BITMAP
7C
82
82
80
80
80
80
82
7C
7C
ENDCHAR
STARTCHAR 0298
ENCODING 664
SWIDTH 480 0
DWIDTH 8 0
BBX 7 8 0 0
BITMAP
7C
82
92
92
92
82
82
7C
ENDCHAR
STARTCHAR 0299
ENCODING 665
SWIDTH 480 0
DWIDTH 8 0
BBX 7 7 0 0
BITMAP
FC
82
82
FC
82
82
FC
ENDCHAR
STARTCHAR 029A
ENCODING 666
SWIDTH 480 0
DWIDTH 8 0
BBX 7 7 0 0
BITMAP
70
8C
8C
62
8C
8C
70
ENDCHAR
STARTCHAR 029B
ENCODING 667
SWIDTH 480 0
DWIDTH 8 0
BBX 8 10 0 0
BITMAP
03
03
0C
7C
80
80
8E
82
82
7C
ENDCHAR
STARTCHAR 029C
ENCODING 668
SWIDTH 480 0
DWIDTH 8 0
BBX 7 7 0 0
BITMAP
82
82
82
FE
82
82
82
ENDCHAR
STARTCHAR 029D
ENCODING 669
SWIDTH 480 0
DWIDTH 8 0
BBX 6 13 0 -3
BITMAP
10
10
00
10
10
10
10
10
10
7C
90
60
60
ENDCHAR
STARTCHAR 029E
ENCODING 670
SWIDTH 480 0
DWIDTH 8 0
BBX 7 10 0 -3
BITMAP
82
62
62
1E
12
12
62
02
02
02
ENDCHAR
STARTCHAR 029F
ENCODING 671
SWIDTH 480 0
DWIDTH 8 0
BBX 7 7 0 0
BITMAP
80
80
80
80
80
80
FE
ENDCHAR
STARTCHAR 02A0
ENCODING 672
SWIDTH 480 0
DWIDTH 8 0
BBX 8 13 0 -3
BITMAP
01
01
02
7E
82
82
82
8E
8E
72
02
02
02
ENDCHAR
STARTCHAR 02A1
ENCODING 673
SWIDTH 480 0
DWIDTH 8 0
BBX 7 10 0 0
BITMAP
7C
7C
82
02
0C
0C
10
7C
7C
10
ENDCHAR
STARTCHAR 02A2
ENCODING 674
SWIDTH 480 0
DWIDTH 8 0
BBX 7 10 0 0
BITMAP
7C
7C
82
80
60
60
10
7C
7C
10
ENDCHAR
STARTCHAR 02A3
ENCODING 675
SWIDTH 480 0
DWIDTH 8 0
BBX 7 10 0 0
BITMAP
10
10
10
7E
92
92
9C
90
90
6E
ENDCHAR
STARTCHAR 02A4
ENCODING 676
SWIDTH 480 0
DWIDTH 8 0
BBX 7 13 0 -3
BITMAP
10
10
10
7E
92
92
9C
92
92
72
02
1C
1C
ENDCHAR
STARTCHAR 02A5
ENCODING 677
SWIDTH 480 0
DWIDTH 8 0
BBX 8 11 0 -1
BITMAP
10
10
10
7E
9C
9C
92
9D
9D
6E
0C
ENDCHAR
STARTCHAR 02A6
ENCODING 678
SWIDTH 480 0
DWIDTH 8 0
BBX 7 10 0 0
BITMAP
60
60
60
F2
6C
6C
6E
62
62
1C
ENDCHAR
STARTCHAR 02A7
ENCODING 679
SWIDTH 480 0
DWIDTH 8 0
BBX 8 13 0 -3
BITMAP
63
63
6C
FC
6C
6C
6C
6C
6C
1C
0C
70
70
ENDCHAR
STARTCHAR 02A8
ENCODING 680
SWIDTH 480 0
DWIDTH 8 0
BBX 8 11 0 -1
BITMAP
60
60
60
F3
6C
6C
6E
6D
6D
1E
10
ENDCHAR
STARTCHAR 02A9
ENCODING 681
SWIDTH 480 0
DWIDTH 8 0
BBX 7 13 0 -3
BITMAP
70
70
80
FC
92
92
92
92
92
92
02
1C
1C
ENDCHAR
STARTCHAR 02AA
ENCODING 682
SWIDTH 480 0
DWIDTH 8 0
BBX 7 10 0 0
BITMAP
E0
E0
60
62
6C
6C
6E
62
62
FC
ENDCHAR
STARTCHAR 02AB
ENCODING 683
SWIDTH 480 0
DWIDTH 8 0
BBX 7 10 0 0
BITMAP
E0
E0
60
7E
62
62
6C
70
70
FE
ENDCHAR
STARTCHAR 02AC
ENCODING 684
SWIDTH 480 0
DWIDTH 8 0
BBX 7 10 0 0
BITMAP
92
92
92
6C
00
00
92
92
92
6C
ENDCHAR
STARTCHAR 02AD
ENCODING 685
SWIDTH 480 0
DWIDTH 8 0
BBX 7 10 0 0
BITMAP
FE
FE
82
82
00
00
FE
82
82
82
ENDCHAR
STARTCHAR 02AE
ENCODING 686
SWIDTH 480 0
DWIDTH 8 0
BBX 7 10 0 -3
BITMAP
82
62
62
62
6E
6E
12
02
02
02
ENDCHAR
STARTCHAR 02AF
ENCODING 687
SWIDTH 480 0
DWIDTH 8 0
BBX 8 10 0 -3
BITMAP
82
62
62
62
6E
6E
12
02
01
01
ENDCHAR
STARTCHAR 02B0
ENCODING 688
SWIDTH 480 0
DWIDTH 8 0
BBX 5 5 1 6
BITMAP
C0
E0
E0
D8
D8
ENDCHAR
STARTCHAR 02B1
ENCODING 689
SWIDTH 480 0
DWIDTH 8 0
BBX 5 5 1 6
BITMAP
38
E0
E0
D8
D8
ENDCHAR
STARTCHAR 02B2
ENCODING 690
SWIDTH 480 0
DWIDTH 8 0
BBX 3 8 1 3
BITMAP
20
00
00
20
20
20
20
C0
ENDCHAR
STARTCHAR 02B3
ENCODING 691
SWIDTH 480 0
DWIDTH 8 0
BBX 5 4 1 6
BITMAP
D8
D8
E0
C0
ENDCHAR
STARTCHAR 02B4
ENCODING 692
SWIDTH 480 0
DWIDTH 8 0
BBX 5 4 1 6
BITMAP
18
18
38
D8
ENDCHAR
STARTCHAR 02B5
ENCODING 693
SWIDTH 480 0
DWIDTH 8 0
BBX 6 7 1 3
BITMAP
18
18
38
D8
18
18
04
ENDCHAR
STARTCHAR 02B6
ENCODING 694
SWIDTH 480 0
DWIDTH 8 0
BBX 5 4 1 6
BITMAP
D8
D8
E0
F8
ENDCHAR
STARTCHAR 02B7
ENCODING 695
SWIDTH 480 0
DWIDTH 8 0
BBX 7 4 0 6
BITMAP
92
92
92
6C
ENDCHAR
STARTCHAR 02B8
ENCODING 696
SWIDTH 480 0
DWIDTH 8 0
BBX 5 6 1 4
BITMAP
D8
D8
D8
38
E0
E0
ENDCHAR
STARTCHAR 02B9
ENCODING 697
SWIDTH 480 0
DWIDTH 8 0
BBX 3 6 1 7
BITMAP
20
20
20
C0
C0
C0
ENDCHAR
STARTCHAR 02BA
ENCODING 698
SWIDTH 480 0
DWIDTH 8 0
BBX 6 6 1 7
BITMAP
24
24
24
D8
D8
D8
ENDCHAR
STARTCHAR 02BB
ENCODING 699
SWIDTH 480 0
DWIDTH 8 0
BBX 3 4 3 7
BITMAP
60
80
80
E0
ENDCHAR
STARTCHAR 02BC
ENCODING 700
SWIDTH 480 0
DWIDTH 8 0
BBX 3 4 3 7
BITMAP
E0
60
60
80
ENDCHAR
STARTCHAR 02BD
ENCODING 701
SWIDTH 480 0
DWIDTH 8 0
BBX 3 4 3 7
BITMAP
E0
80
80
60
ENDCHAR
STARTCHAR 02BE
ENCODING 702
SWIDTH 480 0
DWIDTH 8 0
BBX 3 4 3 7
BITMAP
80
60
60
80
ENDCHAR
STARTCHAR 02BF
ENCODING 703
SWIDTH 480 0
DWIDTH 8 0
BBX 3 4 3 7
BITMAP
60
80
80
60
ENDCHAR
STARTCHAR 02C0
ENCODING 704
SWIDTH 480 0
DWIDTH 8 0
BBX 5 5 1 6
BITMAP
E0
18
18
20
20
ENDCHAR
STARTCHAR 02C1
ENCODING 705
SWIDTH 480 0
DWIDTH 8 0
BBX 5 5 1 6
BITMAP
38
C0
C0
20
20
ENDCHAR
STARTCHAR 02C2
ENCODING 706
SWIDTH 480 0
DWIDTH 8 0
BBX 7 7 0 6
BITMAP
0E
0E
70
80
80
70
0E
ENDCHAR
STARTCHAR 02C3
ENCODING 707
SWIDTH 480 0
DWIDTH 8 0
BBX 7 7 0 6
BITMAP
E0
E0
1C
02
02
1C
E0
ENDCHAR
STARTCHAR 02C4
ENCODING 708
SWIDTH 480 0
DWIDTH 8 0
BBX 7 7 0 6
BITMAP
10
10
6C
6C
6C
82
82
ENDCHAR
STARTCHAR 02C5
ENCODING 709
SWIDTH 480 0
DWIDTH 8 0
BBX 7 7 0 6
BITMAP
82
82
82
6C
6C
6C
10
ENDCHAR
STARTCHAR 02C6
ENCODING 710
SWIDTH 480 0
DWIDTH 8 0
BBX 5 3 1 7
BITMAP
20
20
D8
ENDCHAR
STARTCHAR 02C7
ENCODING 711
SWIDTH 480 0
DWIDTH 8 0
BBX 5 3 1 7
BITMAP
D8
D8
20
ENDCHAR
STARTCHAR 02C8
ENCODING 712
SWIDTH 480 0
DWIDTH 8 0
BBX 1 3 3 7
BITMAP
80
80
80
ENDCHAR
STARTCHAR 02C9
ENCODING 713
SWIDTH 480 0
DWIDTH 8 0
BBX 5 2 1 8
BITMAP
F8
F8
ENDCHAR
STARTCHAR 02CA
ENCODING 714
SWIDTH 480 0
DWIDTH 8 0
BBX 3 3 3 7
BITMAP
60
60
80
ENDCHAR
STARTCHAR 02CB
ENCODING 715
SWIDTH 480 0
DWIDTH 8 0
BBX 3 3 1 7
BITMAP
C0
C0
20
ENDCHAR
STARTCHAR 02CC
ENCODING 716
SWIDTH 480 0
DWIDTH 8 0
BBX 1 3 3 -3
BITMAP
80
80
80
ENDCHAR
STARTCHAR 02CD
ENCODING 717
SWIDTH 480 0
DWIDTH 8 0
BBX 5 2 1 -3
BITMAP
F8
F8
ENDCHAR
STARTCHAR 02CE
ENCODING 718
SWIDTH 480 0
DWIDTH 8 0
BBX 3 3 3 -4
BITMAP
80
80
60
ENDCHAR
STARTCHAR 02CF
ENCODING 719
SWIDTH 480 0
DWIDTH 8 0
BBX 3 3 1 -4
BITMAP
20
20
C0
ENDCHAR
STARTCHAR 02D0
ENCODING 720
SWIDTH 480 0
DWIDTH 8 0
BBX 5 7 1 0
BITMAP
F8
20
20
00
20
20
F8
ENDCHAR
STARTCHAR 02D1
ENCODING 721
SWIDTH 480 0
DWIDTH 8 0
BBX 5 3 1 0
BITMAP
F8
F8
20
ENDCHAR
STARTCHAR 02D2
ENCODING 722
SWIDTH 480 0
DWIDTH 8 0
BBX 3 4 3 3
BITMAP
80
60
60
80
ENDCHAR
STARTCHAR 02D3
ENCODING 723
SWIDTH 480 0
DWIDTH 8 0
BBX 3 4 3 3
BITMAP
60
80
80
60
ENDCHAR
STARTCHAR 02D4
ENCODING 724
SWIDTH 480 0
DWIDTH 8 0
BBX 5 4 1 7
BITMAP
20
20
20
F8
ENDCHAR
STARTCHAR 02D5
ENCODING 725
SWIDTH 480 0
DWIDTH 8 0
BBX 5 4 1 7
BITMAP
F8
20
20
20
ENDCHAR
STARTCHAR 02D6
ENCODING 726
SWIDTH 480 0
DWIDTH 8 0
BBX 5 4 1 7
BITMAP
20
F8
F8
20
ENDCHAR
STARTCHAR 02D7
ENCODING 727
SWIDTH 480 0
DWIDTH 8 0
BBX 5 2 1 8
BITMAP
F8
F8
ENDCHAR
STARTCHAR 02D8
ENCODING 728
SWIDTH 480 0
DWIDTH 8 0
BBX 7 3 0 7
BITMAP
82
82
7C
ENDCHAR
STARTCHAR 02D9
ENCODING 729
SWIDTH 480 0
DWIDTH 8 0
BBX 1 2 3 8
BITMAP
80
80
ENDCHAR
STARTCHAR 02DA
ENCODING 730
SWIDTH 480 0
DWIDTH 8 0
BBX 5 4 1 7
BITMAP
20
D8
D8
20
ENDCHAR
STARTCHAR 02DB
ENCODING 731
SWIDTH 480 0
DWIDTH 8 0
BBX 5 4 1 -4
BITMAP
20
C0
C0
38
ENDCHAR
STARTCHAR 02DC
ENCODING 732
SWIDTH 480 0
DWIDTH 8 0
BBX 7 3 0 7
BITMAP
72
72
9C
ENDCHAR
STARTCHAR 02DD
ENCODING 733
SWIDTH 480 0
DWIDTH 8 0
BBX 6 3 1 7
BITMAP
24
24
D8
ENDCHAR
STARTCHAR 02DE
ENCODING 734
SWIDTH 480 0
DWIDTH 8 0
BBX 4 5 0 1
BITMAP
60
60
E0
10
10
ENDCHAR
STARTCHAR 02DF
ENCODING 735
SWIDTH 480 0
DWIDTH 8 0
BBX 5 4 1 7
BITMAP
D8
20
20
D8
ENDCHAR
STARTCHAR 02E0
ENCODING 736
SWIDTH 480 0
DWIDTH 8 0
BBX 5 7 1 3
BITMAP
D8
D8
D8
20
D8
D8
20
ENDCHAR
STARTCHAR 02E1
ENCODING 737
SWIDTH 480 0
DWIDTH 8 0
BBX 5 5 1 6
BITMAP
E0
20
20
20
F8
ENDCHAR
STARTCHAR 02E2
ENCODING 738
SWIDTH 480 0
DWIDTH 8 0
BBX 5 4 1 6
BITMAP
38
38
20
E0
ENDCHAR
STARTCHAR 02E3
ENCODING 739
SWIDTH 480 0
DWIDTH 8 0
BBX 5 4 1 6
BITMAP
D8
D8
20
D8
ENDCHAR
STARTCHAR 02E4
ENCODING 740
SWIDTH 480 0
DWIDTH 8 0
BBX 5 5 1 6
BITMAP
38
C0
C0
20
20
ENDCHAR
STARTCHAR 02E5
ENCODING 741
SWIDTH 480 0
DWIDTH 8 0
BBX 7 12 0 -1
BITMAP
FE
02
02
02
02
02
02
02
02
02
02
02
ENDCHAR
STARTCHAR 02E6
ENCODING 742
SWIDTH 480 0
DWIDTH 8 0
BBX 7 12 0 -1
BITMAP
02
02
02
FE
02
02
02
02
02
02
02
02
ENDCHAR
STARTCHAR 02E7
ENCODING 743
SWIDTH 480 0
DWIDTH 8 0
BBX 7 12 0 -1
BITMAP
02
02
02
02
02
FE
FE
02
02
02
02
02
ENDCHAR
STARTCHAR 02E8
ENCODING 744
SWIDTH 480 0
DWIDTH 8 0
BBX 7 12 0 -1
BITMAP
02
02
02
02
02
02
02
02
FE
FE
02
02
ENDCHAR
STARTCHAR 02E9
ENCODING 745
SWIDTH 480 0
DWIDTH 8 0
BBX 7 12 0 -1
BITMAP
02
02
02
02
02
02
02
02
02
02
02
FE
ENDCHAR
STARTCHAR 02EA
ENCODING 746
SWIDTH 480 0
DWIDTH 8 0
BBX 7 12 0 -1
BITMAP
80
80
80
80
80
80
80
80
80
80
80
FE
ENDCHAR
STARTCHAR 02EB
ENCODING 747
SWIDTH 480 0
DWIDTH 8 0
BBX 7 12 0 -1
BITMAP
80
80
80
80
80
FE
FE
80
80
80
80
80
ENDCHAR
STARTCHAR 02EC
ENCODING 748
SWIDTH 480 0
DWIDTH 8 0
BBX 5 3 1 -4
BITMAP
D8
D8
20
ENDCHAR
STARTCHAR 02ED
ENCODING 749
SWIDTH 480 0
DWIDTH 8 0
BBX 7 4 0 7
BITMAP
FE
00
00
FE
ENDCHAR
STARTCHAR 02EE
ENCODING 750
SWIDTH 480 0
DWIDTH 8 0
BBX 7 4 0 7
BITMAP
EE
62
62
8C
ENDCHAR
STARTCHAR 02EF
ENCODING 751
SWIDTH 480 0
DWIDTH 8 0
BBX 5 5 1 -6
BITMAP
D8
D8
20
20
20
ENDCHAR
STARTCHAR 02F0
ENCODING 752
SWIDTH 480 0
DWIDTH 8 0
BBX 5 5 1 -6
BITMAP
20
20
20
D8
D8
ENDCHAR
STARTCHAR 02F1
ENCODING 753
SWIDTH 480 0
DWIDTH 8 0
BBX 5 5 1 -6
BITMAP
18
18
E0
18
18
ENDCHAR
STARTCHAR 02F2
ENCODING 754
SWIDTH 480 0
DWIDTH 8 0
BBX 5 5 1 -6
BITMAP
C0
C0
38
C0
C0
ENDCHAR
STARTCHAR 02F3
ENCODING 755
SWIDTH 480 0
DWIDTH 8 0
BBX 5 5 1 -6
BITMAP
20
20
D8
20
20
ENDCHAR
STARTCHAR 02F4
ENCODING 756
SWIDTH 480 0
DWIDTH 8 0
BBX 3 3 1 3
BITMAP
C0
C0
20
ENDCHAR
STARTCHAR 02F5
ENCODING 757
SWIDTH 480 0
DWIDTH 8 0
BBX 6 3 0 3
BITMAP
90
90
6C
ENDCHAR
STARTCHAR 02F6
ENCODING 758
SWIDTH 480 0
DWIDTH 8 0
BBX 6 3 1 3
BITMAP
24
24
D8
ENDCHAR
STARTCHAR 02F7
ENCODING 759
SWIDTH 480 0
DWIDTH 8 0
BBX 7 3 0 -4
BITMAP
72
72
9C
ENDCHAR
STARTCHAR 02F8
ENCODING 760
SWIDTH 480 0
DWIDTH 8 0
BBX 3 7 1 3
BITMAP
E0
E0
E0
00
E0
E0
E0
ENDCHAR
STARTCHAR 02F9
ENCODING 761
SWIDTH 480 0
DWIDTH 8 0
BBX 5 5 1 6
BITMAP
F8
C0
C0
C0
C0
ENDCHAR
STARTCHAR 02FA
ENCODING 762
SWIDTH 480 0
DWIDTH 8 0
BBX 5 5 1 6
BITMAP
F8
18
18
18
18
ENDCHAR
STARTCHAR 02FB
ENCODING 763
SWIDTH 480 0
DWIDTH 8 0
BBX 5 6 1 0
BITMAP
C0
C0
C0
C0
C0
F8
ENDCHAR
STARTCHAR 02FC
ENCODING 764
SWIDTH 480 0
DWIDTH 8 0
BBX 5 6 1 0
BITMAP
18
18
18
18
18
F8
ENDCHAR
STARTCHAR 02FD
ENCODING 765
SWIDTH 480 0
DWIDTH 8 0
BBX 7 3 0 -3
BITMAP
82
FE
FE
ENDCHAR
STARTCHAR 02FE
ENCODING 766
SWIDTH 480 0
DWIDTH 8 0
BBX 7 3 0 -3
BITMAP
80
FE
FE
ENDCHAR
STARTCHAR 02FF
ENCODING 767
SWIDTH 480 0
DWIDTH 8 0
BBX 7 4 0 -4
BITMAP
60
FE
FE
60
ENDCHAR
STARTCHAR 0300
ENCODING 768
SWIDTH 0 0
DWIDTH 0 0
BBX 3 3 -7 8
BITMAP
80
60
60
ENDCHAR
STARTCHAR 0301
ENCODING 769
SWIDTH 0 0
DWIDTH 0 0
BBX 3 3 -6 8
BITMAP
20
C0
C0
ENDCHAR
STARTCHAR 0302
ENCODING 770
SWIDTH 0 0
DWIDTH 0 0
BBX 4 3 -7 8
BITMAP
60
90
90
ENDCHAR
STARTCHAR 0303
ENCODING 771
SWIDTH 0 0
DWIDTH 0 0
BBX 7 3 -8 8
BITMAP
76
B8
B8
ENDCHAR
STARTCHAR 0304
ENCODING 772
SWIDTH 0 0
DWIDTH 0 0
BBX 4 2 -7 8
BITMAP
F0
F0
ENDCHAR
STARTCHAR 0305
ENCODING 773
SWIDTH 0 0
DWIDTH 0 0
BBX 7 2 -8 11
BITMAP
FE
FE
ENDCHAR
STARTCHAR 0306
ENCODING 774
SWIDTH 0 0
DWIDTH 0 0
BBX 7 3 -8 8
BITMAP
86
78
78
ENDCHAR
STARTCHAR 0307
ENCODING 775
SWIDTH 0 0
DWIDTH 0 0
BBX 2 2 -6 8
BITMAP
C0
C0
ENDCHAR
STARTCHAR 0308
ENCODING 776
SWIDTH 0 0
DWIDTH 0 0
BBX 4 2 -7 8
BITMAP
90
90
ENDCHAR
STARTCHAR 0309
ENCODING 777
SWIDTH 0 0
DWIDTH 0 0
BBX 3 5 -6 8
BITMAP
C0
C0
20
C0
C0
ENDCHAR
STARTCHAR 030A
ENCODING 778
SWIDTH 0 0
DWIDTH 0 0
BBX 4 5 -7 8
BITMAP
60
60
90
60
60
ENDCHAR
STARTCHAR 030B
ENCODING 779
SWIDTH 0 0
DWIDTH 0 0
BBX 6 3 -7 8
BITMAP
6C
90
90
ENDCHAR
STARTCHAR 030C
ENCODING 780
SWIDTH 0 0
DWIDTH 0 0
BBX 4 3 -7 8
BITMAP
90
60
60
ENDCHAR
STARTCHAR 030D
ENCODING 781
SWIDTH 0 0
DWIDTH 0 0
BBX 2 3 -6 8
BITMAP
C0
C0
C0
ENDCHAR
STARTCHAR 030E
ENCODING 782
SWIDTH 0 0
DWIDTH 0 0
BBX 4 3 -7 8
BITMAP
90
90
90
ENDCHAR
STARTCHAR 030F
ENCODING 783
SWIDTH 0 0
DWIDTH 0 0
BBX 5 3 -8 8
BITMAP
B0
48
48
ENDCHAR
STARTCHAR 0310
ENCODING 784
SWIDTH 0 0
DWIDTH 0 0
BBX 7 5 -8 8
BITMAP
30
30
86
78
78
ENDCHAR
STARTCHAR 0311
ENCODING 785
SWIDTH 0 0
DWIDTH 0 0
BBX 7 3 -8 8
BITMAP
78
86
86
ENDCHAR
STARTCHAR 0312
ENCODING 786
SWIDTH 0 0
DWIDTH 0 0
BBX 3 5 -6 8
BITMAP
20
20
C0
E0
E0
ENDCHAR
STARTCHAR 0313
ENCODING 787
SWIDTH 0 0
DWIDTH 0 0
BBX 3 5 -6 8
BITMAP
E0
E0
20
C0
C0
ENDCHAR
STARTCHAR 0314
ENCODING 788
SWIDTH 0 0
DWIDTH 0 0
BBX 3 5 -7 8
BITMAP
E0
E0
80
60
60
ENDCHAR
STARTCHAR 0315
ENCODING 789
SWIDTH 0 0
DWIDTH 0 0
BBX 3 5 -3 8
BITMAP
E0
E0
20
C0
C0
ENDCHAR
STARTCHAR 0316
ENCODING 790
SWIDTH 0 0
DWIDTH 0 0
BBX 3 3 -6 -4
BITMAP
C0
C0
20
ENDCHAR
STARTCHAR 0317
ENCODING 791
SWIDTH 0 0
DWIDTH 0 0
BBX 3 3 -7 -4
BITMAP
60
60
80
ENDCHAR
STARTCHAR 0318
ENCODING 792
SWIDTH 0 0
DWIDTH 0 0
BBX 4 5 -7 -6
BITMAP
10
10
F0
10
10
ENDCHAR
STARTCHAR 0319
ENCODING 793
SWIDTH 0 0
DWIDTH 0 0
BBX 4 5 -7 -6
BITMAP
80
80
F0
80
80
ENDCHAR
STARTCHAR 031A
ENCODING 794
SWIDTH 0 0
DWIDTH 0 0
BBX 5 5 -6 8
BITMAP
F8
F8
18
18
18
ENDCHAR
STARTCHAR 031B
ENCODING 795
SWIDTH 0 0
DWIDTH 0 0
BBX 3 5 -4 8
BITMAP
60
60
60
80
80
ENDCHAR
STARTCHAR 031C
ENCODING 796
SWIDTH 0 0
DWIDTH 0 0
BBX 3 5 -7 -6
BITMAP
60
60
80
60
60
ENDCHAR
STARTCHAR 031D
ENCODING 797
SWIDTH 0 0
DWIDTH 0 0
BBX 4 5 -7 -6
BITMAP
60
60
60
F0
F0
ENDCHAR
STARTCHAR 031E
ENCODING 798
SWIDTH 0 0
DWIDTH 0 0
BBX 4 5 -7 -6
BITMAP
F0
F0
60
60
60
ENDCHAR
STARTCHAR 031F
ENCODING 799
SWIDTH 0 0
DWIDTH 0 0
BBX 4 5 -7 -6
BITMAP
60
60
F0
60
60
ENDCHAR
STARTCHAR 0320
ENCODING 800
SWIDTH 0 0
DWIDTH 0 0
BBX 4 2 -7 -3
BITMAP
F0
F0
ENDCHAR
STARTCHAR 0321
ENCODING 801
SWIDTH 0 0
DWIDTH 0 0
BBX 5 7 -6 -3
BITMAP
18
18
18
18
18
E0
E0
ENDCHAR
STARTCHAR 0322
ENCODING 802
SWIDTH 0 0
DWIDTH 0 0
BBX 3 7 -3 -3
BITMAP
C0
C0
C0
C0
C0
20
20
ENDCHAR
STARTCHAR 0323
ENCODING 803
SWIDTH 0 0
DWIDTH 0 0
BBX 2 2 -6 -3
BITMAP
C0
C0
ENDCHAR
STARTCHAR 0324
ENCODING 804
SWIDTH 0 0
DWIDTH 0 0
BBX 4 2 -7 -3
BITMAP
90
90
ENDCHAR
STARTCHAR 0325
ENCODING 805
SWIDTH 0 0
DWIDTH 0 0
BBX 4 5 -7 -6
BITMAP
60
60
90
60
60
ENDCHAR
STARTCHAR 0326
ENCODING 806
SWIDTH 0 0
DWIDTH 0 0
BBX 3 5 -7 -6
BITMAP
E0
E0
60
80
80
ENDCHAR
STARTCHAR 0327
ENCODING 807
SWIDTH 0 0
DWIDTH 0 0
BBX 4 4 -7 -4
BITMAP
60
10
10
E0
ENDCHAR
STARTCHAR 0328
ENCODING 808
SWIDTH 0 0
DWIDTH 0 0
BBX 4 4 -7 -4
BITMAP
60
80
80
70
ENDCHAR
STARTCHAR 0329
ENCODING 809
SWIDTH 0 0
DWIDTH 0 0
BBX 2 3 -6 -4
BITMAP
C0
C0
C0
ENDCHAR
STARTCHAR 032A
ENCODING 810
SWIDTH 0 0
DWIDTH 0 0
BBX 4 3 -7 -4
BITMAP
F0
F0
90
ENDCHAR
STARTCHAR 032B
ENCODING 811
SWIDTH 0 0
DWIDTH 0 0
BBX 7 3 -8 -4
BITMAP
B6
B6
FE
ENDCHAR
STARTCHAR 032C
ENCODING 812
SWIDTH 0 0
DWIDTH 0 0
BBX 4 3 -7 -4
BITMAP
90
90
60
ENDCHAR
STARTCHAR 032D
ENCODING 813
SWIDTH 0 0
DWIDTH 0 0
BBX 4 3 -7 -4
BITMAP
60
60
90
ENDCHAR
STARTCHAR 032E
ENCODING 814
SWIDTH 0 0
DWIDTH 0 0
BBX 7 3 -8 -4
BITMAP
86
86
78
ENDCHAR
STARTCHAR 032F
ENCODING 815
SWIDTH 0 0
DWIDTH 0 0
BBX 7 3 -8 -4
BITMAP
78
78
86
ENDCHAR
STARTCHAR 0330
ENCODING 816
SWIDTH 0 0
DWIDTH 0 0
BBX 7 3 -8 -4
BITMAP
76
76
B8
ENDCHAR
STARTCHAR 0331
ENCODING 817
SWIDTH 0 0
DWIDTH 0 0
BBX 4 2 -7 -3
BITMAP
F0
F0
ENDCHAR
STARTCHAR 0332
ENCODING 818
SWIDTH 0 0
DWIDTH 0 0
BBX 7 2 -8 -3
BITMAP
FE
FE
ENDCHAR
STARTCHAR 0333
ENCODING 819
SWIDTH 0 0
DWIDTH 0 0
BBX 4 5 -7 -6
BITMAP
F0
F0
00
F0
F0
ENDCHAR
STARTCHAR 0334
ENCODING 820
SWIDTH 0 0
DWIDTH 0 0
BBX 7 3 -8 3
BITMAP
76
76
B8
ENDCHAR
STARTCHAR 0335
ENCODING 821
SWIDTH 0 0
DWIDTH 0 0
BBX 7 1 -8 3
BITMAP
FE
ENDCHAR
STARTCHAR 0336
ENCODING 822
SWIDTH 0 0
DWIDTH 0 0
BBX 10 1 -10 3
BITMAP
FFC0
ENDCHAR
STARTCHAR 0337
ENCODING 823
SWIDTH 0 0
DWIDTH 0 0
BBX 7 7 -8 0
BITMAP
06
08
08
30
40
40
80
ENDCHAR
STARTCHAR 0338
ENCODING 824
SWIDTH 0 0
DWIDTH 0 0
BBX 7 13 -8 -3
BITMAP
06
06
06
08
08
08
30
40
40
40
80
80
80
ENDCHAR
STARTCHAR 0339
ENCODING 825
SWIDTH 0 0
DWIDTH 0 0
BBX 3 5 -6 -6
BITMAP
C0
C0
20
C0
C0
ENDCHAR
STARTCHAR 033A
ENCODING 826
SWIDTH 0 0
DWIDTH 0 0
BBX 4 3 -7 -4
BITMAP
90
90
F0
ENDCHAR
STARTCHAR 033B
ENCODING 827
SWIDTH 0 0
DWIDTH 0 0
BBX 4 5 -7 -6
BITMAP
F0
F0
90
F0
F0
ENDCHAR
STARTCHAR 033C
ENCODING 828
SWIDTH 0 0
DWIDTH 0 0
BBX 7 3 -8 -4
BITMAP
CE
CE
30
ENDCHAR
STARTCHAR 033D
ENCODING 829
SWIDTH 0 0
DWIDTH 0 0
BBX 4 5 -7 8
BITMAP
90
90
60
90
90
ENDCHAR
STARTCHAR 033E
ENCODING 830
SWIDTH 0 0
DWIDTH 0 0
BBX 3 6 -6 8
BITMAP
20
E0
C0
20
C0
C0
ENDCHAR
STARTCHAR 033F
ENCODING 831
SWIDTH 0 0
DWIDTH 0 0
BBX 7 4 -8 11
BITMAP
FE
00
FE
FE
ENDCHAR
STARTCHAR 0340
ENCODING 832
SWIDTH 0 0
DWIDTH 0 0
BBX 3 3 -7 8
BITMAP
80
60
60
ENDCHAR
STARTCHAR 0341
ENCODING 833
SWIDTH 0 0
DWIDTH 0 0
BBX 3 3 -6 8
BITMAP
20
C0
C0
ENDCHAR
STARTCHAR 0342
ENCODING 834
SWIDTH 0 0
DWIDTH 0 0
BBX 7 3 -8 8
BITMAP
76
B8
B8
ENDCHAR
STARTCHAR 0343
ENCODING 835
SWIDTH 0 0
DWIDTH 0 0
BBX 3 5 -6 8
BITMAP
E0
E0
20
C0
C0
ENDCHAR
STARTCHAR 0344
ENCODING 836
SWIDTH 0 0
DWIDTH 0 0
BBX 7 5 -8 8
BITMAP
08
08
30
86
86
ENDCHAR
STARTCHAR 0345
ENCODING 837
SWIDTH 0 0
DWIDTH 0 0
BBX 4 5 -7 -6
BITMAP
E0
E0
60
10
10
ENDCHAR
STARTCHAR 0346
ENCODING 838
SWIDTH 0 0
DWIDTH 0 0
BBX 4 3 -7 8
BITMAP
F0
90
90
ENDCHAR
STARTCHAR 0347
ENCODING 839
SWIDTH 0 0
DWIDTH 0 0
BBX 7 5 -8 -6
BITMAP
FE
FE
00
FE
FE
ENDCHAR
STARTCHAR 0348
ENCODING 840
SWIDTH 0 0
DWIDTH 0 0
BBX 4 3 -7 -4
BITMAP
90
90
90
ENDCHAR
STARTCHAR 0349
ENCODING 841
SWIDTH 0 0
DWIDTH 0 0
BBX 4 5 -7 -6
BITMAP
F0
F0
10
10
10
ENDCHAR
STARTCHAR 034A
ENCODING 842
SWIDTH 0 0
DWIDTH 0 0
BBX 7 6 -8 7
BITMAP
08
08
76
B8
B8
40
ENDCHAR
STARTCHAR 034B
ENCODING 843
SWIDTH 0 0
DWIDTH 0 0
BBX 7 6 -8 7
BITMAP
30
30
76
B8
B8
30
ENDCHAR
STARTCHAR 034C
ENCODING 844
SWIDTH 0 0
DWIDTH 0 0
BBX 7 6 -8 8
BITMAP
76
B6
B8
76
B8
B8
ENDCHAR
STARTCHAR 034D
ENCODING 845
SWIDTH 0 0
DWIDTH 0 0
BBX 7 5 -8 -6
BITMAP
48
48
FE
48
48
ENDCHAR
STARTCHAR 034E
ENCODING 846
SWIDTH 0 0
DWIDTH 0 0
BBX 4 6 -7 -7
BITMAP
60
60
F0
60
60
60
ENDCHAR
STARTCHAR 034F
ENCODING 847
SWIDTH 0 0
DWIDTH 0 0
BBX 0 0 0 0
BITMAP
ENDCHAR
STARTCHAR 0350
ENCODING 848
SWIDTH 0 0
DWIDTH 0 0
BBX 4 5 -7 8
BITMAP
80
80
70
80
80
ENDCHAR
STARTCHAR 0351
ENCODING 849
SWIDTH 0 0
DWIDTH 0 0
BBX 3 5 -7 8
BITMAP
60
60
80
60
60
ENDCHAR
STARTCHAR 0352
ENCODING 850
SWIDTH 0 0
DWIDTH 0 0
BBX 7 5 -8 8
BITMAP
78
78
86
30
30
ENDCHAR
STARTCHAR 0353
ENCODING 851
SWIDTH 0 0
DWIDTH 0 0
BBX 4 5 -7 -6
BITMAP
90
90
60
90
90
ENDCHAR
STARTCHAR 0354
ENCODING 852
SWIDTH 0 0
DWIDTH 0 0
BBX 4 5 -7 -6
BITMAP
10
10
E0
10
10
ENDCHAR
STARTCHAR 0355
ENCODING 853
SWIDTH 0 0
DWIDTH 0 0
BBX 4 5 -7 -6
BITMAP
80
80
70
80
80
ENDCHAR
STARTCHAR 0356
ENCODING 854
SWIDTH 0 0
DWIDTH 0 0
BBX 8 4 -8 -4
BITMAP
86
76
76
89
ENDCHAR
STARTCHAR 0357
ENCODING 855
SWIDTH 0 0
DWIDTH 0 0
BBX 3 5 -6 8
BITMAP
C0
C0
20
C0
C0
ENDCHAR
STARTCHAR 0358
ENCODING 856
SWIDTH 0 0
DWIDTH 0 0
BBX 2 2 -3 8
BITMAP
C0
C0
ENDCHAR
STARTCHAR 0359
ENCODING 857
SWIDTH 0 0
DWIDTH 0 0
BBX 7 7 -8 -7
BITMAP
30
B6
B6
78
B6
B6
30
ENDCHAR
STARTCHAR 035A
ENCODING 858
SWIDTH 0 0
DWIDTH 0 0
BBX 7 5 -8 -6
BITMAP
48
48
B6
48
48
ENDCHAR
STARTCHAR 035B
ENCODING 859
SWIDTH 0 0
DWIDTH 0 0
BBX 4 4 -7 7
BITMAP
80
F0
F0
10
ENDCHAR
STARTCHAR 035C
ENCODING 860
SWIDTH 0 0
DWIDTH 0 0
BBX 15 5 -8 -6
BITMAP
8002
8002
701C
0FE0
0FE0
ENDCHAR
STARTCHAR 035D
ENCODING 861
SWIDTH 0 0
DWIDTH 0 0
BBX 15 5 -8 8
BITMAP
8002
8002
701C
0FE0
0FE0
ENDCHAR
STARTCHAR 035E
ENCODING 862
SWIDTH 0 0
DWIDTH 0 0
BBX 15 2 -8 8
BITMAP
FFFE
FFFE
ENDCHAR
STARTCHAR 035F
ENCODING 863
SWIDTH 0 0
DWIDTH 0 0
BBX 15 2 -8 -3
BITMAP
FFFE
FFFE
ENDCHAR
STARTCHAR 0360
ENCODING 864
SWIDTH 0 0
DWIDTH 0 0
BBX 15 3 -8 8
BITMAP
7F02
81FC
81FC
ENDCHAR
STARTCHAR 0361
ENCODING 865
SWIDTH 0 0
DWIDTH 0 0
BBX 15 5 -8 8
BITMAP
0FE0
0FE0
701C
8002
8002
ENDCHAR
STARTCHAR 0362
ENCODING 866
SWIDTH 0 0
DWIDTH 0 0
BBX 15 5 -8 -6
BITMAP
000C
000C
FFFE
000C
000C
ENDCHAR
STARTCHAR 0363
ENCODING 867
SWIDTH 0 0
DWIDTH 0 0
BBX 4 5 -7 8
BITMAP
E0
E0
70
70
70
ENDCHAR
STARTCHAR 0364
ENCODING 868
SWIDTH 0 0
DWIDTH 0 0
BBX 4 5 -7 8
BITMAP
60
60
E0
70
70
ENDCHAR
STARTCHAR 0365
ENCODING 869
SWIDTH 0 0
DWIDTH 0 0
BBX 4 7 -7 8
BITMAP
60
00
E0
E0
60
F0
F0
ENDCHAR
STARTCHAR 0366
ENCODING 870
SWIDTH 0 0
DWIDTH 0 0
BBX 4 5 -7 8
BITMAP
60
60
90
60
60
ENDCHAR
STARTCHAR 0367
ENCODING 871
SWIDTH 0 0
DWIDTH 0 0
BBX 4 5 -7 8
BITMAP
90
90
90
70
70
ENDCHAR
STARTCHAR 0368
ENCODING 872
SWIDTH 0 0
DWIDTH 0 0
BBX 4 5 -7 8
BITMAP
70
70
80
70
70
ENDCHAR
STARTCHAR 0369
ENCODING 873
SWIDTH 0 0
DWIDTH 0 0
BBX 4 6 -7 8
BITMAP
10
70
70
90
70
70
ENDCHAR
STARTCHAR 036A
ENCODING 874
SWIDTH 0 0
DWIDTH 0 0
BBX 4 6 -7 8
BITMAP
80
80
E0
90
90
90
ENDCHAR
STARTCHAR 036B
ENCODING 875
SWIDTH 0 0
DWIDTH 0 0
BBX 7 5 -8 8
BITMAP
C8
C8
B6
B6
B6
ENDCHAR
STARTCHAR 036C
ENCODING 876
SWIDTH 0 0
DWIDTH 0 0
BBX 4 5 -7 8
BITMAP
90
90
E0
80
80
ENDCHAR
STARTCHAR 036D
ENCODING 877
SWIDTH 0 0
DWIDTH 0 0
BBX 4 6 -7 8
BITMAP
60
E0
F0
60
10
10
ENDCHAR
STARTCHAR 036E
ENCODING 878
SWIDTH 0 0
DWIDTH 0 0
BBX 4 5 -7 8
BITMAP
90
90
F0
60
60
ENDCHAR
STARTCHAR 036F
ENCODING 879
SWIDTH 0 0
DWIDTH 0 0
BBX 4 5 -7 8
BITMAP
90
90
60
90
90
ENDCHAR
STARTCHAR 0370
ENCODING 880
SWIDTH 480 0
DWIDTH 8 0
BBX 7 10 0 0
BITMAP
80
80
80
80
FE
FE
80
80
80
80
ENDCHAR
STARTCHAR 0371
ENCODING 881
SWIDTH 480 0
DWIDTH 8 0
BBX 7 7 0 0
BITMAP
80
60
60
7E
60
60
60
ENDCHAR
STARTCHAR 0372
ENCODING 882
SWIDTH 480 0
DWIDTH 8 0
BBX 7 10 0 0
BITMAP
FE
FE
92
92
10
10
10
10
10
10
ENDCHAR
STARTCHAR 0373
ENCODING 883
SWIDTH 480 0
DWIDTH 8 0
BBX 7 10 0 0
BITMAP
7E
7E
92
10
10
10
10
10
10
10
ENDCHAR
STARTCHAR 0374
ENCODING 884
SWIDTH 480 0
DWIDTH 8 0
BBX 3 6 3 7
BITMAP
60
60
60
80
80
80
ENDCHAR
STARTCHAR 0375
ENCODING 885
SWIDTH 480 0
DWIDTH 8 0
BBX 3 6 1 -6
BITMAP
20
20
20
C0
C0
C0
ENDCHAR
STARTCHAR 0376
ENCODING 886
SWIDTH 480 0
DWIDTH 8 0
BBX 7 10 0 0
BITMAP
82
82
82
8E
92
92
E2
82
82
82
ENDCHAR
STARTCHAR 0377
ENCODING 887
SWIDTH 480 0
DWIDTH 8 0
BBX 7 7 0 0
BITMAP
82
8E
8E
92
E2
E2
82
ENDCHAR
STARTCHAR 037A
ENCODING 890
SWIDTH 480 0
DWIDTH 8 0
BBX 6 4 1 -3
BITMAP
E0
24
18
18
ENDCHAR
STARTCHAR 037B
ENCODING 891
SWIDTH 480 0
DWIDTH 8 0
BBX 7 7 0 0
BITMAP
7C
82
82
02
02
02
FC
ENDCHAR
STARTCHAR 037C
ENCODING 892
SWIDTH 480 0
DWIDTH 8 0
BBX 7 7 0 0
BITMAP
7C
82
82
90
80
80
7E
ENDCHAR
STARTCHAR 037D
ENCODING 893
SWIDTH 480 0
DWIDTH 8 0
BBX 7 7 0 0
BITMAP
7C
82
82
12
02
02
FC
ENDCHAR
STARTCHAR 037E
ENCODING 894
SWIDTH 480 0
DWIDTH 8 0
BBX 3 10 1 -3
BITMAP
E0
E0
E0
00
E0
E0
E0
20
C0
C0
ENDCHAR
STARTCHAR 037F
ENCODING 895
SWIDTH 480 0
DWIDTH 8 0
BBX 7 10 0 0
BITMAP
1E
1E
0C
0C
0C
0C
0C
8C
8C
70
ENDCHAR
STARTCHAR 0384
ENCODING 900
SWIDTH 480 0
DWIDTH 8 0
BBX 3 3 3 7
BITMAP
60
60
80
ENDCHAR
STARTCHAR 0385
ENCODING 901
SWIDTH 480 0
DWIDTH 8 0
BBX 7 4 0 7
BITMAP
0C
10
10
82
ENDCHAR
STARTCHAR 0386
ENCODING 902
SWIDTH 480 0
DWIDTH 8 0
BBX 7 14 0 0
BITMAP
0C
1C
10
00
7C
7C
82
82
FE
FE
82
82
82
82
ENDCHAR
STARTCHAR 0387
ENCODING 903
SWIDTH 480 0
DWIDTH 8 0
BBX 3 3 1 4
BITMAP
E0
E0
E0
ENDCHAR
STARTCHAR 0388
ENCODING 904
SWIDTH 480 0
DWIDTH 8 0
BBX 7 14 0 0
BITMAP
0C
1C
10
00
FE
FE
80
80
F0
F0
80
80
80
FE
ENDCHAR
STARTCHAR 0389
ENCODING 905
SWIDTH 480 0
DWIDTH 8 0
BBX 7 14 0 0
BITMAP
0C
1C
10
00
82
82
82
82
FE
FE
82
82
82
82
ENDCHAR
STARTCHAR 038A
ENCODING 906
SWIDTH 480 0
DWIDTH 8 0
BBX 5 14 1 0
BITMAP
18
38
20
00
F8
F8
20
20
20
20
20
20
20
F8
ENDCHAR
STARTCHAR 038C
ENCODING 908
SWIDTH 480 0
DWIDTH 8 0
BBX 7 14 0 0
BITMAP
0C
1C
10
00
7C
7C
82
82
82
82
82
82
82
7C
ENDCHAR
STARTCHAR 038E
ENCODING 910
SWIDTH 480 0
DWIDTH 8 0
BBX 7 14 0 0
BITMAP
0C
1C
10
00
82
82
82
6C
10
10
10
10
10
10
ENDCHAR
STARTCHAR 038F
ENCODING 911
SWIDTH 480 0
DWIDTH 8 0
BBX 7 14 0 0
BITMAP
0C
1C
10
00
7C
7C
82
82
82
82
82
6C
6C
EE
ENDCHAR
STARTCHAR 0390
ENCODING 912
SWIDTH 480 0
DWIDTH 8 0
BBX 7 13 1 0
BITMAP
04
04
18
C2
C2
00
E0
20
20
20
24
24
18
ENDCHAR
STARTCHAR 0391
ENCODING 913
SWIDTH 480 0
DWIDTH 8 0
BBX 7 10 0 0
BITMAP
7C
7C
82
82
FE
FE
82
82
82
82
ENDCHAR
STARTCHAR 0392
ENCODING 914
SWIDTH 480 0
DWIDTH 8 0
BBX 7 10 0 0
BITMAP
FC
FC
82
82
FC
FC
82
82
82
FC
ENDCHAR
STARTCHAR 0393
ENCODING 915
SWIDTH 480 0
DWIDTH 8 0
BBX 7 10 0 0
BITMAP
FE
FE
80
80
80
80
80
80
80
80
ENDCHAR
STARTCHAR 0394
ENCODING 916
SWIDTH 480 0
DWIDTH 8 0
BBX 7 10 0 0
BITMAP
10
10
10
6C
6C
6C
6C
82
82
FE
ENDCHAR
STARTCHAR 0395
ENCODING 917
SWIDTH 480 0
DWIDTH 8 0
BBX 7 10 0 0
BITMAP
FE
FE
80
80
F0
F0
80
80
80
FE
ENDCHAR
STARTCHAR 0396
ENCODING 918
SWIDTH 480 0
DWIDTH 8 0
BBX 7 10 0 0
BITMAP
FE
FE
02
0C
10
10
60
80
80
FE
ENDCHAR
STARTCHAR 0397
ENCODING 919
SWIDTH 480 0
DWIDTH 8 0
BBX 7 10 0 0
BITMAP
82
82
82
82
FE
FE
82
82
82
82
ENDCHAR
STARTCHAR 0398
ENCODING 920
SWIDTH 480 0
DWIDTH 8 0
BBX 7 10 0 0
BITMAP
7C
7C
82
82
92
92
82
82
82
7C
ENDCHAR
STARTCHAR 0399
ENCODING 921
SWIDTH 480 0
DWIDTH 8 0
BBX 5 10 1 0
BITMAP
F8
F8
20
20
20
20
20
20
20
F8
ENDCHAR
STARTCHAR 039A
ENCODING 922
SWIDTH 480 0
DWIDTH 8 0
BBX 7 10 0 0
BITMAP
82
82
8C
90
E0
E0
90
8C
8C
82
ENDCHAR
STARTCHAR 039B
ENCODING 923
SWIDTH 480 0
DWIDTH 8 0
BBX 7 10 0 0
BITMAP
10
10
10
6C
6C
6C
6C
82
82
82
ENDCHAR
STARTCHAR 039C
ENCODING 924
SWIDTH 480 0
DWIDTH 8 0
BBX 7 10 0 0
BITMAP
82
82
EE
92
92
92
82
82
82
82
ENDCHAR
STARTCHAR 039D
ENCODING 925
SWIDTH 480 0
DWIDTH 8 0
BBX 7 10 0 0
BITMAP
82
82
82
E2
92
92
8E
82
82
82
ENDCHAR
STARTCHAR 039E
ENCODING 926
SWIDTH 480 0
DWIDTH 8 0
BBX 7 10 0 0
BITMAP
FE
FE
00
00
7C
7C
00
00
00
FE
ENDCHAR
STARTCHAR 039F
ENCODING 927
SWIDTH 480 0
DWIDTH 8 0
BBX 7 10 0 0
BITMAP
7C
7C
82
82
82
82
82
82
82
7C
ENDCHAR
STARTCHAR 03A0
ENCODING 928
SWIDTH 480 0
DWIDTH 8 0
BBX 7 10 0 0
BITMAP
FE
FE
82
82
82
82
82
82
82
82
ENDCHAR
STARTCHAR 03A1
ENCODING 929
SWIDTH 480 0
DWIDTH 8 0
BBX 7 10 0 0
BITMAP
FC
FC
82
82
FC
FC
80
80
80
80
ENDCHAR
STARTCHAR 03A2
ENCODING 930
SWIDTH 480 0
DWIDTH 8 0
BBX 7 10 0 0
BITMAP
FE
FE
0C
10
60
60
10
0C
0C
FE
ENDCHAR
STARTCHAR 03A3
ENCODING 931
SWIDTH 480 0
DWIDTH 8 0
BBX 7 10 0 0
BITMAP
FE
FE
60
10
0C
0C
10
60
60
FE
ENDCHAR
STARTCHAR 03A4
ENCODING 932
SWIDTH 480 0
DWIDTH 8 0
BBX 7 10 0 0
BITMAP
FE
FE
10
10
10
10
10
10
10
10
ENDCHAR
STARTCHAR 03A5
ENCODING 933
SWIDTH 480 0
DWIDTH 8 0
BBX 7 10 0 0
BITMAP
82
82
82
6C
10
10
10
10
10
10
ENDCHAR
STARTCHAR 03A6
ENCODING 934
SWIDTH 480 0
DWIDTH 8 0
BBX 7 10 0 0
BITMAP
10
10
7C
92
92
92
92
7C
7C
10
ENDCHAR
STARTCHAR 03A7
ENCODING 935
SWIDTH 480 0
DWIDTH 8 0
BBX 7 10 0 0
BITMAP
82
82
82
6C
10
10
6C
82
82
82
ENDCHAR
STARTCHAR 03A8
ENCODING 936
SWIDTH 480 0
DWIDTH 8 0
BBX 7 10 0 0
BITMAP
92
92
92
92
7C
7C
10
10
10
10
ENDCHAR
STARTCHAR 03A9
ENCODING 937
SWIDTH 480 0
DWIDTH 8 0
BBX 7 10 0 0
BITMAP
7C
7C
82
82
82
82
82
6C
6C
EE
ENDCHAR
STARTCHAR 03AA
ENCODING 938
SWIDTH 480 0
DWIDTH 8 0
BBX 5 13 1 0
BITMAP
D8
D8
00
F8
F8
20
20
20
20
20
20
20
F8
ENDCHAR
STARTCHAR 03AB
ENCODING 939
SWIDTH 480 0
DWIDTH 8 0
BBX 7 13 0 0
BITMAP
6C
6C
00
82
82
82
6C
10
10
10
10
10
10
ENDCHAR
STARTCHAR 03AC
ENCODING 940
SWIDTH 480 0
DWIDTH 8 0
BBX 7 11 0 0
BITMAP
0C
10
10
00
72
8C
8C
8C
8C
8C
72
ENDCHAR
STARTCHAR 03AD
ENCODING 941
SWIDTH 480 0
DWIDTH 8 0
BBX 7 11 0 0
BITMAP
0C
10
10
00
7C
82
82
70
82
82
7C
ENDCHAR
STARTCHAR 03AE
ENCODING 942
SWIDTH 480 0
DWIDTH 8 0
BBX 7 14 0 -3
BITMAP
0C
10
10
00
9C
E2
E2
82
82
82
82
02
02
02
ENDCHAR
STARTCHAR 03AF
ENCODING 943
SWIDTH 480 0
DWIDTH 8 0
BBX 6 11 1 0
BITMAP
18
20
20
00
E0
20
20
20
24
24
18
ENDCHAR
STARTCHAR 03B0
ENCODING 944
SWIDTH 480 0
DWIDTH 8 0
BBX 7 13 0 0
BITMAP
0C
0C
10
82
82
00
9C
82
82
82
8C
8C
70
ENDCHAR
STARTCHAR 03B1
ENCODING 945
SWIDTH 480 0
DWIDTH 8 0
BBX 7 7 0 0
BITMAP
72
8C
8C
8C
8C
8C
72
ENDCHAR
STARTCHAR 03B2
ENCODING 946
SWIDTH 480 0
DWIDTH 8 0
BBX 7 13 0 -3
BITMAP
7C
7C
82
82
9C
9C
82
E2
E2
9C
80
80
80
ENDCHAR
STARTCHAR 03B3
ENCODING 947
SWIDTH 480 0
DWIDTH 8 0
BBX 7 10 0 -3
BITMAP
E2
12
12
1C
0C
0C
10
10
10
10
ENDCHAR
STARTCHAR 03B4
ENCODING 948
SWIDTH 480 0
DWIDTH 8 0
BBX 7 10 0 0
BITMAP
0E
0E
10
10
6C
6C
82
82
82
7C
ENDCHAR
STARTCHAR 03B5
ENCODING 949
SWIDTH 480 0
DWIDTH 8 0
BBX 7 7 0 0
BITMAP
7C
82
82
70
82
82
7C
ENDCHAR
STARTCHAR 03B6
ENCODING 950
SWIDTH 480 0
DWIDTH 8 0
BBX 7 13 0 -3
BITMAP
9E
9E
60
80
80
80
80
60
60
1C
02
1C
1C
ENDCHAR
STARTCHAR 03B7
ENCODING 951
SWIDTH 480 0
DWIDTH 8 0
BBX 7 10 0 -3
BITMAP
9C
E2
E2
82
82
82
82
02
02
02
ENDCHAR
STARTCHAR 03B8
ENCODING 952
SWIDTH 480 0
DWIDTH 8 0
BBX 7 10 0 0
BITMAP
7C
7C
82
82
FE
FE
82
82
82
7C
ENDCHAR
STARTCHAR 03B9
ENCODING 953
SWIDTH 480 0
DWIDTH 8 0
BBX 6 7 1 0
BITMAP
E0
20
20
20
24
24
18
ENDCHAR
STARTCHAR 03BA
ENCODING 954
SWIDTH 480 0
DWIDTH 8 0
BBX 7 7 0 0
BITMAP
8C
90
90
F0
8C
8C
82
ENDCHAR
STARTCHAR 03BB
ENCODING 955
SWIDTH 480 0
DWIDTH 8 0
BBX 7 10 0 0
BITMAP
80
80
60
10
6C
6C
6C
82
82
82
ENDCHAR
STARTCHAR 03BC
ENCODING 956
SWIDTH 480 0
DWIDTH 8 0
BBX 7 10 0 -3
BITMAP
82
82
82
82
EE
EE
92
80
80
80
ENDCHAR
STARTCHAR 03BD
ENCODING 957
SWIDTH 480 0
DWIDTH 8 0
BBX 7 7 0 0
BITMAP
8E
82
82
6C
6C
6C
10
ENDCHAR
STARTCHAR 03BE
ENCODING 958
SWIDTH 480 0
DWIDTH 8 0
BBX 7 13 0 -3
BITMAP
9E
9E
60
80
70
70
80
60
60
1C
02
1C
1C
ENDCHAR
STARTCHAR 03BF
ENCODING 959
SWIDTH 480 0
DWIDTH 8 0
BBX 7 7 0 0
BITMAP
7C
82
82
82
82
82
7C
ENDCHAR
STARTCHAR 03C0
ENCODING 960
SWIDTH 480 0
DWIDTH 8 0
BBX 7 7 0 0
BITMAP
FE
6C
6C
6C
6C
6C
6C
ENDCHAR
STARTCHAR 03C1
ENCODING 961
SWIDTH 480 0
DWIDTH 8 0
BBX 7 10 0 -3
BITMAP
7C
82
82
82
82
82
FC
80
80
80
ENDCHAR
STARTCHAR 03C2
ENCODING 962
SWIDTH 480 0
DWIDTH 8 0
BBX 7 10 0 -3
BITMAP
7E
80
80
80
80
80
7C
02
1C
1C
ENDCHAR
STARTCHAR 03C3
ENCODING 963
SWIDTH 480 0
DWIDTH 8 0
BBX 7 7 0 0
BITMAP
7E
8C
8C
8C
8C
8C
70
ENDCHAR
STARTCHAR 03C4
ENCODING 964
SWIDTH 480 0
DWIDTH 8 0
BBX 7 7 0 0
BITMAP
7E
90
90
10
10
10
0C
ENDCHAR
STARTCHAR 03C5
ENCODING 965
SWIDTH 480 0
DWIDTH 8 0
BBX 7 7 0 0
BITMAP
9C
82
82
82
8C
8C
70
ENDCHAR
STARTCHAR 03C6
ENCODING 966
SWIDTH 480 0
DWIDTH 8 0
BBX 7 10 0 -3
BITMAP
6C
92
92
92
92
92
7C
10
10
10
ENDCHAR
STARTCHAR 03C7
ENCODING 967
SWIDTH 480 0
DWIDTH 8 0
BBX 7 10 0 -3
BITMAP
E2
92
92
1C
7C
7C
70
92
8E
8E
ENDCHAR
STARTCHAR 03C8
ENCODING 968
SWIDTH 480 0
DWIDTH 8 0
BBX 7 13 0 -3
BITMAP
10
10
10
92
92
92
92
92
92
7C
10
10
10
ENDCHAR
STARTCHAR 03C9
ENCODING 969
SWIDTH 480 0
DWIDTH 8 0
BBX 7 7 0 0
BITMAP
6C
82
82
92
92
92
6C
ENDCHAR
STARTCHAR 03CA
ENCODING 970
SWIDTH 480 0
DWIDTH 8 0
BBX 6 10 1 0
BITMAP
D8
D8
00
E0
20
20
20
24
24
18
ENDCHAR
STARTCHAR 03CB
ENCODING 971
SWIDTH 480 0
DWIDTH 8 0
BBX 7 10 0 0
BITMAP
6C
6C
00
9C
82
82
82
8C
8C
70
ENDCHAR
STARTCHAR 03CC
ENCODING 972
SWIDTH 480 0
DWIDTH 8 0
BBX 7 11 0 0
BITMAP
0C
10
10
00
7C
82
82
82
82
82
7C
ENDCHAR
STARTCHAR 03CD
ENCODING 973
SWIDTH 480 0
DWIDTH 8 0
BBX 7 11 0 0
BITMAP
0C
10
10
00
9C
82
82
82
8C
8C
70
ENDCHAR
STARTCHAR 03CE
ENCODING 974
SWIDTH 480 0
DWIDTH 8 0
BBX 7 11 0 0
BITMAP
0C
10
10
00
6C
82
82
92
92
92
6C
ENDCHAR
STARTCHAR 03CF
ENCODING 975
SWIDTH 480 0
DWIDTH 8 0
BBX 7 13 0 -3
BITMAP
82
82
8C
90
E0
E0
90
8C
8C
82
1C
0C
0C
ENDCHAR
STARTCHAR 03D0
ENCODING 976
SWIDTH 480 0
DWIDTH 8 0
BBX 7 10 0 0
BITMAP
7C
7C
82
82
9C
9C
82
82
82
7C
ENDCHAR
STARTCHAR 03D1
ENCODING 977
SWIDTH 480 0
DWIDTH 8 0
BBX 7 10 0 0
BITMAP
10
10
6C
6C
1E
1E
8C
8C
8C
70
ENDCHAR
STARTCHAR 03D2
ENCODING 978
SWIDTH 480 0
DWIDTH 8 0
BBX 7 10 0 0
BITMAP
EE
EE
6C
10
10
10
10
10
10
10
ENDCHAR
STARTCHAR 03D3
ENCODING 979
SWIDTH 480 0
DWIDTH 8 0
BBX 7 14 0 0
BITMAP
0C
1C
10
00
EE
EE
6C
10
10
10
10
10
10
10
ENDCHAR
STARTCHAR 03D4
ENCODING 980
SWIDTH 480 0
DWIDTH 8 0
BBX 7 13 0 0
BITMAP
6C
6C
00
EE
EE
6C
10
10
10
10
10
10
10
ENDCHAR
STARTCHAR 03D5
ENCODING 981
SWIDTH 480 0
DWIDTH 8 0
BBX 7 13 0 -3
BITMAP
10
10
10
7C
92
92
92
92
92
7C
10
10
10
ENDCHAR
STARTCHAR 03D6
ENCODING 982
SWIDTH 480 0
DWIDTH 8 0
BBX 7 7 0 0
BITMAP
FE
82
82
92
92
92
6C
ENDCHAR
STARTCHAR 03D7
ENCODING 983
SWIDTH 480 0
DWIDTH 8 0
BBX 7 10 0 -3
BITMAP
82
6C
6C
7C
8C
8C
82
0C
70
70
ENDCHAR
STARTCHAR 03D8
ENCODING 984
SWIDTH 480 0
DWIDTH 8 0
BBX 7 13 0 -3
BITMAP
7C
7C
82
82
82
82
82
82
82
7C
10
10
10
ENDCHAR
STARTCHAR 03D9
ENCODING 985
SWIDTH 480 0
DWIDTH 8 0
BBX 7 10 0 -3
BITMAP
7C
82
82
82
82
82
7C
10
10
10
ENDCHAR
STARTCHAR 03DA
ENCODING 986
SWIDTH 480 0
DWIDTH 8 0
BBX 7 13 0 -3
BITMAP
7C
7C
82
80
80
80
80
80
80
70
10
10
10
ENDCHAR
STARTCHAR 03DB
ENCODING 987
SWIDTH 480 0
DWIDTH 8 0
BBX 7 10 0 -3
BITMAP
7C
82
82
80
80
80
7C
02
1C
1C
ENDCHAR
STARTCHAR 03DC
ENCODING 988
SWIDTH 480 0
DWIDTH 8 0
BBX 7 10 0 0
BITMAP
7E
7E
80
80
F0
F0
80
80
80
80
ENDCHAR
STARTCHAR 03DD
ENCODING 989
SWIDTH 480 0
DWIDTH 8 0
BBX 7 10 0 -3
BITMAP
7E
80
80
F0
80
80
80
80
80
80
ENDCHAR
STARTCHAR 03DE
ENCODING 990
SWIDTH 480 0
DWIDTH 8 0
BBX 7 10 0 0
BITMAP
10
10
60
80
FE
FE
02
0C
0C
10
ENDCHAR
STARTCHAR 03DF
ENCODING 991
SWIDTH 480 0
DWIDTH 8 0
BBX 7 9 0 -1
BITMAP
80
62
6E
6E
92
EC
EC
8C
02
ENDCHAR
STARTCHAR 03E0
ENCODING 992
SWIDTH 480 0
DWIDTH 8 0
BBX 7 10 0 0
BITMAP
7C
7C
8E
12
6E
6E
12
02
02
7C
ENDCHAR
STARTCHAR 03E1
ENCODING 993
SWIDTH 480 0
DWIDTH 8 0
BBX 7 10 0 0
BITMAP
E0
E0
10
6C
92
92
62
02
02
0C
ENDCHAR
STARTCHAR 03E2
ENCODING 994
SWIDTH 480 0
DWIDTH 8 0
BBX 7 13 0 -3
BITMAP
6C
6C
82
82
92
92
92
92
92
6E
0C
10
10
ENDCHAR
STARTCHAR 03E3
ENCODING 995
SWIDTH 480 0
DWIDTH 8 0
BBX 7 10 0 -3
BITMAP
6C
82
82
92
92
92
6E
0C
10
10
ENDCHAR
STARTCHAR 03E4
ENCODING 996
SWIDTH 480 0
DWIDTH 8 0
BBX 7 13 0 -3
BITMAP
62
62
82
82
82
82
82
8E
8E
72
02
02
02
ENDCHAR
STARTCHAR 03E5
ENCODING 997
SWIDTH 480 0
DWIDTH 8 0
BBX 7 10 0 -3
BITMAP
62
82
82
82
8E
8E
72
02
02
02
ENDCHAR
STARTCHAR 03E6
ENCODING 998
SWIDTH 480 0
DWIDTH 8 0
BBX 7 13 0 -3
BITMAP
80
80
80
9C
E2
E2
82
82
82
8C
10
60
60
ENDCHAR
STARTCHAR 03E7
ENCODING 999
SWIDTH 480 0
DWIDTH 8 0
BBX 7 7 0 0
BITMAP
72
8C
8C
72
E2
E2
9C
ENDCHAR
STARTCHAR 03E8
ENCODING 1000
SWIDTH 480 0
DWIDTH 8 0
BBX 7 11 0 -1
BITMAP
7C
7C
82
02
0C
0C
10
60
60
82
7C
ENDCHAR
STARTCHAR 03E9
ENCODING 1001
SWIDTH 480 0
DWIDTH 8 0
BBX 7 8 0 -1
BITMAP
7C
82
82
0C
70
70
82
7C
ENDCHAR
STARTCHAR 03EA
ENCODING 1002
SWIDTH 480 0
DWIDTH 8 0
BBX 7 10 0 0
BITMAP
82
82
82
6C
10
10
6C
82
82
FE
ENDCHAR
STARTCHAR 03EB
ENCODING 1003
SWIDTH 480 0
DWIDTH 8 0
BBX 7 7 0 0
BITMAP
82
7C
7C
6C
82
82
FE
ENDCHAR
STARTCHAR 03EC
ENCODING 1004
SWIDTH 480 0
DWIDTH 8 0
BBX 7 11 0 0
BITMAP
1E
60
60
90
8C
82
82
82
82
82
FC
ENDCHAR
STARTCHAR 03ED
ENCODING 1005
SWIDTH 480 0
DWIDTH 8 0
BBX 7 10 0 0
BITMAP
1C
1C
60
90
8C
8C
82
82
82
FC
ENDCHAR
STARTCHAR 03EE
ENCODING 1006
SWIDTH 480 0
DWIDTH 8 0
BBX 7 10 0 0
BITMAP
10
10
FE
10
10
10
10
10
10
10
ENDCHAR
STARTCHAR 03EF
ENCODING 1007
SWIDTH 480 0
DWIDTH 8 0
BBX 7 13 0 -3
BITMAP
10
10
10
FE
10
10
10
10
10
10
10
10
10
ENDCHAR
STARTCHAR 03F0
ENCODING 1008
SWIDTH 480 0
DWIDTH 8 0
BBX 7 7 0 0
BITMAP
82
6C
6C
7C
8C
8C
82
ENDCHAR
STARTCHAR 03F1
ENCODING 1009
SWIDTH 480 0
DWIDTH 8 0
BBX 7 10 0 -3
BITMAP
7C
82
82
82
82
82
FC
80
7C
7C
ENDCHAR
STARTCHAR 03F2
ENCODING 1010
SWIDTH 480 0
DWIDTH 8 0
BBX 7 7 0 0
BITMAP
7C
82
82
80
80
80
7E
ENDCHAR
STARTCHAR 03F3
ENCODING 1011
SWIDTH 480 0
DWIDTH 8 0
BBX 4 13 0 -3
BITMAP
10
10
00
10
10
10
10
10
10
10
10
E0
E0
ENDCHAR
STARTCHAR 03F4
ENCODING 1012
SWIDTH 480 0
DWIDTH 8 0
BBX 7 10 0 0
BITMAP
7C
7C
82
82
FE
FE
82
82
82
7C
ENDCHAR
STARTCHAR 03F5
ENCODING 1013
SWIDTH 480 0
DWIDTH 8 0
BBX 7 7 0 0
BITMAP
7E
80
80
F0
80
80
7E
ENDCHAR
STARTCHAR 03F6
ENCODING 1014
SWIDTH 480 0
DWIDTH 8 0
BBX 7 7 0 0
BITMAP
FC
02
02
1E
02
02
FC
ENDCHAR
STARTCHAR 03F7
ENCODING 1015
SWIDTH 480 0
DWIDTH 8 0
BBX 7 10 0 0
BITMAP
80
80
FC
82
82
82
82
FC
FC
80
ENDCHAR
STARTCHAR 03F8
ENCODING 1016
SWIDTH 480 0
DWIDTH 8 0
BBX 7 13 0 -3
BITMAP
80
80
80
9C
E2
E2
82
82
82
FC
80
80
80
ENDCHAR
STARTCHAR 03F9
ENCODING 1017
SWIDTH 480 0
DWIDTH 8 0
BBX 7 10 0 0
BITMAP
7C
7C
82
80
80
80
80
82
82
7C
ENDCHAR
STARTCHAR 03FA
ENCODING 1018
SWIDTH 480 0
DWIDTH 8 0
BBX 7 10 0 0
BITMAP
82
82
EE
92
92
92
82
82
82
82
ENDCHAR
STARTCHAR 03FB
ENCODING 1019
SWIDTH 480 0
DWIDTH 8 0
BBX 7 10 0 -3
BITMAP
82
EE
EE
92
92
92
82
02
02
02
ENDCHAR
STARTCHAR 03FC
ENCODING 1020
SWIDTH 480 0
DWIDTH 8 0
BBX 8 10 -1 -3
BITMAP
3E
41
41
41
41
41
7E
F0
40
40
ENDCHAR
STARTCHAR 03FD
ENCODING 1021
SWIDTH 480 0
DWIDTH 8 0
BBX 7 10 0 0
BITMAP
7C
7C
82
02
02
02
02
82
82
7C
ENDCHAR
STARTCHAR 03FE
ENCODING 1022
SWIDTH 480 0
DWIDTH 8 0
BBX 7 10 0 0
BITMAP
7C
7C
82
80
90
90
80
82
82
7C
ENDCHAR
STARTCHAR 03FF
ENCODING 1023
SWIDTH 480 0
DWIDTH 8 0
BBX 7 10 0 0
BITMAP
7C
7C
82
02
12
12
02
82
82
7C
ENDCHAR
STARTCHAR 0400
ENCODING 1024
SWIDTH 480 0
DWIDTH 8 0
BBX 7 14 0 0
BITMAP
60
70
10
00
FE
FE
80
80
F0
F0
80
80
80
FE
ENDCHAR
STARTCHAR 0401
ENCODING 1025
SWIDTH 480 0
DWIDTH 8 0
BBX 7 13 0 0
BITMAP
6C
6C
00
FE
FE
80
80
F0
F0
80
80
80
FE
ENDCHAR
STARTCHAR 0402
ENCODING 1026
SWIDTH 480 0
DWIDTH 8 0
BBX 7 13 0 -3
BITMAP
F0
F0
60
7C
62
62
62
62
62
62
02
1C
1C
ENDCHAR
STARTCHAR 0403
ENCODING 1027
SWIDTH 480 0
DWIDTH 8 0
BBX 7 14 0 0
BITMAP
0C
1C
10
00
FE
FE
80
80
80
80
80
80
80
80
ENDCHAR
STARTCHAR 0404
ENCODING 1028
SWIDTH 480 0
DWIDTH 8 0
BBX 7 10 0 0
BITMAP
7C
7C
82
80
F0
F0
80
82
82
7C
ENDCHAR
STARTCHAR 0405
ENCODING 1029
SWIDTH 480 0
DWIDTH 8 0
BBX 7 10 0 0
BITMAP
7C
7C
82
80
7C
7C
02
82
82
7C
ENDCHAR
STARTCHAR 0406
ENCODING 1030
SWIDTH 480 0
DWIDTH 8 0
BBX 5 10 1 0
BITMAP
F8
F8
20
20
20
20
20
20
20
F8
ENDCHAR
STARTCHAR 0407
ENCODING 1031
SWIDTH 480 0
DWIDTH 8 0
BBX 5 13 1 0
BITMAP
D8
D8
00
F8
F8
20
20
20
20
20
20
20
F8
ENDCHAR
STARTCHAR 0408
ENCODING 1032
SWIDTH 480 0
DWIDTH 8 0
BBX 7 10 0 0
BITMAP
1E
1E
0C
0C
0C
0C
0C
8C
8C
70
ENDCHAR
STARTCHAR 0409
ENCODING 1033
SWIDTH 480 0
DWIDTH 8 0
BBX 7 10 0 0
BITMAP
F0
F0
90
90
9C
9C
92
92
92
9C
ENDCHAR
STARTCHAR 040A
ENCODING 1034
SWIDTH 480 0
DWIDTH 8 0
BBX 7 10 0 0
BITMAP
90
90
90
90
FC
FC
92
92
92
9C
ENDCHAR
STARTCHAR 040B
ENCODING 1035
SWIDTH 480 0
DWIDTH 8 0
BBX 7 10 0 0
BITMAP
F0
F0
60
7C
62
62
62
62
62
62
ENDCHAR
STARTCHAR 040C
ENCODING 1036
SWIDTH 480 0
DWIDTH 8 0
BBX 7 14 0 0
BITMAP
0C
1C
10
00
82
82
8C
90
E0
E0
90
8C
8C
82
ENDCHAR
STARTCHAR 040D
ENCODING 1037
SWIDTH 480 0
DWIDTH 8 0
BBX 7 14 0 0
BITMAP
60
70
10
00
82
82
82
8E
92
92
E2
82
82
82
ENDCHAR
STARTCHAR 040E
ENCODING 1038
SWIDTH 480 0
DWIDTH 8 0
BBX 7 14 0 0
BITMAP
82
FE
7C
00
82
82
82
6C
6C
6C
10
90
90
60
ENDCHAR
STARTCHAR 040F
ENCODING 1039
SWIDTH 480 0
DWIDTH 8 0
BBX 7 13 0 -3
BITMAP
82
82
82
82
82
82
82
82
82
FE
10
10
10
ENDCHAR
STARTCHAR 0410
ENCODING 1040
SWIDTH 480 0
DWIDTH 8 0
BBX 7 10 0 0
BITMAP
7C
7C
82
82
FE
FE
82
82
82
82
ENDCHAR
STARTCHAR 0411
ENCODING 1041
SWIDTH 480 0
DWIDTH 8 0
BBX 7 10 0 0
BITMAP
FE
FE
80
80
FC
FC
82
82
82
FC
ENDCHAR
STARTCHAR 0412
ENCODING 1042
SWIDTH 480 0
DWIDTH 8 0
BBX 7 10 0 0
BITMAP
FC
FC
82
82
FC
FC
82
82
82
FC
ENDCHAR
STARTCHAR 0413
ENCODING 1043
SWIDTH 480 0
DWIDTH 8 0
BBX 7 10 0 0
BITMAP
FE
FE
80
80
80
80
80
80
80
80
ENDCHAR
STARTCHAR 0414
ENCODING 1044
SWIDTH 480 0
DWIDTH 8 0
BBX 7 13 0 -3
BITMAP
1E
1E
12
12
12
12
62
62
62
FE
82
82
82
ENDCHAR
STARTCHAR 0415
ENCODING 1045
SWIDTH 480 0
DWIDTH 8 0
BBX 7 10 0 0
BITMAP
FE
FE
80
80
F0
F0
80
80
80
FE
ENDCHAR
STARTCHAR 0416
ENCODING 1046
SWIDTH 480 0
DWIDTH 8 0
BBX 7 10 0 0
BITMAP
92
92
92
7C
10
10
7C
92
92
92
ENDCHAR
STARTCHAR 0417
ENCODING 1047
SWIDTH 480 0
DWIDTH 8 0
BBX 7 10 0 0
BITMAP
7C
7C
82
02
1C
1C
02
82
82
7C
ENDCHAR
STARTCHAR 0418
ENCODING 1048
SWIDTH 480 0
DWIDTH 8 0
BBX 7 10 0 0
BITMAP
82
82
82
8E
92
92
E2
82
82
82
ENDCHAR
STARTCHAR 0419
ENCODING 1049
SWIDTH 480 0
DWIDTH 8 0
BBX 7 14 0 0
BITMAP
82
FE
7C
00
82
82
82
8E
92
92
E2
82
82
82
ENDCHAR
STARTCHAR 041A
ENCODING 1050
SWIDTH 480 0
DWIDTH 8 0
BBX 7 10 0 0
BITMAP
82
82
8C
90
E0
E0
90
8C
8C
82
ENDCHAR
STARTCHAR 041B
ENCODING 1051
SWIDTH 480 0
DWIDTH 8 0
BBX 7 10 0 0
BITMAP
7E
7E
62
62
62
62
62
62
62
82
ENDCHAR
STARTCHAR 041C
ENCODING 1052
SWIDTH 480 0
DWIDTH 8 0
BBX 7 10 0 0
BITMAP
82
82
EE
92
92
92
82
82
82
82
ENDCHAR
STARTCHAR 041D
ENCODING 1053
SWIDTH 480 0
DWIDTH 8 0
BBX 7 10 0 0
BITMAP
82
82
82
82
FE
FE
82
82
82
82
ENDCHAR
STARTCHAR 041E
ENCODING 1054
SWIDTH 480 0
DWIDTH 8 0
BBX 7 10 0 0
BITMAP
7C
7C
82
82
82
82
82
82
82
7C
ENDCHAR
STARTCHAR 041F
ENCODING 1055
SWIDTH 480 0
DWIDTH 8 0
BBX 7 10 0 0
BITMAP
FE
FE
82
82
82
82
82
82
82
82
ENDCHAR
STARTCHAR 0420
ENCODING 1056
SWIDTH 480 0
DWIDTH 8 0
BBX 7 10 0 0
BITMAP
FC
FC
82
82
FC
FC
80
80
80
80
ENDCHAR
STARTCHAR 0421
ENCODING 1057
SWIDTH 480 0
DWIDTH 8 0
BBX 7 10 0 0
BITMAP
7C
7C
82
80
80
80
80
82
82
7C
ENDCHAR
STARTCHAR 0422
ENCODING 1058
SWIDTH 480 0
DWIDTH 8 0
BBX 7 10 0 0
BITMAP
FE
FE
10
10
10
10
10
10
10
10
ENDCHAR
STARTCHAR 0423
ENCODING 1059
SWIDTH 480 0
DWIDTH 8 0
BBX 7 10 0 0
BITMAP
82
82
82
6C
6C
6C
10
90
90
60
ENDCHAR
STARTCHAR 0424
ENCODING 1060
SWIDTH 480 0
DWIDTH 8 0
BBX 7 10 0 0
BITMAP
10
10
7C
92
92
92
92
7C
7C
10
ENDCHAR
STARTCHAR 0425
ENCODING 1061
SWIDTH 480 0
DWIDTH 8 0
BBX 7 10 0 0
BITMAP
82
82
82
6C
10
10
6C
82
82
82
ENDCHAR
STARTCHAR 0426
ENCODING 1062
SWIDTH 480 0
DWIDTH 8 0
BBX 7 13 0 -3
BITMAP
82
82
82
82
82
82
82
82
82
FE
02
02
02
ENDCHAR
STARTCHAR 0427
ENCODING 1063
SWIDTH 480 0
DWIDTH 8 0
BBX 7 10 0 0
BITMAP
82
82
82
82
7E
7E
02
02
02
02
ENDCHAR
STARTCHAR 0428
ENCODING 1064
SWIDTH 480 0
DWIDTH 8 0
BBX 7 10 0 0
BITMAP
92
92
92
92
92
92
92
92
92
FE
ENDCHAR
STARTCHAR 0429
ENCODING 1065
SWIDTH 480 0
DWIDTH 8 0
BBX 7 13 0 -3
BITMAP
92
92
92
92
92
92
92
92
92
FE
02
02
02
ENDCHAR
STARTCHAR 042A
ENCODING 1066
SWIDTH 480 0
DWIDTH 8 0
BBX 7 10 0 0
BITMAP
E0
E0
60
60
7C
7C
62
62
62
7C
ENDCHAR
STARTCHAR 042B
ENCODING 1067
SWIDTH 480 0
DWIDTH 8 0
BBX 7 10 0 0
BITMAP
82
82
82
82
E2
E2
92
92
92
E2
ENDCHAR
STARTCHAR 042C
ENCODING 1068
SWIDTH 480 0
DWIDTH 8 0
BBX 7 10 0 0
BITMAP
80
80
80
80
FC
FC
82
82
82
FC
ENDCHAR
STARTCHAR 042D
ENCODING 1069
SWIDTH 480 0
DWIDTH 8 0
BBX 7 10 0 0
BITMAP
7C
7C
82
02
1E
1E
02
82
82
7C
ENDCHAR
STARTCHAR 042E
ENCODING 1070
SWIDTH 480 0
DWIDTH 8 0
BBX 7 10 0 0
BITMAP
8C
8C
92
92
F2
F2
92
92
92
8C
ENDCHAR
STARTCHAR 042F
ENCODING 1071
SWIDTH 480 0
DWIDTH 8 0
BBX 7 10 0 0
BITMAP
7E
7E
82
82
7E
7E
12
62
62
82
ENDCHAR
STARTCHAR 0430
ENCODING 1072
SWIDTH 480 0
DWIDTH 8 0
BBX 7 7 0 0
BITMAP
7C
02
02
7E
82
82
7E
ENDCHAR
STARTCHAR 0431
ENCODING 1073
SWIDTH 480 0
DWIDTH 8 0
BBX 7 10 0 0
BITMAP
7C
7C
80
9C
E2
E2
82
82
82
7C
ENDCHAR
STARTCHAR 0432
ENCODING 1074
SWIDTH 480 0
DWIDTH 8 0
BBX 7 7 0 0
BITMAP
FC
82
82
FC
82
82
FC
ENDCHAR
STARTCHAR 0433
ENCODING 1075
SWIDTH 480 0
DWIDTH 8 0
BBX 7 7 0 0
BITMAP
FE
80
80
80
80
80
80
ENDCHAR
STARTCHAR 0434
ENCODING 1076
SWIDTH 480 0
DWIDTH 8 0
BBX 7 10 0 -3
BITMAP
1E
12
12
62
62
62
FE
82
82
82
ENDCHAR
STARTCHAR 0435
ENCODING 1077
SWIDTH 480 0
DWIDTH 8 0
BBX 7 7 0 0
BITMAP
7C
82
82
FE
80
80
7C
ENDCHAR
STARTCHAR 0436
ENCODING 1078
SWIDTH 480 0
DWIDTH 8 0
BBX 7 7 0 0
BITMAP
92
7C
7C
10
7C
7C
92
ENDCHAR
STARTCHAR 0437
ENCODING 1079
SWIDTH 480 0
DWIDTH 8 0
BBX 7 7 0 0
BITMAP
7C
82
82
1C
82
82
7C
ENDCHAR
STARTCHAR 0438
ENCODING 1080
SWIDTH 480 0
DWIDTH 8 0
BBX 7 7 0 0
BITMAP
82
8E
8E
92
E2
E2
82
ENDCHAR
STARTCHAR 0439
ENCODING 1081
SWIDTH 480 0
DWIDTH 8 0
BBX 7 11 0 0
BITMAP
82
7C
7C
00
82
8E
8E
92
E2
E2
82
ENDCHAR
STARTCHAR 043A
ENCODING 1082
SWIDTH 480 0
DWIDTH 8 0
BBX 7 7 0 0
BITMAP
8C
90
90
F0
8C
8C
82
ENDCHAR
STARTCHAR 043B
ENCODING 1083
SWIDTH 480 0
DWIDTH 8 0
BBX 7 7 0 0
BITMAP
7E
62
62
62
62
62
82
ENDCHAR
STARTCHAR 043C
ENCODING 1084
SWIDTH 480 0
DWIDTH 8 0
BBX 7 7 0 0
BITMAP
82
EE
EE
92
92
92
82
ENDCHAR
STARTCHAR 043D
ENCODING 1085
SWIDTH 480 0
DWIDTH 8 0
BBX 7 7 0 0
BITMAP
82
82
82
FE
82
82
82
ENDCHAR
STARTCHAR 043E
ENCODING 1086
SWIDTH 480 0
DWIDTH 8 0
BBX 7 7 0 0
BITMAP
7C
82
82
82
82
82
7C
ENDCHAR
STARTCHAR 043F
ENCODING 1087
SWIDTH 480 0
DWIDTH 8 0
BBX 7 7 0 0
BITMAP
FE
6C
6C
6C
6C
6C
6C
ENDCHAR
STARTCHAR 0440
ENCODING 1088
SWIDTH 480 0
DWIDTH 8 0
BBX 7 10 0 -3
BITMAP
9C
E2
E2
82
82
82
FC
80
80
80
ENDCHAR
STARTCHAR 0441
ENCODING 1089
SWIDTH 480 0
DWIDTH 8 0
BBX 7 7 0 0
BITMAP
7C
82
82
80
80
80
7E
ENDCHAR
STARTCHAR 0442
ENCODING 1090
SWIDTH 480 0
DWIDTH 8 0
BBX 7 7 0 0
BITMAP
FE
10
10
10
10
10
10
ENDCHAR
STARTCHAR 0443
ENCODING 1091
SWIDTH 480 0
DWIDTH 8 0
BBX 7 10 0 -3
BITMAP
82
82
82
82
8E
8E
72
02
7C
7C
ENDCHAR
STARTCHAR 0444
ENCODING 1092
SWIDTH 480 0
DWIDTH 8 0
BBX 7 13 0 -3
BITMAP
10
10
10
7C
92
92
92
92
92
7C
10
10
10
ENDCHAR
STARTCHAR 0445
ENCODING 1093
SWIDTH 480 0
DWIDTH 8 0
BBX 7 7 0 0
BITMAP
82
6C
6C
10
6C
6C
82
ENDCHAR
STARTCHAR 0446
ENCODING 1094
SWIDTH 480 0
DWIDTH 8 0
BBX 7 10 0 -3
BITMAP
82
82
82
82
82
82
FE
02
02
02
ENDCHAR
STARTCHAR 0447
ENCODING 1095
SWIDTH 480 0
DWIDTH 8 0
BBX 7 7 0 0
BITMAP
82
82
82
7E
02
02
02
ENDCHAR
STARTCHAR 0448
ENCODING 1096
SWIDTH 480 0
DWIDTH 8 0
BBX 7 7 0 0
BITMAP
92
92
92
92
92
92
FE
ENDCHAR
STARTCHAR 0449
ENCODING 1097
SWIDTH 480 0
DWIDTH 8 0
BBX 7 10 0 -3
BITMAP
92
92
92
92
92
92
FE
02
02
02
ENDCHAR
STARTCHAR 044A
ENCODING 1098
SWIDTH 480 0
DWIDTH 8 0
BBX 7 7 0 0
BITMAP
E0
60
60
7C
62
62
7C
ENDCHAR
STARTCHAR 044B
ENCODING 1099
SWIDTH 480 0
DWIDTH 8 0
BBX 7 7 0 0
BITMAP
82
82
82
E2
92
92
E2
ENDCHAR
STARTCHAR 044C
ENCODING 1100
SWIDTH 480 0
DWIDTH 8 0
BBX 7 7 0 0
BITMAP
80
80
80
FC
82
82
FC
ENDCHAR
STARTCHAR 044D
ENCODING 1101
SWIDTH 480 0
DWIDTH 8 0
BBX 7 7 0 0
BITMAP
7C
82
82
1E
82
82
7C
ENDCHAR
STARTCHAR 044E
ENCODING 1102
SWIDTH 480 0
DWIDTH 8 0
BBX 7 7 0 0
BITMAP
8C
92
92
F2
92
92
8C
ENDCHAR
STARTCHAR 044F
ENCODING 1103
SWIDTH 480 0
DWIDTH 8 0
BBX 7 7 0 0
BITMAP
7E
82
82
7E
12
12
62
ENDCHAR
STARTCHAR 0450
ENCODING 1104
SWIDTH 480 0
DWIDTH 8 0
BBX 7 11 0 0
BITMAP
60
10
10
00
7C
82
82
FE
80
80
7C
ENDCHAR
STARTCHAR 0451
ENCODING 1105
SWIDTH 480 0
DWIDTH 8 0
BBX 7 10 0 0
BITMAP
6C
6C
00
7C
82
82
FE
80
80
7C
ENDCHAR
STARTCHAR 0452
ENCODING 1106
SWIDTH 480 0
DWIDTH 8 0
BBX 8 13 -1 -3
BITMAP
40
40
F0
4E
71
71
41
41
41
41
01
0E
0E
ENDCHAR
STARTCHAR 0453
ENCODING 1107
SWIDTH 480 0
DWIDTH 8 0
BBX 7 11 0 0
BITMAP
0C
10
10
00
FE
80
80
80
80
80
80
ENDCHAR
STARTCHAR 0454
ENCODING 1108
SWIDTH 480 0
DWIDTH 8 0
BBX 7 7 0 0
BITMAP
7C
82
82
F0
82
82
7C
ENDCHAR
STARTCHAR 0455
ENCODING 1109
SWIDTH 480 0
DWIDTH 8 0
BBX 7 7 0 0
BITMAP
7E
80
80
7C
02
02
FC
ENDCHAR
STARTCHAR 0456
ENCODING 1110
SWIDTH 480 0
DWIDTH 8 0
BBX 5 10 1 0
BITMAP
20
20
00
E0
20
20
20
20
20
F8
ENDCHAR
STARTCHAR 0457
ENCODING 1111
SWIDTH 480 0
DWIDTH 8 0
BBX 5 10 1 0
BITMAP
D8
D8
00
E0
20
20
20
20
20
F8
ENDCHAR
STARTCHAR 0458
ENCODING 1112
SWIDTH 480 0
DWIDTH 8 0
BBX 4 13 0 -3
BITMAP
10
10
00
10
10
10
10
10
10
10
10
E0
E0
ENDCHAR
STARTCHAR 0459
ENCODING 1113
SWIDTH 480 0
DWIDTH 8 0
BBX 7 7 0 0
BITMAP
F0
90
90
9C
92
92
9C
ENDCHAR
STARTCHAR 045A
ENCODING 1114
SWIDTH 480 0
DWIDTH 8 0
BBX 7 7 0 0
BITMAP
90
90
90
FC
92
92
9C
ENDCHAR
STARTCHAR 045B
ENCODING 1115
SWIDTH 480 0
DWIDTH 8 0
BBX 8 10 -1 0
BITMAP
40
40
F0
4E
71
71
41
41
41
41
ENDCHAR
STARTCHAR 045C
ENCODING 1116
SWIDTH 480 0
DWIDTH 8 0
BBX 7 11 0 0
BITMAP
0C
10
10
00
8C
90
90
F0
8C
8C
82
ENDCHAR
STARTCHAR 045D
ENCODING 1117
SWIDTH 480 0
DWIDTH 8 0
BBX 7 11 0 0
BITMAP
60
10
10
00
82
8E
8E
92
E2
E2
82
ENDCHAR
STARTCHAR 045E
ENCODING 1118
SWIDTH 480 0
DWIDTH 8 0
BBX 7 14 0 -3
BITMAP
82
7C
7C
00
82
82
82
82
8E
8E
72
02
7C
7C
ENDCHAR
STARTCHAR 045F
ENCODING 1119
SWIDTH 480 0
DWIDTH 8 0
BBX 7 10 0 -3
BITMAP
82
82
82
82
82
82
FE
10
10
10
ENDCHAR
STARTCHAR 0460
ENCODING 1120
SWIDTH 480 0
DWIDTH 8 0
BBX 7 10 0 0
BITMAP
7C
7C
92
82
92
92
92
92
92
6C
ENDCHAR
STARTCHAR 0461
ENCODING 1121
SWIDTH 480 0
DWIDTH 8 0
BBX 7 7 0 0
BITMAP
92
92
92
92
92
92
6C
ENDCHAR
STARTCHAR 0462
ENCODING 1122
SWIDTH 480 0
DWIDTH 8 0
BBX 7 10 0 0
BITMAP
60
60
F0
60
7C
7C
62
62
62
7C
ENDCHAR
STARTCHAR 0463
ENCODING 1123
SWIDTH 480 0
DWIDTH 8 0
BBX 7 10 0 0
BITMAP
60
60
60
F0
60
60
7C
62
62
7C
ENDCHAR
STARTCHAR 0464
ENCODING 1124
SWIDTH 480 0
DWIDTH 8 0
BBX 7 10 0 0
BITMAP
8E
8E
90
90
FC
FC
90
90
90
8E
ENDCHAR
STARTCHAR 0465
ENCODING 1125
SWIDTH 480 0
DWIDTH 8 0
BBX 7 7 0 0
BITMAP
8E
90
90
FC
90
90
8E
ENDCHAR
STARTCHAR 0466
ENCODING 1126
SWIDTH 480 0
DWIDTH 8 0
BBX 7 10 0 0
BITMAP
10
10
10
6C
6C
6C
6C
92
92
92
ENDCHAR
STARTCHAR 0467
ENCODING 1127
SWIDTH 480 0
DWIDTH 8 0
BBX 7 7 0 0
BITMAP
10
6C
6C
6C
92
92
92
ENDCHAR
STARTCHAR 0468
ENCODING 1128
SWIDTH 480 0
DWIDTH 8 0
BBX 7 10 0 0
BITMAP
8C
8C
8C
8C
FE
FE
9E
92
92
92
ENDCHAR
STARTCHAR 0469
ENCODING 1129
SWIDTH 480 0
DWIDTH 8 0
BBX 7 7 0 0
BITMAP
8C
8C
8C
FE
92
92
92
ENDCHAR
STARTCHAR 046A
ENCODING 1130
SWIDTH 480 0
DWIDTH 8 0
BBX 7 10 0 0
BITMAP
FE
FE
82
6C
10
10
7C
92
92
92
ENDCHAR
STARTCHAR 046B
ENCODING 1131
SWIDTH 480 0
DWIDTH 8 0
BBX 7 7 0 0
BITMAP
FE
6C
6C
10
7C
7C
92
ENDCHAR
STARTCHAR 046C
ENCODING 1132
SWIDTH 480 0
DWIDTH 8 0
BBX 7 10 0 0
BITMAP
9E
9E
92
8C
FE
FE
9E
92
92
92
ENDCHAR
STARTCHAR 046D
ENCODING 1133
SWIDTH 480 0
DWIDTH 8 0
BBX 7 7 0 0
BITMAP
9E
8C
8C
FE
92
92
92
ENDCHAR
STARTCHAR 046E
ENCODING 1134
SWIDTH 480 0
DWIDTH 8 0
BBX 7 17 0 -3
BITMAP
6C
7C
10
00
7C
7C
82
02
1C
1C
02
02
02
7C
80
7E
7E
ENDCHAR
STARTCHAR 046F
ENCODING 1135
SWIDTH 480 0
DWIDTH 8 0
BBX 7 14 0 -3
BITMAP
6C
10
10
00
7C
82
82
1C
02
02
7C
80
7E
7E
ENDCHAR
STARTCHAR 0470
ENCODING 1136
SWIDTH 480 0
DWIDTH 8 0
BBX 7 10 0 0
BITMAP
92
92
92
72
7C
7C
10
10
10
10
ENDCHAR
STARTCHAR 0471
ENCODING 1137
SWIDTH 480 0
DWIDTH 8 0
BBX 7 13 0 -3
BITMAP
10
10
10
92
92
92
72
72
72
1C
10
10
10
ENDCHAR
STARTCHAR 0472
ENCODING 1138
SWIDTH 480 0
DWIDTH 8 0
BBX 7 10 0 0
BITMAP
7C
7C
82
F2
9E
9E
82
82
82
7C
ENDCHAR
STARTCHAR 0473
ENCODING 1139
SWIDTH 480 0
DWIDTH 8 0
BBX 7 7 0 0
BITMAP
7C
82
82
FE
82
82
7C
ENDCHAR
STARTCHAR 0474
ENCODING 1140
SWIDTH 480 0
DWIDTH 8 0
BBX 7 10 0 0
BITMAP
82
82
8C
6C
6C
6C
6C
10
10
10
ENDCHAR
STARTCHAR 0475
ENCODING 1141
SWIDTH 480 0
DWIDTH 8 0
BBX 7 7 0 0
BITMAP
82
8C
8C
6C
6C
6C
10
ENDCHAR
STARTCHAR 0476
ENCODING 1142
SWIDTH 480 0
DWIDTH 8 0
BBX 7 14 0 0
BITMAP
90
FC
6C
00
82
82
8C
6C
6C
6C
6C
10
10
10
ENDCHAR
STARTCHAR 0477
ENCODING 1143
SWIDTH 480 0
DWIDTH 8 0
BBX 7 11 0 0
BITMAP
90
6C
6C
00
82
8C
8C
6C
6C
6C
10
ENDCHAR
STARTCHAR 0478
ENCODING 1144
SWIDTH 480 0
DWIDTH 8 0
BBX 7 13 0 -3
BITMAP
60
60
90
92
92
92
92
9C
9C
6C
0C
10
10
ENDCHAR
STARTCHAR 0479
ENCODING 1145
SWIDTH 480 0
DWIDTH 8 0
BBX 7 10 0 -3
BITMAP
72
92
92
92
9C
9C
6C
0C
10
10
ENDCHAR
STARTCHAR 047A
ENCODING 1146
SWIDTH 480 0
DWIDTH 8 0
BBX 7 12 0 -1
BITMAP
10
7C
7C
92
82
82
82
82
92
92
7C
10
ENDCHAR
STARTCHAR 047B
ENCODING 1147
SWIDTH 480 0
DWIDTH 8 0
BBX 7 9 0 -1
BITMAP
10
7C
92
92
82
92
92
7C
10
ENDCHAR
STARTCHAR 047C
ENCODING 1148
SWIDTH 480 0
DWIDTH 8 0
BBX 7 14 0 0
BITMAP
02
FE
FE
80
6C
6C
82
82
92
92
92
92
92
6C
ENDCHAR
STARTCHAR 047D
ENCODING 1149
SWIDTH 480 0
DWIDTH 8 0
BBX 7 11 0 0
BITMAP
02
FE
FE
80
6C
82
82
92
92
92
6C
ENDCHAR
STARTCHAR 047E
ENCODING 1150
SWIDTH 480 0
DWIDTH 8 0
BBX 7 13 0 0
BITMAP
FE
FE
92
6C
6C
82
82
92
92
92
92
92
6C
ENDCHAR
STARTCHAR 047F
ENCODING 1151
SWIDTH 480 0
DWIDTH 8 0
BBX 7 11 0 0
BITMAP
FE
92
92
00
92
92
92
92
92
92
6C
ENDCHAR
STARTCHAR 0480
ENCODING 1152
SWIDTH 480 0
DWIDTH 8 0
BBX 7 13 0 -3
BITMAP
7C
7C
82
80
80
80
80
80
80
70
10
10
10
ENDCHAR
STARTCHAR 0481
ENCODING 1153
SWIDTH 480 0
DWIDTH 8 0
BBX 7 10 0 -3
BITMAP
7C
82
82
80
80
80
70
10
10
10
ENDCHAR
STARTCHAR 0482
ENCODING 1154
SWIDTH 480 0
DWIDTH 8 0
BBX 7 12 0 -1
BITMAP
02
02
02
6C
1C
92
92
70
6C
6C
80
80
ENDCHAR
STARTCHAR 0483
ENCODING 1155
SWIDTH 0 0
DWIDTH 0 0
BBX 7 5 0 8
BITMAP
02
02
FE
80
80
ENDCHAR
STARTCHAR 0484
ENCODING 1156
SWIDTH 0 0
DWIDTH 0 0
BBX 7 3 0 8
BITMAP
1C
E2
E2
ENDCHAR
STARTCHAR 0485
ENCODING 1157
SWIDTH 0 0
DWIDTH 0 0
BBX 5 5 1 8
BITMAP
38
38
C0
20
20
ENDCHAR
STARTCHAR 0486
ENCODING 1158
SWIDTH 0 0
DWIDTH 0 0
BBX 5 5 1 8
BITMAP
E0
E0
18
20
20
ENDCHAR
STARTCHAR 0487
ENCODING 1159
SWIDTH 0 0
DWIDTH 0 0
BBX 7 3 0 8
BITMAP
70
8E
8E
ENDCHAR
STARTCHAR 0488
ENCODING 1160
SWIDTH 0 0
DWIDTH 0 0
BBX 19 15 -6 -4
BITMAP
004000
19B300
19B300
240480
000000
200080
200080
D80360
000000
000000
180300
240480
004000
004000
01B000
ENDCHAR
STARTCHAR 0489
ENCODING 1161
SWIDTH 0 0
DWIDTH 0 0
BBX 19 19 -6 -6
BITMAP
003000
003000
184000
1A7380
1A7380
040400
000300
D80000
D80000
380380
000360
000360
180000
040400
39CB00
39CB00
004300
018000
018000
ENDCHAR
STARTCHAR 048A
ENCODING 1162
SWIDTH 480 0
DWIDTH 8 0
BBX 7 17 0 -3
BITMAP
82
FE
7C
00
82
82
82
8E
92
92
E2
82
82
82
0C
10
10
ENDCHAR
STARTCHAR 048B
ENCODING 1163
SWIDTH 480 0
DWIDTH 8 0
BBX 7 14 0 -3
BITMAP
82
7C
7C
00
82
8E
8E
92
E2
E2
82
0C
10
10
ENDCHAR
STARTCHAR 048C
ENCODING 1164
SWIDTH 480 0
DWIDTH 8 0
BBX 7 10 0 0
BITMAP
60
60
F0
60
7C
7C
62
62
62
7C
ENDCHAR
STARTCHAR 048D
ENCODING 1165
SWIDTH 480 0
DWIDTH 8 0
BBX 7 10 0 0
BITMAP
60
60
60
F0
60
60
7C
62
62
7C
ENDCHAR
STARTCHAR 048E
ENCODING 1166
SWIDTH 480 0
DWIDTH 8 0
BBX 7 10 0 0
BITMAP
FC
FC
82
92
FC
FC
8C
80
80
80
ENDCHAR
STARTCHAR 048F
ENCODING 1167
SWIDTH 480 0
DWIDTH 8 0
BBX 7 10 0 -3
BITMAP
9C
E2
E2
82
92
92
FC
8C
80
80
ENDCHAR
STARTCHAR 0490
ENCODING 1168
SWIDTH 480 0
DWIDTH 8 0
BBX 7 11 0 0
BITMAP
02
FE
FE
80
80
80
80
80
80
80
80
ENDCHAR
STARTCHAR 0491
ENCODING 1169
SWIDTH 480 0
DWIDTH 8 0
BBX 7 8 0 0
BITMAP
02
FE
80
80
80
80
80
80
ENDCHAR
STARTCHAR 0492
ENCODING 1170
SWIDTH 480 0
DWIDTH 8 0
BBX 7 10 0 0
BITMAP
7E
7E
60
60
F0
F0
60
60
60
60
ENDCHAR
STARTCHAR 0493
ENCODING 1171
SWIDTH 480 0
DWIDTH 8 0
BBX 7 7 0 0
BITMAP
7E
60
60
F0
60
60
60
ENDCHAR
STARTCHAR 0494
ENCODING 1172
SWIDTH 480 0
DWIDTH 8 0
BBX 7 13 0 -3
BITMAP
FE
FE
80
9C
E2
E2
82
82
82
82
02
1C
1C
ENDCHAR
STARTCHAR 0495
ENCODING 1173
SWIDTH 480 0
DWIDTH 8 0
BBX 7 10 0 -3
BITMAP
FE
80
80
FC
82
82
82
02
1C
1C
ENDCHAR
STARTCHAR 0496
ENCODING 1174
SWIDTH 480 0
DWIDTH 8 0
BBX 7 13 0 -3
BITMAP
92
92
92
7C
10
10
7C
92
92
92
02
02
02
ENDCHAR
STARTCHAR 0497
ENCODING 1175
SWIDTH 480 0
DWIDTH 8 0
BBX 7 10 0 -3
BITMAP
92
7C
7C
10
7C
7C
92
02
02
02
ENDCHAR
STARTCHAR 0498
ENCODING 1176
SWIDTH 480 0
DWIDTH 8 0
BBX 7 13 0 -3
BITMAP
7C
7C
82
02
1C
1C
02
82
82
7C
10
60
60
ENDCHAR
STARTCHAR 0499
ENCODING 1177
SWIDTH 480 0
DWIDTH 8 0
BBX 7 10 0 -3
BITMAP
7C
82
82
1C
82
82
7C
10
60
60
ENDCHAR
STARTCHAR 049A
ENCODING 1178
SWIDTH 480 0
DWIDTH 8 0
BBX 7 13 0 -3
BITMAP
82
82
8C
90
E0
E0
90
8C
8C
82
02
02
02
ENDCHAR
STARTCHAR 049B
ENCODING 1179
SWIDTH 480 0
DWIDTH 8 0
BBX 7 10 0 -3
BITMAP
8C
90
90
F0
8C
8C
82
02
02
02
ENDCHAR
STARTCHAR 049C
ENCODING 1180
SWIDTH 480 0
DWIDTH 8 0
BBX 7 10 0 0
BITMAP
92
92
9C
90
F0
F0
90
9C
9C
92
ENDCHAR
STARTCHAR 049D
ENCODING 1181
SWIDTH 480 0
DWIDTH 8 0
BBX 7 7 0 0
BITMAP
9C
90
90
F0
9C
9C
92
ENDCHAR
STARTCHAR 049E
ENCODING 1182
SWIDTH 480 0
DWIDTH 8 0
BBX 8 10 -1 0
BITMAP
41
41
F6
48
70
70
48
46
46
41
ENDCHAR
STARTCHAR 049F
ENCODING 1183
SWIDTH 480 0
DWIDTH 8 0
BBX 8 10 -1 0
BITMAP
40
40
F0
46
48
48
78
46
46
41
ENDCHAR
STARTCHAR 04A0
ENCODING 1184
SWIDTH 480 0
DWIDTH 8 0
BBX 7 10 0 0
BITMAP
E2
E2
6C
70
60
60
70
6C
6C
62
ENDCHAR
STARTCHAR 04A1
ENCODING 1185
SWIDTH 480 0
DWIDTH 8 0
BBX 7 7 0 0
BITMAP
EC
70
70
70
6C
6C
62
ENDCHAR
STARTCHAR 04A2
ENCODING 1186
SWIDTH 480 0
DWIDTH 8 0
BBX 7 13 0 -3
BITMAP
82
82
82
82
FE
FE
82
82
82
82
02
02
02
ENDCHAR
STARTCHAR 04A3
ENCODING 1187
SWIDTH 480 0
DWIDTH 8 0
BBX 7 10 0 -3
BITMAP
82
82
82
FE
82
82
82
02
02
02
ENDCHAR
STARTCHAR 04A4
ENCODING 1188
SWIDTH 480 0
DWIDTH 8 0
BBX 7 10 0 0
BITMAP
8E
8E
8C
8C
FC
FC
8C
8C
8C
8C
ENDCHAR
STARTCHAR 04A5
ENCODING 1189
SWIDTH 480 0
DWIDTH 8 0
BBX 7 7 0 0
BITMAP
8E
8C
8C
FC
8C
8C
8C
ENDCHAR
STARTCHAR 04A6
ENCODING 1190
SWIDTH 480 0
DWIDTH 8 0
BBX 7 13 0 -3
BITMAP
F0
F0
90
9C
92
92
92
92
92
92
02
1C
1C
ENDCHAR
STARTCHAR 04A7
ENCODING 1191
SWIDTH 480 0
DWIDTH 8 0
BBX 7 10 0 -3
BITMAP
F0
9C
9C
92
92
92
92
02
1C
1C
ENDCHAR
STARTCHAR 04A8
ENCODING 1192
SWIDTH 480 0
DWIDTH 8 0
BBX 7 11 0 -1
BITMAP
7C
7C
82
8C
92
92
92
92
92
7C
0E
ENDCHAR
STARTCHAR 04A9
ENCODING 1193
SWIDTH 480 0
DWIDTH 8 0
BBX 7 8 0 -1
BITMAP
7C
82
82
8C
92
92
7C
0E
ENDCHAR
STARTCHAR 04AA
ENCODING 1194
SWIDTH 480 0
DWIDTH 8 0
BBX 7 13 0 -3
BITMAP
7C
7C
82
80
80
80
80
82
82
7C
10
60
60
ENDCHAR
STARTCHAR 04AB
ENCODING 1195
SWIDTH 480 0
DWIDTH 8 0
BBX 7 10 0 -3
BITMAP
7C
82
82
80
80
80
7E
10
60
60
ENDCHAR
STARTCHAR 04AC
ENCODING 1196
SWIDTH 480 0
DWIDTH 8 0
BBX 7 13 0 -3
BITMAP
FE
FE
10
10
10
10
10
10
10
1C
0C
0C
0C
ENDCHAR
STARTCHAR 04AD
ENCODING 1197
SWIDTH 480 0
DWIDTH 8 0
BBX 7 10 0 -3
BITMAP
FE
10
10
10
10
10
1C
0C
0C
0C
ENDCHAR
STARTCHAR 04AE
ENCODING 1198
SWIDTH 480 0
DWIDTH 8 0
BBX 7 10 0 0
BITMAP
82
82
82
6C
10
10
10
10
10
10
ENDCHAR
STARTCHAR 04AF
ENCODING 1199
SWIDTH 480 0
DWIDTH 8 0
BBX 7 10 0 -3
BITMAP
82
82
82
6C
6C
6C
10
10
10
10
ENDCHAR
STARTCHAR 04B0
ENCODING 1200
SWIDTH 480 0
DWIDTH 8 0
BBX 7 10 0 0
BITMAP
82
82
82
6C
10
10
FE
10
10
10
ENDCHAR
STARTCHAR 04B1
ENCODING 1201
SWIDTH 480 0
DWIDTH 8 0
BBX 7 10 0 -3
BITMAP
82
82
82
6C
6C
6C
FE
10
10
10
ENDCHAR
STARTCHAR 04B2
ENCODING 1202
SWIDTH 480 0
DWIDTH 8 0
BBX 7 13 0 -3
BITMAP
82
82
82
6C
10
10
6C
82
82
82
02
02
02
ENDCHAR
STARTCHAR 04B3
ENCODING 1203
SWIDTH 480 0
DWIDTH 8 0
BBX 7 10 0 -3
BITMAP
82
6C
6C
10
6C
6C
82
02
02
02
ENDCHAR
STARTCHAR 04B4
ENCODING 1204
SWIDTH 480 0
DWIDTH 8 0
BBX 7 13 0 -3
BITMAP
F2
F2
62
62
62
62
62
62
62
7E
02
02
02
ENDCHAR
STARTCHAR 04B5
ENCODING 1205
SWIDTH 480 0
DWIDTH 8 0
BBX 7 10 0 -3
BITMAP
F2
62
62
62
62
62
7E
02
02
02
ENDCHAR
STARTCHAR 04B6
ENCODING 1206
SWIDTH 480 0
DWIDTH 8 0
BBX 7 13 0 -3
BITMAP
82
82
82
82
7E
7E
02
02
02
02
02
02
02
ENDCHAR
STARTCHAR 04B7
ENCODING 1207
SWIDTH 480 0
DWIDTH 8 0
BBX 7 10 0 -3
BITMAP
82
82
82
7E
02
02
02
02
02
02
ENDCHAR
STARTCHAR 04B8
ENCODING 1208
SWIDTH 480 0
DWIDTH 8 0
BBX 7 10 0 0
BITMAP
82
82
82
92
7E
7E
12
02
02
02
ENDCHAR
STARTCHAR 04B9
ENCODING 1209
SWIDTH 480 0
DWIDTH 8 0
BBX 7 7 0 0
BITMAP
82
92
92
7E
12
12
02
ENDCHAR
STARTCHAR 04BA
ENCODING 1210
SWIDTH 480 0
DWIDTH 8 0
BBX 7 10 0 0
BITMAP
80
80
80
80
FC
FC
82
82
82
82
ENDCHAR
STARTCHAR 04BB
ENCODING 1211
SWIDTH 480 0
DWIDTH 8 0
BBX 7 10 0 0
BITMAP
80
80
80
9C
E2
E2
82
82
82
82
ENDCHAR
STARTCHAR 04BC
ENCODING 1212
SWIDTH 480 0
DWIDTH 8 0
BBX 7 10 0 0
BITMAP
0C
0C
92
92
7E
7E
10
10
10
0E
ENDCHAR
STARTCHAR 04BD
ENCODING 1213
SWIDTH 480 0
DWIDTH 8 0
BBX 7 7 0 0
BITMAP
8C
92
92
7E
10
10
0E
ENDCHAR
STARTCHAR 04BE
ENCODING 1214
SWIDTH 480 0
DWIDTH 8 0
BBX 7 13 0 -3
BITMAP
0C
0C
92
92
7E
7E
10
10
10
0E
0C
02
02
ENDCHAR
STARTCHAR 04BF
ENCODING 1215
SWIDTH 480 0
DWIDTH 8 0
BBX 7 10 0 -3
BITMAP
8C
92
92
7E
10
10
0E
0C
02
02
ENDCHAR
STARTCHAR 04C0
ENCODING 1216
SWIDTH 480 0
DWIDTH 8 0
BBX 5 10 1 0
BITMAP
F8
F8
20
20
20
20
20
20
20
F8
ENDCHAR
STARTCHAR 04C1
ENCODING 1217
SWIDTH 480 0
DWIDTH 8 0
BBX 7 14 0 0
BITMAP
82
FE
7C
00
92
92
92
7C
10
10
7C
92
92
92
ENDCHAR
STARTCHAR 04C2
ENCODING 1218
SWIDTH 480 0
DWIDTH 8 0
BBX 7 11 0 0
BITMAP
82
7C
7C
00
92
7C
7C
10
7C
7C
92
ENDCHAR
STARTCHAR 04C3
ENCODING 1219
SWIDTH 480 0
DWIDTH 8 0
BBX 7 13 0 -3
BITMAP
82
82
8C
90
FC
FC
82
82
82
82
02
1C
1C
ENDCHAR
STARTCHAR 04C4
ENCODING 1220
SWIDTH 480 0
DWIDTH 8 0
BBX 7 10 0 -3
BITMAP
8C
90
90
FC
82
82
82
02
1C
1C
ENDCHAR
STARTCHAR 04C5
ENCODING 1221
SWIDTH 480 0
DWIDTH 8 0
BBX 7 13 0 -3
BITMAP
7E
7E
62
62
62
62
62
62
62
82
0C
10
10
ENDCHAR
STARTCHAR 04C6
ENCODING 1222
SWIDTH 480 0
DWIDTH 8 0
BBX 7 10 0 -3
BITMAP
7E
62
62
62
62
62
82
0C
10
10
ENDCHAR
STARTCHAR 04C7
ENCODING 1223
SWIDTH 480 0
DWIDTH 8 0
BBX 7 13 0 -3
BITMAP
82
82
82
82
FE
FE
82
82
82
82
02
1C
1C
ENDCHAR
STARTCHAR 04C8
ENCODING 1224
SWIDTH 480 0
DWIDTH 8 0
BBX 7 10 0 -3
BITMAP
82
82
82
FE
82
82
82
02
1C
1C
ENDCHAR
STARTCHAR 04C9
ENCODING 1225
SWIDTH 480 0
DWIDTH 8 0
BBX 7 13 0 -3
BITMAP
82
82
82
82
FE
FE
82
82
82
82
0C
10
10
ENDCHAR
STARTCHAR 04CA
ENCODING 1226
SWIDTH 480 0
DWIDTH 8 0
BBX 7 10 0 -3
BITMAP
82
82
82
FE
82
82
82
0C
10
10
ENDCHAR
STARTCHAR 04CB
ENCODING 1227
SWIDTH 480 0
DWIDTH 8 0
BBX 7 13 0 -3
BITMAP
82
82
82
82
7E
7E
02
02
02
0E
0C
0C
0C
ENDCHAR
STARTCHAR 04CC
ENCODING 1228
SWIDTH 480 0
DWIDTH 8 0
BBX 7 10 0 -3
BITMAP
82
82
82
7E
02
02
0E
0C
0C
0C
ENDCHAR
STARTCHAR 04CD
ENCODING 1229
SWIDTH 480 0
DWIDTH 8 0
BBX 7 13 0 -3
BITMAP
82
82
EE
92
92
92
82
82
82
82
0C
10
10
ENDCHAR
STARTCHAR 04CE
ENCODING 1230
SWIDTH 480 0
DWIDTH 8 0
BBX 7 10 0 -3
BITMAP
82
EE
EE
92
92
92
82
0C
10
10
ENDCHAR
STARTCHAR 04CF
ENCODING 1231
SWIDTH 480 0
DWIDTH 8 0
BBX 5 10 1 0
BITMAP
F8
F8
20
20
20
20
20
20
20
F8
ENDCHAR
STARTCHAR 04D0
ENCODING 1232
SWIDTH 480 0
DWIDTH 8 0
BBX 7 14 0 0
BITMAP
82
FE
7C
00
7C
7C
82
82
FE
FE
82
82
82
82
ENDCHAR
STARTCHAR 04D1
ENCODING 1233
SWIDTH 480 0
DWIDTH 8 0
BBX 7 11 0 0
BITMAP
82
7C
7C
00
7C
02
02
7E
82
82
7E
ENDCHAR
STARTCHAR 04D2
ENCODING 1234
SWIDTH 480 0
DWIDTH 8 0
BBX 7 13 0 0
BITMAP
6C
6C
00
7C
7C
82
82
FE
FE
82
82
82
82
ENDCHAR
STARTCHAR 04D3
ENCODING 1235
SWIDTH 480 0
DWIDTH 8 0
BBX 7 10 0 0
BITMAP
6C
6C
00
7C
02
02
7E
82
82
7E
ENDCHAR
STARTCHAR 04D4
ENCODING 1236
SWIDTH 480 0
DWIDTH 8 0
BBX 7 10 0 0
BITMAP
7E
7E
90
90
FC
FC
90
90
90
9E
ENDCHAR
STARTCHAR 04D5
ENCODING 1237
SWIDTH 480 0
DWIDTH 8 0
BBX 7 7 0 0
BITMAP
6C
12
12
7E
90
90
7E
ENDCHAR
STARTCHAR 04D6
ENCODING 1238
SWIDTH 480 0
DWIDTH 8 0
BBX 7 14 0 0
BITMAP
82
FE
7C
00
FE
FE
80
80
F0
F0
80
80
80
FE
ENDCHAR
STARTCHAR 04D7
ENCODING 1239
SWIDTH 480 0
DWIDTH 8 0
BBX 7 11 0 0
BITMAP
82
7C
7C
00
7C
82
82
FE
80
80
7C
ENDCHAR
STARTCHAR 04D8
ENCODING 1240
SWIDTH 480 0
DWIDTH 8 0
BBX 7 10 0 0
BITMAP
7C
7C
82
02
FE
FE
82
82
82
7C
ENDCHAR
STARTCHAR 04D9
ENCODING 1241
SWIDTH 480 0
DWIDTH 8 0
BBX 7 7 0 0
BITMAP
7C
02
02
FE
82
82
7C
ENDCHAR
STARTCHAR 04DA
ENCODING 1242
SWIDTH 480 0
DWIDTH 8 0
BBX 7 13 0 0
BITMAP
6C
6C
00
7C
7C
82
02
FE
FE
82
82
82
7C
ENDCHAR
STARTCHAR 04DB
ENCODING 1243
SWIDTH 480 0
DWIDTH 8 0
BBX 7 10 0 0
BITMAP
6C
6C
00
7C
02
02
FE
82
82
7C
ENDCHAR
STARTCHAR 04DC
ENCODING 1244
SWIDTH 480 0
DWIDTH 8 0
BBX 7 13 0 0
BITMAP
6C
6C
00
92
92
92
7C
10
10
7C
92
92
92
ENDCHAR
STARTCHAR 04DD
ENCODING 1245
SWIDTH 480 0
DWIDTH 8 0
BBX 7 10 0 0
BITMAP
6C
6C
00
92
7C
7C
10
7C
7C
92
ENDCHAR
STARTCHAR 04DE
ENCODING 1246
SWIDTH 480 0
DWIDTH 8 0
BBX 7 13 0 0
BITMAP
6C
6C
00
7C
7C
82
02
1C
1C
02
82
82
7C
ENDCHAR
STARTCHAR 04DF
ENCODING 1247
SWIDTH 480 0
DWIDTH 8 0
BBX 7 10 0 0
BITMAP
6C
6C
00
7C
82
82
1C
82
82
7C
ENDCHAR
STARTCHAR 04E0
ENCODING 1248
SWIDTH 480 0
DWIDTH 8 0
BBX 7 10 0 0
BITMAP
FE
FE
02
0C
1C
1C
02
82
82
7C
ENDCHAR
STARTCHAR 04E1
ENCODING 1249
SWIDTH 480 0
DWIDTH 8 0
BBX 7 10 0 -3
BITMAP
FE
0C
0C
10
0C
0C
02
82
7C
7C
ENDCHAR
STARTCHAR 04E2
ENCODING 1250
SWIDTH 480 0
DWIDTH 8 0
BBX 7 13 0 0
BITMAP
7C
7C
00
82
82
82
8E
92
92
E2
82
82
82
ENDCHAR
STARTCHAR 04E3
ENCODING 1251
SWIDTH 480 0
DWIDTH 8 0
BBX 7 10 0 0
BITMAP
7C
7C
00
82
8E
8E
92
E2
E2
82
ENDCHAR
STARTCHAR 04E4
ENCODING 1252
SWIDTH 480 0
DWIDTH 8 0
BBX 7 13 0 0
BITMAP
6C
6C
00
82
82
82
8E
92
92
E2
82
82
82
ENDCHAR
STARTCHAR 04E5
ENCODING 1253
SWIDTH 480 0
DWIDTH 8 0
BBX 7 10 0 0
BITMAP
6C
6C
00
82
8E
8E
92
E2
E2
82
ENDCHAR
STARTCHAR 04E6
ENCODING 1254
SWIDTH 480 0
DWIDTH 8 0
BBX 7 13 0 0
BITMAP
6C
6C
00
7C
7C
82
82
82
82
82
82
82
7C
ENDCHAR
STARTCHAR 04E7
ENCODING 1255
SWIDTH 480 0
DWIDTH 8 0
BBX 7 10 0 0
BITMAP
6C
6C
00
7C
82
82
82
82
82
7C
ENDCHAR
STARTCHAR 04E8
ENCODING 1256
SWIDTH 480 0
DWIDTH 8 0
BBX 7 10 0 0
BITMAP
7C
7C
82
82
FE
FE
82
82
82
7C
ENDCHAR
STARTCHAR 04E9
ENCODING 1257
SWIDTH 480 0
DWIDTH 8 0
BBX 7 7 0 0
BITMAP
7C
82
82
FE
82
82
7C
ENDCHAR
STARTCHAR 04EA
ENCODING 1258
SWIDTH 480 0
DWIDTH 8 0
BBX 7 13 0 0
BITMAP
6C
6C
00
7C
7C
82
82
FE
FE
82
82
82
7C
ENDCHAR
STARTCHAR 04EB
ENCODING 1259
SWIDTH 480 0
DWIDTH 8 0
BBX 7 10 0 0
BITMAP
6C
6C
00
7C
82
82
FE
82
82
7C
ENDCHAR
STARTCHAR 04EC
ENCODING 1260
SWIDTH 480 0
DWIDTH 8 0
BBX 7 13 0 0
BITMAP
6C
6C
00
7C
7C
82
02
1E
1E
02
82
82
7C
ENDCHAR
STARTCHAR 04ED
ENCODING 1261
SWIDTH 480 0
DWIDTH 8 0
BBX 7 10 0 0
BITMAP
6C
6C
00
7C
82
82
1E
82
82
7C
ENDCHAR
STARTCHAR 04EE
ENCODING 1262
SWIDTH 480 0
DWIDTH 8 0
BBX 7 13 0 0
BITMAP
7C
7C
00
82
82
82
6C
6C
6C
10
90
90
60
ENDCHAR
STARTCHAR 04EF
ENCODING 1263
SWIDTH 480 0
DWIDTH 8 0
BBX 7 13 0 -3
BITMAP
7C
7C
00
82
82
82
82
8E
8E
72
02
7C
7C
ENDCHAR
STARTCHAR 04F0
ENCODING 1264
SWIDTH 480 0
DWIDTH 8 0
BBX 7 13 0 0
BITMAP
6C
6C
00
82
82
82
6C
6C
6C
10
90
90
60
ENDCHAR
STARTCHAR 04F1
ENCODING 1265
SWIDTH 480 0
DWIDTH 8 0
BBX 7 13 0 -3
BITMAP
6C
6C
00
82
82
82
82
8E
8E
72
02
7C
7C
ENDCHAR
STARTCHAR 04F2
ENCODING 1266
SWIDTH 480 0
DWIDTH 8 0
BBX 7 14 0 0
BITMAP
12
7E
6C
00
82
82
82
6C
6C
6C
10
90
90
60
ENDCHAR
STARTCHAR 04F3
ENCODING 1267
SWIDTH 480 0
DWIDTH 8 0
BBX 7 14 0 -3
BITMAP
12
6C
6C
00
82
82
82
82
8E
8E
72
02
7C
7C
ENDCHAR
STARTCHAR 04F4
ENCODING 1268
SWIDTH 480 0
DWIDTH 8 0
BBX 7 13 0 0
BITMAP
6C
6C
00
82
82
82
82
7E
7E
02
02
02
02
ENDCHAR
STARTCHAR 04F5
ENCODING 1269
SWIDTH 480 0
DWIDTH 8 0
BBX 7 10 0 0
BITMAP
6C
6C
00
82
82
82
7E
02
02
02
ENDCHAR
STARTCHAR 04F6
ENCODING 1270
SWIDTH 480 0
DWIDTH 8 0
BBX 7 13 0 -3
BITMAP
FE
FE
80
80
80
80
80
80
80
E0
60
60
60
ENDCHAR
STARTCHAR 04F7
ENCODING 1271
SWIDTH 480 0
DWIDTH 8 0
BBX 7 10 0 -3
BITMAP
FE
80
80
80
80
80
E0
60
60
60
ENDCHAR
STARTCHAR 04F8
ENCODING 1272
SWIDTH 480 0
DWIDTH 8 0
BBX 7 13 0 0
BITMAP
6C
6C
00
82
82
82
82
E2
E2
92
92
92
E2
ENDCHAR
STARTCHAR 04F9
ENCODING 1273
SWIDTH 480 0
DWIDTH 8 0
BBX 7 10 0 0
BITMAP
6C
6C
00
82
82
82
E2
92
92
E2
ENDCHAR
STARTCHAR 04FA
ENCODING 1274
SWIDTH 480 0
DWIDTH 8 0
BBX 7 13 0 -3
BITMAP
7E
7E
60
60
F0
F0
60
60
60
70
10
E0
E0
ENDCHAR
STARTCHAR 04FB
ENCODING 1275
SWIDTH 480 0
DWIDTH 8 0
BBX 7 10 0 -3
BITMAP
7E
60
60
F0
60
60
70
10
E0
E0
ENDCHAR
STARTCHAR 04FC
ENCODING 1276
SWIDTH 480 0
DWIDTH 8 0
BBX 7 11 0 -1
BITMAP
82
82
82
6C
10
10
6C
82
82
92
0C
ENDCHAR
STARTCHAR 04FD
ENCODING 1277
SWIDTH 480 0
DWIDTH 8 0
BBX 7 10 0 -3
BITMAP
82
6C
6C
10
6C
6C
82
12
0C
0C
ENDCHAR
STARTCHAR 04FE
ENCODING 1278
SWIDTH 480 0
DWIDTH 8 0
BBX 7 10 0 0
BITMAP
82
82
82
6C
FE
FE
6C
82
82
82
ENDCHAR
STARTCHAR 04FF
ENCODING 1279
SWIDTH 480 0
DWIDTH 8 0
BBX 7 7 0 0
BITMAP
82
6C
6C
FE
6C
6C
82
ENDCHAR
STARTCHAR 0500
ENCODING 1280
SWIDTH 480 0
DWIDTH 8 0
BBX 7 10 0 0
BITMAP
02
02
02
02
7E
7E
82
82
82
7E
ENDCHAR
STARTCHAR 0501
ENCODING 1281
SWIDTH 480 0
DWIDTH 8 0
BBX 7 10 0 0
BITMAP
02
02
02
7E
82
82
82
8E
8E
72
ENDCHAR
STARTCHAR 0502
ENCODING 1282
SWIDTH 480 0
DWIDTH 8 0
BBX 7 10 0 0
BITMAP
10
10
10
10
72
72
92
92
92
6C
ENDCHAR
STARTCHAR 0503
ENCODING 1283
SWIDTH 480 0
DWIDTH 8 0
BBX 7 10 0 0
BITMAP
10
10
10
70
92
92
92
92
92
6C
ENDCHAR
STARTCHAR 0504
ENCODING 1284
SWIDTH 480 0
DWIDTH 8 0
BBX 7 10 0 0
BITMAP
E0
E0
10
10
E2
E2
12
12
12
0C
ENDCHAR
STARTCHAR 0505
ENCODING 1285
SWIDTH 480 0
DWIDTH 8 0
BBX 7 7 0 0
BITMAP
E0
12
12
E2
12
12
0C
ENDCHAR
STARTCHAR 0506
ENCODING 1286
SWIDTH 480 0
DWIDTH 8 0
BBX 7 13 0 -3
BITMAP
E0
E0
10
10
E0
E0
10
10
10
0E
02
02
02
ENDCHAR
STARTCHAR 0507
ENCODING 1287
SWIDTH 480 0
DWIDTH 8 0
BBX 7 10 0 -3
BITMAP
E0
10
10
E0
10
10
0E
02
02
02
ENDCHAR
STARTCHAR 0508
ENCODING 1288
SWIDTH 480 0
DWIDTH 8 0
BBX 7 10 0 0
BITMAP
F0
F0
90
90
92
92
92
92
92
8C
ENDCHAR
STARTCHAR 0509
ENCODING 1289
SWIDTH 480 0
DWIDTH 8 0
BBX 7 7 0 0
BITMAP
F0
92
92
92
92
92
8C
ENDCHAR
STARTCHAR 050A
ENCODING 1290
SWIDTH 480 0
DWIDTH 8 0
BBX 7 10 0 0
BITMAP
90
90
90
90
F2
F2
92
92
92
8C
ENDCHAR
STARTCHAR 050B
ENCODING 1291
SWIDTH 480 0
DWIDTH 8 0
BBX 7 7 0 0
BITMAP
90
92
92
F2
92
92
8C
ENDCHAR
STARTCHAR 050C
ENCODING 1292
SWIDTH 480 0
DWIDTH 8 0
BBX 7 10 0 0
BITMAP
7C
7C
82
80
8E
8E
82
82
82
7C
ENDCHAR
STARTCHAR 050D
ENCODING 1293
SWIDTH 480 0
DWIDTH 8 0
BBX 7 7 0 0
BITMAP
7C
80
80
8E
82
82
7C
ENDCHAR
STARTCHAR 050E
ENCODING 1294
SWIDTH 480 0
DWIDTH 8 0
BBX 7 10 0 0
BITMAP
FE
FE
10
10
12
12
12
12
12
0C
ENDCHAR
STARTCHAR 050F
ENCODING 1295
SWIDTH 480 0
DWIDTH 8 0
BBX 7 7 0 0
BITMAP
FE
10
10
12
12
12
0C
ENDCHAR
STARTCHAR 0510
ENCODING 1296
SWIDTH 480 0
DWIDTH 8 0
BBX 7 10 0 0
BITMAP
7C
7C
82
80
70
70
80
82
82
7C
ENDCHAR
STARTCHAR 0511
ENCODING 1297
SWIDTH 480 0
DWIDTH 8 0
BBX 7 7 0 0
BITMAP
7C
82
82
70
82
82
7C
ENDCHAR
STARTCHAR 0512
ENCODING 1298
SWIDTH 480 0
DWIDTH 8 0
BBX 7 13 0 -3
BITMAP
7E
7E
62
62
62
62
62
62
62
82
02
1C
1C
ENDCHAR
STARTCHAR 0513
ENCODING 1299
SWIDTH 480 0
DWIDTH 8 0
BBX 7 10 0 -3
BITMAP
7E
62
62
62
62
62
82
02
1C
1C
ENDCHAR
STARTCHAR 0514
ENCODING 1300
SWIDTH 480 0
DWIDTH 8 0
BBX 7 10 0 0
BITMAP
72
72
72
6C
6C
6C
6C
72
72
92
ENDCHAR
STARTCHAR 0515
ENCODING 1301
SWIDTH 480 0
DWIDTH 8 0
BBX 7 7 0 0
BITMAP
72
72
72
6C
72
72
92
ENDCHAR
STARTCHAR 0516
ENCODING 1302
SWIDTH 480 0
DWIDTH 8 0
BBX 7 10 0 0
BITMAP
F2
F2
92
9C
EC
EC
8C
82
82
82
ENDCHAR
STARTCHAR 0517
ENCODING 1303
SWIDTH 480 0
DWIDTH 8 0
BBX 7 10 0 -3
BITMAP
F2
92
92
9C
92
92
E2
80
80
80
ENDCHAR
STARTCHAR 0518
ENCODING 1304
SWIDTH 480 0
DWIDTH 8 0
BBX 7 10 0 0
BITMAP
7E
7E
90
90
7C
7C
90
90
90
9E
ENDCHAR
STARTCHAR 0519
ENCODING 1305
SWIDTH 480 0
DWIDTH 8 0
BBX 7 7 0 0
BITMAP
7C
92
92
7E
90
90
8E
ENDCHAR
STARTCHAR 051A
ENCODING 1306
SWIDTH 480 0
DWIDTH 8 0
BBX 7 10 0 0
BITMAP
7C
7C
82
82
82
82
92
8C
8C
72
ENDCHAR
STARTCHAR 051B
ENCODING 1307
SWIDTH 480 0
DWIDTH 8 0
BBX 7 10 0 -3
BITMAP
7E
82
82
82
8E
8E
72
02
02
02
ENDCHAR
STARTCHAR 051C
ENCODING 1308
SWIDTH 480 0
DWIDTH 8 0
BBX 7 10 0 0
BITMAP
82
82
82
82
92
92
92
92
92
6C
ENDCHAR
STARTCHAR 051D
ENCODING 1309
SWIDTH 480 0
DWIDTH 8 0
BBX 7 7 0 0
BITMAP
82
92
92
92
92
92
6C
ENDCHAR
STARTCHAR 051E
ENCODING 1310
SWIDTH 480 0
DWIDTH 8 0
BBX 7 10 0 0
BITMAP
92
92
8C
92
E0
E0
90
8C
8C
82
ENDCHAR
STARTCHAR 051F
ENCODING 1311
SWIDTH 480 0
DWIDTH 8 0
BBX 7 7 0 0
BITMAP
EC
9E
9E
F0
8C
8C
82
ENDCHAR
STARTCHAR 0520
ENCODING 1312
SWIDTH 480 0
DWIDTH 8 0
BBX 8 13 -1 -3
BITMAP
78
78
48
4E
49
49
49
49
49
89
01
0E
0E
ENDCHAR
STARTCHAR 0521
ENCODING 1313
SWIDTH 480 0
DWIDTH 8 0
BBX 8 10 -1 -3
BITMAP
78
48
48
4E
49
49
89
01
0E
0E
ENDCHAR
STARTCHAR 0522
ENCODING 1314
SWIDTH 480 0
DWIDTH 8 0
BBX 7 13 0 -3
BITMAP
90
90
90
9C
F2
F2
92
92
92
92
02
1C
1C
ENDCHAR
STARTCHAR 0523
ENCODING 1315
SWIDTH 480 0
DWIDTH 8 0
BBX 7 10 0 -3
BITMAP
90
90
90
FC
92
92
92
02
1C
1C
ENDCHAR
STARTCHAR 0524
ENCODING 1316
SWIDTH 480 0
DWIDTH 8 0
BBX 7 13 0 -3
BITMAP
FC
FC
8C
8C
8C
8C
8C
8C
8C
8E
02
02
02
ENDCHAR
STARTCHAR 0525
ENCODING 1317
SWIDTH 480 0
DWIDTH 8 0
BBX 7 10 0 -3
BITMAP
FE
6C
6C
6C
6C
6C
6E
02
02
02
ENDCHAR
STARTCHAR 0526
ENCODING 1318
SWIDTH 480 0
DWIDTH 8 0
BBX 7 13 0 -3
BITMAP
80
80
80
F0
8C
8C
8C
8C
8C
8E
02
02
02
ENDCHAR
STARTCHAR 0527
ENCODING 1319
SWIDTH 480 0
DWIDTH 8 0
BBX 7 13 0 -3
BITMAP
80
80
80
90
EC
EC
8C
8C
8C
8E
02
02
02
ENDCHAR
STARTCHAR 0528
ENCODING 1320
SWIDTH 480 0
DWIDTH 8 0
BBX 10 13 -3 -3
BITMAP
1040
1040
1040
1040
1FC0
1FC0
1040
1040
1040
1040
1000
E000
E000
ENDCHAR
STARTCHAR 0529
ENCODING 1321
SWIDTH 480 0
DWIDTH 8 0
BBX 10 10 -3 -3
BITMAP
1040
1040
1040
1FC0
1040
1040
1040
1000
E000
E000
ENDCHAR
STARTCHAR 052A
ENCODING 1322
SWIDTH 480 0
DWIDTH 8 0
BBX 8 13 0 -3
BITMAP
7D
7D
7D
7E
9E
9E
9E
9D
9D
FD
90
90
90
ENDCHAR
STARTCHAR 052B
ENCODING 1323
SWIDTH 480 0
DWIDTH 8 0
BBX 8 10 0 -3
BITMAP
1D
7E
7E
7E
9E
9E
FD
90
90
90
ENDCHAR
STARTCHAR 052C
ENCODING 1324
SWIDTH 480 0
DWIDTH 8 0
BBX 7 13 0 -3
BITMAP
82
82
8E
92
7E
7E
12
62
62
FE
82
82
82
ENDCHAR
STARTCHAR 052D
ENCODING 1325
SWIDTH 480 0
DWIDTH 8 0
BBX 7 10 0 -3
BITMAP
8E
92
92
7E
62
62
FE
82
82
82
ENDCHAR
STARTCHAR 052E
ENCODING 1326
SWIDTH 480 0
DWIDTH 8 0
BBX 7 13 0 -3
BITMAP
7C
7C
6C
6C
6C
6C
6C
6C
6C
8E
02
02
02
ENDCHAR
STARTCHAR 052F
ENCODING 1327
SWIDTH 480 0
DWIDTH 8 0
BBX 7 10 0 -3
BITMAP
7C
6C
6C
6C
6C
6C
8E
02
02
02
ENDCHAR
STARTCHAR 0531
ENCODING 1329
SWIDTH 480 0
DWIDTH 8 0
BBX 7 10 0 0
BITMAP
90
90
90
90
9C
9C
92
92
92
62
ENDCHAR
STARTCHAR 0532
ENCODING 1330
SWIDTH 480 0
DWIDTH 8 0
BBX 7 10 0 0
BITMAP
7C
7C
82
80
FC
FC
82
80
80
80
ENDCHAR
STARTCHAR 0533
ENCODING 1331
SWIDTH 480 0
DWIDTH 8 0
BBX 7 10 0 0
BITMAP
60
60
90
90
7C
7C
12
10
10
10
ENDCHAR
STARTCHAR 0534
ENCODING 1332
SWIDTH 480 0
DWIDTH 8 0
BBX 7 10 0 0
BITMAP
60
60
90
90
1C
1C
12
10
10
10
ENDCHAR
STARTCHAR 0535
ENCODING 1333
SWIDTH 480 0
DWIDTH 8 0
BBX 7 10 0 0
BITMAP
80
80
80
FC
82
82
80
82
82
7C
ENDCHAR
STARTCHAR 0536
ENCODING 1334
SWIDTH 480 0
DWIDTH 8 0
BBX 7 11 0 -1
BITMAP
7C
7C
82
82
7C
7C
0C
10
10
FE
02
ENDCHAR
STARTCHAR 0537
ENCODING 1335
SWIDTH 480 0
DWIDTH 8 0
BBX 7 13 0 -3
BITMAP
80
80
80
80
FC
FC
82
80
80
FC
02
1C
1C
ENDCHAR
STARTCHAR 0538
ENCODING 1336
SWIDTH 480 0
DWIDTH 8 0
BBX 7 11 0 -1
BITMAP
7C
7C
82
80
80
80
80
80
80
FC
02
ENDCHAR
STARTCHAR 0539
ENCODING 1337
SWIDTH 480 0
DWIDTH 8 0
BBX 7 10 0 0
BITMAP
70
70
8C
9E
9C
9C
9C
80
80
80
ENDCHAR
STARTCHAR 053A
ENCODING 1338
SWIDTH 480 0
DWIDTH 8 0
BBX 7 10 0 0
BITMAP
0C
0C
0C
0C
7E
7E
8C
8C
8C
70
ENDCHAR
STARTCHAR 053B
ENCODING 1339
SWIDTH 480 0
DWIDTH 8 0
BBX 7 10 0 0
BITMAP
80
80
80
FC
82
82
82
80
80
80
ENDCHAR
STARTCHAR 053C
ENCODING 1340
SWIDTH 480 0
DWIDTH 8 0
BBX 7 11 0 -1
BITMAP
80
80
80
80
80
80
80
80
80
FC
02
ENDCHAR
STARTCHAR 053D
ENCODING 1341
SWIDTH 480 0
DWIDTH 8 0
BBX 7 10 0 0
BITMAP
80
80
80
E2
92
92
92
92
92
8C
ENDCHAR
STARTCHAR 053E
ENCODING 1342
SWIDTH 480 0
DWIDTH 8 0
BBX 8 11 0 0
BITMAP
80
7E
7E
8D
8C
8C
8C
8C
8C
8C
70
ENDCHAR
STARTCHAR 053F
ENCODING 1343
SWIDTH 480 0
DWIDTH 8 0
BBX 7 10 0 0
BITMAP
80
80
80
82
82
82
7E
02
02
02
ENDCHAR
STARTCHAR 0540
ENCODING 1344
SWIDTH 480 0
DWIDTH 8 0
BBX 7 11 0 -1
BITMAP
0C
0C
02
0C
10
10
60
80
80
FC
02
ENDCHAR
STARTCHAR 0541
ENCODING 1345
SWIDTH 480 0
DWIDTH 8 0
BBX 7 10 0 0
BITMAP
7C
7C
82
7E
02
02
62
9C
9C
72
ENDCHAR
STARTCHAR 0542
ENCODING 1346
SWIDTH 480 0
DWIDTH 8 0
BBX 7 11 0 -1
BITMAP
60
60
90
90
10
10
10
10
10
1C
02
ENDCHAR
STARTCHAR 0543
ENCODING 1347
SWIDTH 480 0
DWIDTH 8 0
BBX 7 10 0 0
BITMAP
0C
0C
02
EC
1C
1C
62
82
82
FE
ENDCHAR
STARTCHAR 0544
ENCODING 1348
SWIDTH 480 0
DWIDTH 8 0
BBX 7 10 0 0
BITMAP
9C
9C
92
90
90
90
90
90
90
60
ENDCHAR
STARTCHAR 0545
ENCODING 1349
SWIDTH 480 0
DWIDTH 8 0
BBX 7 10 0 0
BITMAP
7C
7C
82
02
FC
FC
02
82
82
7C
ENDCHAR
STARTCHAR 0546
ENCODING 1350
SWIDTH 480 0
DWIDTH 8 0
BBX 7 10 0 0
BITMAP
70
70
80
70
10
10
12
12
12
0C
ENDCHAR
STARTCHAR 0547
ENCODING 1351
SWIDTH 480 0
DWIDTH 8 0
BBX 7 10 0 0
BITMAP
72
72
9C
10
60
60
82
82
82
7C
ENDCHAR
STARTCHAR 0548
ENCODING 1352
SWIDTH 480 0
DWIDTH 8 0
BBX 7 10 0 0
BITMAP
7C
7C
82
82
82
82
82
82
82
82
ENDCHAR
STARTCHAR 0549
ENCODING 1353
SWIDTH 480 0
DWIDTH 8 0
BBX 7 11 0 -1
BITMAP
7C
7C
82
82
82
82
7E
0C
0C
F0
0E
ENDCHAR
STARTCHAR 054A
ENCODING 1354
SWIDTH 480 0
DWIDTH 8 0
BBX 7 10 0 0
BITMAP
7C
7C
92
92
12
12
12
02
02
02
ENDCHAR
STARTCHAR 054B
ENCODING 1355
SWIDTH 480 0
DWIDTH 8 0
BBX 7 11 0 -1
BITMAP
7C
7C
82
82
62
62
1E
0C
0C
FE
02
ENDCHAR
STARTCHAR 054C
ENCODING 1356
SWIDTH 480 0
DWIDTH 8 0
BBX 7 10 0 0
BITMAP
60
60
90
90
9C
9C
92
92
92
90
ENDCHAR
STARTCHAR 054D
ENCODING 1357
SWIDTH 480 0
DWIDTH 8 0
BBX 7 10 0 0
BITMAP
82
82
82
82
82
82
82
82
82
7C
ENDCHAR
STARTCHAR 054E
ENCODING 1358
SWIDTH 480 0
DWIDTH 8 0
BBX 7 11 0 -1
BITMAP
10
10
90
90
70
70
10
10
10
1C
02
ENDCHAR
STARTCHAR 054F
ENCODING 1359
SWIDTH 480 0
DWIDTH 8 0
BBX 7 10 0 0
BITMAP
7C
7C
82
80
7C
7C
02
82
82
7C
ENDCHAR
STARTCHAR 0550
ENCODING 1360
SWIDTH 480 0
DWIDTH 8 0
BBX 7 10 0 0
BITMAP
7C
7C
82
82
80
80
80
80
80
80
ENDCHAR
STARTCHAR 0551
ENCODING 1361
SWIDTH 480 0
DWIDTH 8 0
BBX 7 10 0 0
BITMAP
7C
7C
82
7C
82
82
02
82
82
7C
ENDCHAR
STARTCHAR 0552
ENCODING 1362
SWIDTH 480 0
DWIDTH 8 0
BBX 7 10 0 0
BITMAP
80
80
F0
8C
8C
8C
82
80
80
80
ENDCHAR
STARTCHAR 0553
ENCODING 1363
SWIDTH 480 0
DWIDTH 8 0
BBX 7 10 0 0
BITMAP
10
10
7C
92
92
92
92
7C
7C
10
ENDCHAR
STARTCHAR 0554
ENCODING 1364
SWIDTH 480 0
DWIDTH 8 0
BBX 7 10 0 0
BITMAP
0C
0C
12
12
9C
9C
7C
12
12
10
ENDCHAR
STARTCHAR 0555
ENCODING 1365
SWIDTH 480 0
DWIDTH 8 0
BBX 7 10 0 0
BITMAP
7C
7C
82
82
82
82
82
82
82
7C
ENDCHAR
STARTCHAR 0556
ENCODING 1366
SWIDTH 480 0
DWIDTH 8 0
BBX 7 10 0 0
BITMAP
70
70
90
90
7C
7C
12
92
92
7C
ENDCHAR
STARTCHAR 0559
ENCODING 1369
SWIDTH 480 0
DWIDTH 8 0
BBX 5 5 1 6
BITMAP
38
C0
C0
C0
38
ENDCHAR
STARTCHAR 055A
ENCODING 1370
SWIDTH 480 0
DWIDTH 8 0
BBX 3 5 3 6
BITMAP
E0
E0
E0
60
80
ENDCHAR
STARTCHAR 055B
ENCODING 1371
SWIDTH 480 0
DWIDTH 8 0
BBX 5 4 1 7
BITMAP
18
20
20
C0
ENDCHAR
STARTCHAR 055C
ENCODING 1372
SWIDTH 480 0
DWIDTH 8 0
BBX 7 3 0 7
BITMAP
72
72
9C
ENDCHAR
STARTCHAR 055D
ENCODING 1373
SWIDTH 480 0
DWIDTH 8 0
BBX 5 3 1 7
BITMAP
E0
E0
38
ENDCHAR
STARTCHAR 055E
ENCODING 1374
SWIDTH 480 0
DWIDTH 8 0
BBX 7 5 0 6
BITMAP
1C
62
62
62
8C
ENDCHAR
STARTCHAR 055F
ENCODING 1375
SWIDTH 480 0
DWIDTH 8 0
BBX 7 5 0 8
BITMAP
10
10
60
FE
FE
ENDCHAR
STARTCHAR 0560
ENCODING 1376
SWIDTH 480 0
DWIDTH 8 0
BBX 7 7 0 0
BITMAP
FE
92
92
92
92
92
92
ENDCHAR
STARTCHAR 0561
ENCODING 1377
SWIDTH 480 0
DWIDTH 8 0
BBX 7 7 0 0
BITMAP
92
92
92
92
92
92
FE
ENDCHAR
STARTCHAR 0562
ENCODING 1378
SWIDTH 480 0
DWIDTH 8 0
BBX 7 10 0 -3
BITMAP
FC
8C
8C
8C
8C
8C
FE
80
E0
E0
ENDCHAR
STARTCHAR 0563
ENCODING 1379
SWIDTH 480 0
DWIDTH 8 0
BBX 7 10 0 -3
BITMAP
FC
8C
8C
8C
8C
8C
FE
0C
0E
0E
ENDCHAR
STARTCHAR 0564
ENCODING 1380
SWIDTH 480 0
DWIDTH 8 0
BBX 7 10 0 -3
BITMAP
FC
8C
8C
8C
8C
8C
8E
0C
0E
0E
ENDCHAR
STARTCHAR 0565
ENCODING 1381
SWIDTH 480 0
DWIDTH 8 0
BBX 7 10 0 0
BITMAP
80
80
80
FE
80
80
82
82
82
FE
ENDCHAR
STARTCHAR 0566
ENCODING 1382
SWIDTH 480 0
DWIDTH 8 0
BBX 7 10 0 -3
BITMAP
FC
8C
8C
8C
8C
8C
FC
0C
0E
0E
ENDCHAR
STARTCHAR 0567
ENCODING 1383
SWIDTH 480 0
DWIDTH 8 0
BBX 7 13 0 -3
BITMAP
80
80
80
FE
80
80
80
80
80
FC
02
1C
1C
ENDCHAR
STARTCHAR 0568
ENCODING 1384
SWIDTH 480 0
DWIDTH 8 0
BBX 7 10 0 -3
BITMAP
FE
82
82
82
82
82
82
80
FE
FE
ENDCHAR
STARTCHAR 0569
ENCODING 1385
SWIDTH 480 0
DWIDTH 8 0
BBX 7 10 0 -3
BITMAP
FE
8E
8E
92
92
92
8C
80
E0
E0
ENDCHAR
STARTCHAR 056A
ENCODING 1386
SWIDTH 480 0
DWIDTH 8 0
BBX 7 10 0 0
BITMAP
10
10
10
7E
90
90
90
90
90
60
ENDCHAR
STARTCHAR 056B
ENCODING 1387
SWIDTH 480 0
DWIDTH 8 0
BBX 7 13 0 -3
BITMAP
80
80
80
FE
82
82
82
82
82
82
80
E0
E0
ENDCHAR
STARTCHAR 056C
ENCODING 1388
SWIDTH 480 0
DWIDTH 8 0
BBX 3 10 3 -3
BITMAP
80
80
80
80
80
80
80
80
E0
E0
ENDCHAR
STARTCHAR 056D
ENCODING 1389
SWIDTH 480 0
DWIDTH 8 0
BBX 7 13 0 -3
BITMAP
80
80
80
F2
92
92
92
92
92
9E
80
E0
E0
ENDCHAR
STARTCHAR 056E
ENCODING 1390
SWIDTH 480 0
DWIDTH 8 0
BBX 7 8 0 0
BITMAP
0C
10
0C
0C
7E
8C
8C
70
ENDCHAR
STARTCHAR 056F
ENCODING 1391
SWIDTH 480 0
DWIDTH 8 0
BBX 7 13 0 -3
BITMAP
80
80
80
8C
8C
8C
8C
8C
8C
FC
0C
0E
0E
ENDCHAR
STARTCHAR 0570
ENCODING 1392
SWIDTH 480 0
DWIDTH 8 0
BBX 7 13 0 -3
BITMAP
1C
1C
62
60
60
60
80
80
80
F0
0E
02
02
ENDCHAR
STARTCHAR 0571
ENCODING 1393
SWIDTH 480 0
DWIDTH 8 0
BBX 7 10 0 0
BITMAP
0C
0C
10
1C
70
70
8C
8C
8C
7E
ENDCHAR
STARTCHAR 0572
ENCODING 1394
SWIDTH 480 0
DWIDTH 8 0
BBX 7 10 0 -3
BITMAP
FC
8C
8C
8C
8C
8C
8C
0C
0E
0E
ENDCHAR
STARTCHAR 0573
ENCODING 1395
SWIDTH 480 0
DWIDTH 8 0
BBX 7 10 0 0
BITMAP
1C
1C
60
F0
6C
6C
82
82
82
FE
ENDCHAR
STARTCHAR 0574
ENCODING 1396
SWIDTH 480 0
DWIDTH 8 0
BBX 7 10 0 0
BITMAP
0E
0E
10
8E
82
82
82
82
82
FE
ENDCHAR
STARTCHAR 0575
ENCODING 1397
SWIDTH 480 0
DWIDTH 8 0
BBX 4 10 0 -3
BITMAP
10
10
10
10
10
10
10
90
60
60
ENDCHAR
STARTCHAR 0576
ENCODING 1398
SWIDTH 480 0
DWIDTH 8 0
BBX 7 10 0 0
BITMAP
70
70
80
62
62
62
62
62
62
7E
ENDCHAR
STARTCHAR 0577
ENCODING 1399
SWIDTH 480 0
DWIDTH 8 0
BBX 7 10 0 -3
BITMAP
10
0C
0C
0C
10
10
60
80
7E
7E
ENDCHAR
STARTCHAR 0578
ENCODING 1400
SWIDTH 480 0
DWIDTH 8 0
BBX 7 7 0 0
BITMAP
FE
82
82
82
82
82
82
ENDCHAR
STARTCHAR 0579
ENCODING 1401
SWIDTH 480 0
DWIDTH 8 0
BBX 7 13 0 -3
BITMAP
02
02
0C
10
0C
0C
0C
10
10
60
80
7E
7E
ENDCHAR
STARTCHAR 057A
ENCODING 1402
SWIDTH 480 0
DWIDTH 8 0
BBX 8 10 0 -3
BITMAP
92
92
92
92
92
92
FE
02
03
03
ENDCHAR
STARTCHAR 057B
ENCODING 1403
SWIDTH 480 0
DWIDTH 8 0
BBX 7 13 0 -3
BITMAP
1C
1C
62
62
12
12
0C
10
10
60
80
7E
7E
ENDCHAR
STARTCHAR 057C
ENCODING 1404
SWIDTH 480 0
DWIDTH 8 0
BBX 7 7 0 0
BITMAP
F0
90
90
90
90
90
9E
ENDCHAR
STARTCHAR 057D
ENCODING 1405
SWIDTH 480 0
DWIDTH 8 0
BBX 7 7 0 0
BITMAP
82
82
82
82
82
82
FE
ENDCHAR
STARTCHAR 057E
ENCODING 1406
SWIDTH 480 0
DWIDTH 8 0
BBX 7 13 0 -3
BITMAP
0C
0C
0C
8C
8C
8C
8C
8C
8C
FC
0C
0E
0E
ENDCHAR
STARTCHAR 057F
ENCODING 1407
SWIDTH 480 0
DWIDTH 8 0
BBX 7 7 0 0
BITMAP
9E
92
92
92
92
92
F2
ENDCHAR
STARTCHAR 0580
ENCODING 1408
SWIDTH 480 0
DWIDTH 8 0
BBX 7 10 0 -3
BITMAP
FE
82
82
82
82
82
82
80
E0
E0
ENDCHAR
STARTCHAR 0581
ENCODING 1409
SWIDTH 480 0
DWIDTH 8 0
BBX 7 10 0 -3
BITMAP
FE
82
82
82
82
82
FE
02
7C
7C
ENDCHAR
STARTCHAR 0582
ENCODING 1410
SWIDTH 480 0
DWIDTH 8 0
BBX 7 7 0 0
BITMAP
80
80
80
80
80
80
FE
ENDCHAR
STARTCHAR 0583
ENCODING 1411
SWIDTH 480 0
DWIDTH 8 0
BBX 7 13 0 -3
BITMAP
10
10
10
9E
92
92
92
92
92
F2
10
1C
1C
ENDCHAR
STARTCHAR 0584
ENCODING 1412
SWIDTH 480 0
DWIDTH 8 0
BBX 7 10 0 -3
BITMAP
1C
12
12
1C
90
90
7E
10
1C
1C
ENDCHAR
STARTCHAR 0585
ENCODING 1413
SWIDTH 480 0
DWIDTH 8 0
BBX 7 7 0 0
BITMAP
7C
82
82
82
82
82
7C
ENDCHAR
STARTCHAR 0586
ENCODING 1414
SWIDTH 480 0
DWIDTH 8 0
BBX 7 13 0 -3
BITMAP
70
70
90
90
7C
7C
12
92
92
7C
10
1C
1C
ENDCHAR
STARTCHAR 0587
ENCODING 1415
SWIDTH 480 0
DWIDTH 8 0
BBX 7 10 0 0
BITMAP
80
80
80
90
90
90
90
90
90
FE
ENDCHAR
STARTCHAR 0588
ENCODING 1416
SWIDTH 480 0
DWIDTH 8 0
BBX 6 10 0 -3
BITMAP
10
10
10
10
7C
7C
10
90
60
60
ENDCHAR
STARTCHAR 0589
ENCODING 1417
SWIDTH 480 0
DWIDTH 8 0
BBX 3 7 1 0
BITMAP
E0
E0
E0
00
E0
E0
E0
ENDCHAR
STARTCHAR 058A
ENCODING 1418
SWIDTH 480 0
DWIDTH 8 0
BBX 7 3 0 0
BITMAP
82
82
7C
ENDCHAR
STARTCHAR 058D
ENCODING 1421
SWIDTH 480 0
DWIDTH 8 0
BBX 7 7 0 1
BITMAP
70
6E
92
92
EC
1C
1C
ENDCHAR
STARTCHAR 058E
ENCODING 1422
SWIDTH 480 0
DWIDTH 8 0
BBX 7 7 0 1
BITMAP
1C
EC
92
92
6E
70
70
ENDCHAR
STARTCHAR 058F
ENCODING 1423
SWIDTH 480 0
DWIDTH 8 0
BBX 7 10 0 0
BITMAP
70
70
8C
1E
0C
0C
1E
0C
0C
0C
ENDCHAR
STARTCHAR 0591
ENCODING 1425
SWIDTH 0 0
DWIDTH 0 0
BBX 5 5 1 -6
BITMAP
20
20
20
D8
D8
ENDCHAR
STARTCHAR 0592
ENCODING 1426
SWIDTH 0 0
DWIDTH 0 0
BBX 7 3 0 11
BITMAP
10
92
82
ENDCHAR
STARTCHAR 0593
ENCODING 1427
SWIDTH 0 0
DWIDTH 0 0
BBX 5 6 1 11
BITMAP
38
38
E0
38
F8
E0
ENDCHAR
STARTCHAR 0594
ENCODING 1428
SWIDTH 0 0
DWIDTH 0 0
BBX 1 4 3 11
BITMAP
80
00
80
80
ENDCHAR
STARTCHAR 0595
ENCODING 1429
SWIDTH 0 0
DWIDTH 0 0
BBX 5 4 1 11
BITMAP
D8
C0
D8
D8
ENDCHAR
STARTCHAR 0596
ENCODING 1430
SWIDTH 0 0
DWIDTH 0 0
BBX 4 5 3 -6
BITMAP
80
80
80
70
70
ENDCHAR
STARTCHAR 0597
ENCODING 1431
SWIDTH 0 0
DWIDTH 0 0
BBX 5 4 1 11
BITMAP
20
F8
38
20
ENDCHAR
STARTCHAR 0598
ENCODING 1432
SWIDTH 0 0
DWIDTH 0 0
BBX 7 4 0 11
BITMAP
62
92
9E
8C
ENDCHAR
STARTCHAR 0599
ENCODING 1433
SWIDTH 0 0
DWIDTH 0 0
BBX 4 4 -3 11
BITMAP
E0
10
10
10
ENDCHAR
STARTCHAR 059A
ENCODING 1434
SWIDTH 0 0
DWIDTH 0 0
BBX 4 4 4 -4
BITMAP
10
E0
E0
10
ENDCHAR
STARTCHAR 059B
ENCODING 1435
SWIDTH 0 0
DWIDTH 0 0
BBX 4 5 0 -6
BITMAP
90
90
10
E0
E0
ENDCHAR
STARTCHAR 059C
ENCODING 1436
SWIDTH 0 0
DWIDTH 0 0
BBX 4 4 3 11
BITMAP
70
80
80
80
ENDCHAR
STARTCHAR 059D
ENCODING 1437
SWIDTH 0 0
DWIDTH 0 0
BBX 4 4 6 11
BITMAP
70
80
80
80
ENDCHAR
STARTCHAR 059E
ENCODING 1438
SWIDTH 0 0
DWIDTH 0 0
BBX 10 4 0 11
BITMAP
71C0
8200
8200
8200
ENDCHAR
STARTCHAR 059F
ENCODING 1439
SWIDTH 0 0
DWIDTH 0 0
BBX 4 4 3 11
BITMAP
60
90
90
E0
ENDCHAR
STARTCHAR 05A0
ENCODING 1440
SWIDTH 0 0
DWIDTH 0 0
BBX 4 6 3 11
BITMAP
60
60
90
E0
E0
80
ENDCHAR
STARTCHAR 05A1
ENCODING 1441
SWIDTH 0 0
DWIDTH 0 0
BBX 5 4 -1 11
BITMAP
48
70
F0
80
ENDCHAR
STARTCHAR 05A2
ENCODING 1442
SWIDTH 0 0
DWIDTH 0 0
BBX 5 5 1 -6
BITMAP
D8
D8
20
20
20
ENDCHAR
STARTCHAR 05A3
ENCODING 1443
SWIDTH 0 0
DWIDTH 0 0
BBX 4 5 0 -6
BITMAP
10
10
10
F0
F0
ENDCHAR
STARTCHAR 05A4
ENCODING 1444
SWIDTH 0 0
DWIDTH 0 0
BBX 4 5 0 -6
BITMAP
10
10
E0
10
10
ENDCHAR
STARTCHAR 05A5
ENCODING 1445
SWIDTH 0 0
DWIDTH 0 0
BBX 4 5 0 -6
BITMAP
10
10
10
E0
E0
ENDCHAR
STARTCHAR 05A6
ENCODING 1446
SWIDTH 0 0
DWIDTH 0 0
BBX 10 5 -3 -6
BITMAP
1040
1040
1040
E380
E380
ENDCHAR
STARTCHAR 05A7
ENCODING 1447
SWIDTH 0 0
DWIDTH 0 0
BBX 3 6 1 -7
BITMAP
E0
E0
C0
20
20
E0
ENDCHAR
STARTCHAR 05A8
ENCODING 1448
SWIDTH 0 0
DWIDTH 0 0
BBX 4 4 -1 11
BITMAP
C0
30
30
30
ENDCHAR
STARTCHAR 05A9
ENCODING 1449
SWIDTH 0 0
DWIDTH 0 0
BBX 4 4 -3 11
BITMAP
20
D0
F0
30
ENDCHAR
STARTCHAR 05AA
ENCODING 1450
SWIDTH 0 0
DWIDTH 0 0
BBX 7 3 0 -4
BITMAP
82
82
7C
ENDCHAR
STARTCHAR 05AB
ENCODING 1451
SWIDTH 0 0
DWIDTH 0 0
BBX 4 4 0 11
BITMAP
10
E0
F0
10
ENDCHAR
STARTCHAR 05AC
ENCODING 1452
SWIDTH 0 0
DWIDTH 0 0
BBX 5 4 1 11
BITMAP
18
18
F8
F8
ENDCHAR
STARTCHAR 05AD
ENCODING 1453
SWIDTH 0 0
DWIDTH 0 0
BBX 4 5 6 -6
BITMAP
80
80
80
70
70
ENDCHAR
STARTCHAR 05AE
ENCODING 1454
SWIDTH 0 0
DWIDTH 0 0
BBX 7 4 -6 11
BITMAP
22
DA
DE
C4
ENDCHAR
STARTCHAR 05AF
ENCODING 1455
SWIDTH 0 0
DWIDTH 0 0
BBX 4 4 0 11
BITMAP
60
90
F0
60
ENDCHAR
STARTCHAR 05B0
ENCODING 1456
SWIDTH 0 0
DWIDTH 0 0
BBX 1 5 3 -6
BITMAP
80
80
00
80
80
ENDCHAR
STARTCHAR 05B1
ENCODING 1457
SWIDTH 0 0
DWIDTH 0 0
BBX 7 5 0 -6
BITMAP
92
92
00
62
62
ENDCHAR
STARTCHAR 05B2
ENCODING 1458
SWIDTH 0 0
DWIDTH 0 0
BBX 7 5 0 -6
BITMAP
F2
F2
00
02
02
ENDCHAR
STARTCHAR 05B3
ENCODING 1459
SWIDTH 0 0
DWIDTH 0 0
BBX 7 5 0 -6
BITMAP
F2
F2
60
62
62
ENDCHAR
STARTCHAR 05B4
ENCODING 1460
SWIDTH 0 0
DWIDTH 0 0
BBX 1 2 3 -3
BITMAP
80
80
ENDCHAR
STARTCHAR 05B5
ENCODING 1461
SWIDTH 0 0
DWIDTH 0 0
BBX 5 2 1 -3
BITMAP
D8
D8
ENDCHAR
STARTCHAR 05B6
ENCODING 1462
SWIDTH 0 0
DWIDTH 0 0
BBX 5 5 1 -6
BITMAP
D8
D8
00
20
20
ENDCHAR
STARTCHAR 05B7
ENCODING 1463
SWIDTH 0 0
DWIDTH 0 0
BBX 5 2 1 -3
BITMAP
F8
F8
ENDCHAR
STARTCHAR 05B8
ENCODING 1464
SWIDTH 0 0
DWIDTH 0 0
BBX 5 3 1 -4
BITMAP
F8
F8
20
ENDCHAR
STARTCHAR 05B9
ENCODING 1465
SWIDTH 0 0
DWIDTH 0 0
BBX 1 2 0 11
BITMAP
80
80
ENDCHAR
STARTCHAR 05BA
ENCODING 1466
SWIDTH 0 0
DWIDTH 0 0
BBX 1 2 0 11
BITMAP
80
80
ENDCHAR
STARTCHAR 05BB
ENCODING 1467
SWIDTH 0 0
DWIDTH 0 0
BBX 7 5 0 -6
BITMAP
80
80
10
02
02
ENDCHAR
STARTCHAR 05BC
ENCODING 1468
SWIDTH 0 0
DWIDTH 0 0
BBX 1 2 3 4
BITMAP
80
80
ENDCHAR
STARTCHAR 05BD
ENCODING 1469
SWIDTH 0 0
DWIDTH 0 0
BBX 1 3 3 -4
BITMAP
80
80
80
ENDCHAR
STARTCHAR 05BE
ENCODING 1470
SWIDTH 480 0
DWIDTH 8 0
BBX 7 3 0 7
BITMAP
7E
7E
FC
ENDCHAR
STARTCHAR 05BF
ENCODING 1471
SWIDTH 0 0
DWIDTH 0 0
BBX 4 2 0 11
BITMAP
F0
F0
ENDCHAR
STARTCHAR 05C0
ENCODING 1472
SWIDTH 480 0
DWIDTH 8 0
BBX 1 12 3 -1
BITMAP
80
80
80
80
80
80
80
80
80
80
80
80
ENDCHAR
STARTCHAR 05C1
ENCODING 1473
SWIDTH 0 0
DWIDTH 0 0
BBX 1 2 6 11
BITMAP
80
80
ENDCHAR
STARTCHAR 05C2
ENCODING 1474
SWIDTH 0 0
DWIDTH 0 0
BBX 1 2 0 11
BITMAP
80
80
ENDCHAR
STARTCHAR 05C3
ENCODING 1475
SWIDTH 480 0
DWIDTH 8 0
BBX 3 7 1 0
BITMAP
E0
E0
E0
00
E0
E0
E0
ENDCHAR
STARTCHAR 05C4
ENCODING 1476
SWIDTH 0 0
DWIDTH 0 0
BBX 2 2 1 11
BITMAP
C0
C0
ENDCHAR
STARTCHAR 05C5
ENCODING 1477
SWIDTH 0 0
DWIDTH 0 0
BBX 1 2 3 -3
BITMAP
80
80
ENDCHAR
STARTCHAR 05C6
ENCODING 1478
SWIDTH 480 0
DWIDTH 8 0
BBX 6 11 1 0
BITMAP
04
3C
3C
E0
E0
E0
E0
E0
E0
E0
3C
ENDCHAR
STARTCHAR 05C7
ENCODING 1479
SWIDTH 0 0
DWIDTH 0 0
BBX 5 3 1 -4
BITMAP
F8
F8
20
ENDCHAR
STARTCHAR 05D0
ENCODING 1488
SWIDTH 480 0
DWIDTH 8 0
BBX 7 11 0 0
BITMAP
10
8E
8E
8C
6C
90
90
8C
62
62
E2
ENDCHAR
STARTCHAR 05D1
ENCODING 1489
SWIDTH 480 0
DWIDTH 8 0
BBX 7 11 0 0
BITMAP
80
7C
7C
02
02
02
02
02
0C
0C
FE
ENDCHAR
STARTCHAR 05D2
ENCODING 1490
SWIDTH 480 0
DWIDTH 8 0
BBX 6 11 1 0
BITMAP
C0
38
38
18
18
18
18
18
18
18
E4
ENDCHAR
STARTCHAR 05D3
ENCODING 1491
SWIDTH 480 0
DWIDTH 8 0
BBX 7 11 0 0
BITMAP
80
7E
7E
0C
02
02
02
02
02
02
02
ENDCHAR
STARTCHAR 05D4
ENCODING 1492
SWIDTH 480 0
DWIDTH 8 0
BBX 7 11 0 0
BITMAP
80
7E
7E
0C
82
82
82
82
82
82
82
ENDCHAR
STARTCHAR 05D5
ENCODING 1493
SWIDTH 480 0
DWIDTH 8 0
BBX 5 11 1 0
BITMAP
C0
38
38
18
18
18
18
18
18
18
18
ENDCHAR
STARTCHAR 05D6
ENCODING 1494
SWIDTH 480 0
DWIDTH 8 0
BBX 6 11 1 0
BITMAP
C0
3C
3C
18
20
20
20
20
20
20
20
ENDCHAR
STARTCHAR 05D7
ENCODING 1495
SWIDTH 480 0
DWIDTH 8 0
BBX 7 11 0 0
BITMAP
80
7E
7E
8C
82
82
82
82
82
82
82
ENDCHAR
STARTCHAR 05D8
ENCODING 1496
SWIDTH 480 0
DWIDTH 8 0
BBX 7 11 0 0
BITMAP
80
6C
6C
92
92
92
92
82
6C
6C
7C
ENDCHAR
STARTCHAR 05D9
ENCODING 1497
SWIDTH 480 0
DWIDTH 8 0
BBX 5 5 1 6
BITMAP
C0
38
38
18
20
ENDCHAR
STARTCHAR 05DA
ENCODING 1498
SWIDTH 480 0
DWIDTH 8 0
BBX 7 14 0 -3
BITMAP
80
7E
7E
02
02
02
02
02
02
02
02
02
02
02
ENDCHAR
STARTCHAR 05DB
ENCODING 1499
SWIDTH 480 0
DWIDTH 8 0
BBX 7 11 0 0
BITMAP
80
7C
7C
02
02
02
02
02
02
02
FC
ENDCHAR
STARTCHAR 05DC
ENCODING 1500
SWIDTH 480 0
DWIDTH 8 0
BBX 7 14 0 -3
BITMAP
80
70
70
80
80
FE
FE
02
02
02
0C
10
10
10
ENDCHAR
STARTCHAR 05DD
ENCODING 1501
SWIDTH 480 0
DWIDTH 8 0
BBX 7 11 0 0
BITMAP
80
7C
7C
82
82
82
82
82
8C
8C
FE
ENDCHAR
STARTCHAR 05DE
ENCODING 1502
SWIDTH 480 0
DWIDTH 8 0
BBX 7 11 0 0
BITMAP
80
6C
6C
72
62
82
82
82
82
82
9E
ENDCHAR
STARTCHAR 05DF
ENCODING 1503
SWIDTH 480 0
DWIDTH 8 0
BBX 5 14 1 -3
BITMAP
C0
38
38
18
18
18
18
18
18
18
18
18
18
18
ENDCHAR
STARTCHAR 05E0
ENCODING 1504
SWIDTH 480 0
DWIDTH 8 0
BBX 6 11 1 0
BITMAP
C0
38
38
18
18
18
18
18
04
04
FC
ENDCHAR
STARTCHAR 05E1
ENCODING 1505
SWIDTH 480 0
DWIDTH 8 0
BBX 7 11 0 0
BITMAP
80
7E
7E
82
82
82
82
82
82
82
7C
ENDCHAR
STARTCHAR 05E2
ENCODING 1506
SWIDTH 480 0
DWIDTH 8 0
BBX 7 14 0 -3
BITMAP
8C
62
62
82
8C
8C
8C
6C
6C
6C
10
60
80
80
ENDCHAR
STARTCHAR 05E3
ENCODING 1507
SWIDTH 480 0
DWIDTH 8 0
BBX 7 14 0 -3
BITMAP
80
7E
7E
6C
E2
12
12
02
02
02
02
02
02
02
ENDCHAR
STARTCHAR 05E4
ENCODING 1508
SWIDTH 480 0
DWIDTH 8 0
BBX 7 11 0 0
BITMAP
80
7E
7E
6C
E2
12
12
02
02
02
FC
ENDCHAR
STARTCHAR 05E5
ENCODING 1509
SWIDTH 480 0
DWIDTH 8 0
BBX 7 14 0 -3
BITMAP
8C
62
62
8C
90
90
90
E0
E0
E0
80
80
80
80
ENDCHAR
STARTCHAR 05E6
ENCODING 1510
SWIDTH 480 0
DWIDTH 8 0
BBX 7 11 0 0
BITMAP
8C
62
62
8C
70
10
10
0C
02
02
FC
ENDCHAR
STARTCHAR 05E7
ENCODING 1511
SWIDTH 480 0
DWIDTH 8 0
BBX 7 14 0 -3
BITMAP
80
7C
7C
02
82
82
82
8C
90
90
90
80
80
80
ENDCHAR
STARTCHAR 05E8
ENCODING 1512
SWIDTH 480 0
DWIDTH 8 0
BBX 7 11 0 0
BITMAP
80
7C
7C
02
02
02
02
02
02
02
02
ENDCHAR
STARTCHAR 05E9
ENCODING 1513
SWIDTH 480 0
DWIDTH 8 0
BBX 8 11 0 0
BITMAP
92
6D
6D
92
92
92
92
EC
6C
6C
70
ENDCHAR
STARTCHAR 05EA
ENCODING 1514
SWIDTH 480 0
DWIDTH 8 0
BBX 7 11 0 0
BITMAP
80
7C
7C
62
82
82
82
82
62
62
E2
ENDCHAR
STARTCHAR 05EF
ENCODING 1519
SWIDTH 480 0
DWIDTH 8 0
BBX 7 9 0 4
BITMAP
60
60
1C
8C
8C
7E
12
6C
6C
ENDCHAR
STARTCHAR 05F0
ENCODING 1520
SWIDTH 480 0
DWIDTH 8 0
BBX 7 11 0 0
BITMAP
90
7E
7E
12
12
12
12
12
12
12
12
ENDCHAR
STARTCHAR 05F1
ENCODING 1521
SWIDTH 480 0
DWIDTH 8 0
BBX 7 11 0 0
BITMAP
90
7E
7E
12
62
02
02
02
02
02
02
ENDCHAR
STARTCHAR 05F2
ENCODING 1522
SWIDTH 480 0
DWIDTH 8 0
BBX 7 5 0 6
BITMAP
90
7E
7E
12
6C
ENDCHAR
STARTCHAR 05F3
ENCODING 1523
SWIDTH 480 0
DWIDTH 8 0
BBX 3 6 1 7
BITMAP
20
20
20
C0
C0
C0
ENDCHAR
STARTCHAR 05F4
ENCODING 1524
SWIDTH 480 0
DWIDTH 8 0
BBX 6 6 1 7
BITMAP
24
24
24
D8
D8
D8
ENDCHAR
STARTCHAR 07C0
ENCODING 1984
SWIDTH 480 0
DWIDTH 8 0
BBX 7 10 0 0
BITMAP
7C
7C
82
82
82
82
82
82
82
7C
ENDCHAR
STARTCHAR 07C1
ENCODING 1985
SWIDTH 480 0
DWIDTH 8 0
BBX 7 10 0 0
BITMAP
10
10
1C
12
10
10
10
10
10
FE
ENDCHAR
STARTCHAR 07C2
ENCODING 1986
SWIDTH 480 0
DWIDTH 8 0
BBX 7 10 0 0
BITMAP
82
82
82
FE
80
80
80
80
80
80
ENDCHAR
STARTCHAR 07C3
ENCODING 1987
SWIDTH 480 0
DWIDTH 8 0
BBX 7 10 0 0
BITMAP
02
02
02
02
FE
FE
02
02
02
FE
ENDCHAR
STARTCHAR 07C4
ENCODING 1988
SWIDTH 480 0
DWIDTH 8 0
BBX 7 10 0 0
BITMAP
02
02
02
02
FE
FE
80
80
80
FE
ENDCHAR
STARTCHAR 07C5
ENCODING 1989
SWIDTH 480 0
DWIDTH 8 0
BBX 7 10 0 0
BITMAP
80
80
80
80
FE
FE
80
80
80
80
ENDCHAR
STARTCHAR 07C6
ENCODING 1990
SWIDTH 480 0
DWIDTH 8 0
BBX 7 10 0 0
BITMAP
80
80
80
80
FE
FE
02
02
02
02
ENDCHAR
STARTCHAR 07C7
ENCODING 1991
SWIDTH 480 0
DWIDTH 8 0
BBX 7 10 0 0
BITMAP
80
80
80
82
8C
8C
90
E0
E0
80
ENDCHAR
STARTCHAR 07C8
ENCODING 1992
SWIDTH 480 0
DWIDTH 8 0
BBX 7 10 0 0
BITMAP
80
80
80
FE
8C
8C
90
E0
E0
80
ENDCHAR
STARTCHAR 07C9
ENCODING 1993
SWIDTH 480 0
DWIDTH 8 0
BBX 7 10 0 0
BITMAP
7C
7C
82
82
7C
7C
10
10
10
10
ENDCHAR
STARTCHAR 07CA
ENCODING 1994
SWIDTH 480 0
DWIDTH 8 0
BBX 1 10 3 0
BITMAP
80
80
80
80
80
80
80
80
80
80
ENDCHAR
STARTCHAR 07CB
ENCODING 1995
SWIDTH 480 0
DWIDTH 8 0
BBX 7 7 0 1
BITMAP
7C
82
82
82
82
7C
7C
ENDCHAR
STARTCHAR 07CC
ENCODING 1996
SWIDTH 480 0
DWIDTH 8 0
BBX 7 10 0 0
BITMAP
82
82
6C
10
10
10
10
10
10
10
ENDCHAR
STARTCHAR 07CD
ENCODING 1997
SWIDTH 480 0
DWIDTH 8 0
BBX 7 7 0 1
BITMAP
10
10
6C
6C
6C
82
82
ENDCHAR
STARTCHAR 07CE
ENCODING 1998
SWIDTH 480 0
DWIDTH 8 0
BBX 7 7 0 1
BITMAP
82
82
82
82
82
FE
FE
ENDCHAR
STARTCHAR 07CF
ENCODING 1999
SWIDTH 480 0
DWIDTH 8 0
BBX 7 7 0 1
BITMAP
FE
02
02
02
02
FE
FE
ENDCHAR
STARTCHAR 07D0
ENCODING 2000
SWIDTH 480 0
DWIDTH 8 0
BBX 7 10 0 0
BITMAP
7C
7C
82
82
7C
7C
10
10
10
FE
ENDCHAR
STARTCHAR 07D1
ENCODING 2001
SWIDTH 480 0
DWIDTH 8 0
BBX 7 10 0 0
BITMAP
1C
1C
60
7C
1C
1C
00
00
00
FE
ENDCHAR
STARTCHAR 07D2
ENCODING 2002
SWIDTH 480 0
DWIDTH 8 0
BBX 7 10 0 0
BITMAP
60
60
90
90
7E
7E
12
02
02
02
ENDCHAR
STARTCHAR 07D3
ENCODING 2003
SWIDTH 480 0
DWIDTH 8 0
BBX 7 10 0 0
BITMAP
FE
FE
80
80
FE
FE
80
80
80
80
ENDCHAR
STARTCHAR 07D4
ENCODING 2004
SWIDTH 480 0
DWIDTH 8 0
BBX 7 10 0 0
BITMAP
FE
FE
02
02
FE
FE
02
02
02
02
ENDCHAR
STARTCHAR 07D5
ENCODING 2005
SWIDTH 480 0
DWIDTH 8 0
BBX 7 10 0 0
BITMAP
80
80
80
FC
82
82
82
82
82
FC
ENDCHAR
STARTCHAR 07D6
ENCODING 2006
SWIDTH 480 0
DWIDTH 8 0
BBX 7 10 0 0
BITMAP
FE
FE
60
10
10
10
0C
0C
0C
0C
ENDCHAR
STARTCHAR 07D7
ENCODING 2007
SWIDTH 480 0
DWIDTH 8 0
BBX 5 10 1 0
BITMAP
18
18
38
D8
18
18
18
18
18
18
ENDCHAR
STARTCHAR 07D8
ENCODING 2008
SWIDTH 480 0
DWIDTH 8 0
BBX 7 7 0 1
BITMAP
6C
92
92
92
92
FE
FE
ENDCHAR
STARTCHAR 07D9
ENCODING 2009
SWIDTH 480 0
DWIDTH 8 0
BBX 7 10 0 0
BITMAP
10
10
10
FE
10
10
10
10
10
10
ENDCHAR
STARTCHAR 07DA
ENCODING 2010
SWIDTH 480 0
DWIDTH 8 0
BBX 7 10 0 0
BITMAP
6C
6C
6C
FE
6C
6C
6C
6C
6C
7C
ENDCHAR
STARTCHAR 07DB
ENCODING 2011
SWIDTH 480 0
DWIDTH 8 0
BBX 7 7 0 1
BITMAP
FE
82
82
82
82
FE
FE
ENDCHAR
STARTCHAR 07DC
ENCODING 2012
SWIDTH 480 0
DWIDTH 8 0
BBX 7 10 0 0
BITMAP
FE
FE
82
6C
6C
6C
6C
10
10
10
ENDCHAR
STARTCHAR 07DD
ENCODING 2013
SWIDTH 480 0
DWIDTH 8 0
BBX 7 10 0 0
BITMAP
0C
0C
12
12
FC
FC
90
90
90
F0
ENDCHAR
STARTCHAR 07DE
ENCODING 2014
SWIDTH 480 0
DWIDTH 8 0
BBX 7 10 0 0
BITMAP
82
82
82
FE
82
82
82
02
02
02
ENDCHAR
STARTCHAR 07DF
ENCODING 2015
SWIDTH 480 0
DWIDTH 8 0
BBX 7 10 0 0
BITMAP
70
70
8C
8C
7E
7E
0C
0C
0C
0C
ENDCHAR
STARTCHAR 07E0
ENCODING 2016
SWIDTH 480 0
DWIDTH 8 0
BBX 7 10 0 0
BITMAP
FE
FE
10
10
10
10
10
10
10
10
ENDCHAR
STARTCHAR 07E1
ENCODING 2017
SWIDTH 480 0
DWIDTH 8 0
BBX 7 10 0 0
BITMAP
10
10
10
6C
6C
6C
6C
82
82
FE
ENDCHAR
STARTCHAR 07E2
ENCODING 2018
SWIDTH 480 0
DWIDTH 8 0
BBX 7 10 0 0
BITMAP
F0
F0
10
7C
82
82
7C
10
10
10
ENDCHAR
STARTCHAR 07E3
ENCODING 2019
SWIDTH 480 0
DWIDTH 8 0
BBX 7 10 0 0
BITMAP
FE
FE
82
82
02
02
02
02
02
02
ENDCHAR
STARTCHAR 07E4
ENCODING 2020
SWIDTH 480 0
DWIDTH 8 0
BBX 7 10 0 0
BITMAP
80
80
80
FE
82
82
82
02
02
02
ENDCHAR
STARTCHAR 07E5
ENCODING 2021
SWIDTH 480 0
DWIDTH 8 0
BBX 7 10 0 0
BITMAP
FE
FE
02
02
FE
FE
82
82
82
FE
ENDCHAR
STARTCHAR 07E6
ENCODING 2022
SWIDTH 480 0
DWIDTH 8 0
BBX 7 10 0 0
BITMAP
10
10
10
7C
82
82
7C
10
10
10
ENDCHAR
STARTCHAR 07E7
ENCODING 2023
SWIDTH 480 0
DWIDTH 8 0
BBX 7 10 0 0
BITMAP
FE
FE
10
7C
82
82
7C
10
10
10
ENDCHAR
STARTCHAR 07E8
ENCODING 2024
SWIDTH 480 0
DWIDTH 8 0
BBX 7 13 0 -3
BITMAP
02
02
02
7C
0C
0C
10
10
10
62
8C
70
70
ENDCHAR
STARTCHAR 07E9
ENCODING 2025
SWIDTH 480 0
DWIDTH 8 0
BBX 7 13 0 -3
BITMAP
02
02
02
7C
0C
0C
10
1C
1C
62
8C
70
70
ENDCHAR
STARTCHAR 07EA
ENCODING 2026
SWIDTH 480 0
DWIDTH 8 0
BBX 7 10 0 -3
BITMAP
10
10
10
FE
10
10
10
10
10
10
ENDCHAR
STARTCHAR 07EB
ENCODING 2027
SWIDTH 0 0
DWIDTH 0 0
BBX 7 2 -8 11
BITMAP
FE
FE
ENDCHAR
STARTCHAR 07EC
ENCODING 2028
SWIDTH 0 0
DWIDTH 0 0
BBX 7 3 -8 11
BITMAP
76
B6
B8
ENDCHAR
STARTCHAR 07ED
ENCODING 2029
SWIDTH 0 0
DWIDTH 0 0
BBX 2 2 -6 11
BITMAP
C0
C0
ENDCHAR
STARTCHAR 07EE
ENCODING 2030
SWIDTH 0 0
DWIDTH 0 0
BBX 4 3 -7 11
BITMAP
60
F0
90
ENDCHAR
STARTCHAR 07EF
ENCODING 2031
SWIDTH 0 0
DWIDTH 0 0
BBX 7 4 -8 11
BITMAP
30
08
F8
FE
ENDCHAR
STARTCHAR 07F0
ENCODING 2032
SWIDTH 0 0
DWIDTH 0 0
BBX 7 3 -8 11
BITMAP
B8
FE
76
ENDCHAR
STARTCHAR 07F1
ENCODING 2033
SWIDTH 0 0
DWIDTH 0 0
BBX 7 4 -8 11
BITMAP
30
40
C0
FE
ENDCHAR
STARTCHAR 07F2
ENCODING 2034
SWIDTH 0 0
DWIDTH 0 0
BBX 2 2 -6 -3
BITMAP
C0
C0
ENDCHAR
STARTCHAR 07F3
ENCODING 2035
SWIDTH 0 0
DWIDTH 0 0
BBX 4 2 -7 11
BITMAP
90
90
ENDCHAR
STARTCHAR 07F4
ENCODING 2036
SWIDTH 480 0
DWIDTH 8 0
BBX 5 6 1 4
BITMAP
E0
E0
F8
18
E0
E0
ENDCHAR
STARTCHAR 07F5
ENCODING 2037
SWIDTH 480 0
DWIDTH 8 0
BBX 5 6 1 4
BITMAP
38
38
C0
F8
38
38
ENDCHAR
STARTCHAR 07F6
ENCODING 2038
SWIDTH 480 0
DWIDTH 8 0
BBX 7 10 0 0
BITMAP
7C
7C
82
82
7C
7C
10
60
60
FE
ENDCHAR
STARTCHAR 07F7
ENCODING 2039
SWIDTH 480 0
DWIDTH 8 0
BBX 7 8 0 0
BITMAP
10
6C
6C
6C
92
92
92
6C
ENDCHAR
STARTCHAR 07F8
ENCODING 2040
SWIDTH 480 0
DWIDTH 8 0
BBX 7 6 0 0
BITMAP
10
10
00
00
00
FE
ENDCHAR
STARTCHAR 07F9
ENCODING 2041
SWIDTH 480 0
DWIDTH 8 0
BBX 7 7 0 3
BITMAP
FE
FE
00
10
00
00
10
ENDCHAR
STARTCHAR 07FA
ENCODING 2042
SWIDTH 480 0
DWIDTH 8 0
BBX 7 1 0 0
BITMAP
FE
ENDCHAR
STARTCHAR 07FD
ENCODING 2045
SWIDTH 0 0
DWIDTH 0 0
BBX 7 3 -8 -4
BITMAP
FE
FE
86
ENDCHAR
STARTCHAR 07FE
ENCODING 2046
SWIDTH 480 0
DWIDTH 8 0
BBX 7 10 0 0
BITMAP
6C
6C
92
92
FE
FE
10
7C
7C
10
ENDCHAR
STARTCHAR 07FF
ENCODING 2047
SWIDTH 480 0
DWIDTH 8 0
BBX 7 10 0 0
BITMAP
60
60
F0
60
7C
7C
62
62
62
7C
ENDCHAR
STARTCHAR 0E01
ENCODING 3585
SWIDTH 480 0
DWIDTH 8 0
BBX 7 7 0 0
BITMAP
7C
82
82
62
82
82
82
ENDCHAR
STARTCHAR 0E02
ENCODING 3586
SWIDTH 480 0
DWIDTH 8 0
BBX 7 7 0 0
BITMAP
E2
92
92
62
62
62
FC
ENDCHAR
STARTCHAR 0E03
ENCODING 3587
SWIDTH 480 0
DWIDTH 8 0
BBX 8 7 -1 0
BITMAP
F1
89
89
31
31
31
7E
ENDCHAR
STARTCHAR 0E04
ENCODING 3588
SWIDTH 480 0
DWIDTH 8 0
BBX 7 7 0 0
BITMAP
7C
82
82
F2
E2
E2
62
ENDCHAR
STARTCHAR 0E05
ENCODING 3589
SWIDTH 480 0
DWIDTH 8 0
BBX 7 7 0 0
BITMAP
6C
92
92
F2
E2
E2
62
ENDCHAR
STARTCHAR 0E06
ENCODING 3590
SWIDTH 480 0
DWIDTH 8 0
BBX 7 7 0 0
BITMAP
E2
92
92
62
F2
F2
EE
ENDCHAR
STARTCHAR 0E07
ENCODING 3591
SWIDTH 480 0
DWIDTH 8 0
BBX 6 7 1 0
BITMAP
1C
C4
C4
24
1C
1C
04
ENDCHAR
STARTCHAR 0E08
ENCODING 3592
SWIDTH 480 0
DWIDTH 8 0
BBX 7 7 0 0
BITMAP
7C
82
82
1E
0E
0E
02
ENDCHAR
STARTCHAR 0E09
ENCODING 3593
SWIDTH 480 0
DWIDTH 8 0
BBX 7 7 0 0
BITMAP
70
0C
0C
EC
7E
7E
6E
ENDCHAR
STARTCHAR 0E0A
ENCODING 3594
SWIDTH 480 0
DWIDTH 8 0
BBX 7 10 0 0
BITMAP
02
02
0C
EE
92
92
62
62
62
FC
ENDCHAR
STARTCHAR 0E0B
ENCODING 3595
SWIDTH 480 0
DWIDTH 8 0
BBX 8 10 -1 0
BITMAP
01
01
06
F7
89
89
31
31
31
7E
ENDCHAR
STARTCHAR 0E0C
ENCODING 3596
SWIDTH 480 0
DWIDTH 8 0
BBX 7 7 0 0
BITMAP
62
92
92
72
9E
9E
92
ENDCHAR
STARTCHAR 0E0D
ENCODING 3597
SWIDTH 480 0
DWIDTH 8 0
BBX 7 11 0 -4
BITMAP
62
92
92
72
92
92
9E
00
12
12
1C
ENDCHAR
STARTCHAR 0E0E
ENCODING 3598
SWIDTH 480 0
DWIDTH 8 0
BBX 7 11 0 -4
BITMAP
1C
62
62
12
62
62
E2
02
7E
7E
72
ENDCHAR
STARTCHAR 0E0F
ENCODING 3599
SWIDTH 480 0
DWIDTH 8 0
BBX 7 11 0 -4
BITMAP
1C
62
62
12
62
62
E2
02
EE
EE
F2
ENDCHAR
STARTCHAR 0E10
ENCODING 3600
SWIDTH 480 0
DWIDTH 8 0
BBX 7 17 0 -6
BITMAP
72
9C
9C
80
FC
82
82
1E
0E
0E
02
00
0E
0E
E2
9E
9E
ENDCHAR
STARTCHAR 0E11
ENCODING 3601
SWIDTH 480 0
DWIDTH 8 0
BBX 7 7 0 0
BITMAP
EC
72
72
72
E2
E2
E2
ENDCHAR
STARTCHAR 0E12
ENCODING 3602
SWIDTH 480 0
DWIDTH 8 0
BBX 7 7 0 0
BITMAP
92
F2
F2
92
FE
FE
92
ENDCHAR
STARTCHAR 0E13
ENCODING 3603
SWIDTH 480 0
DWIDTH 8 0
BBX 8 7 0 0
BITMAP
62
92
92
72
9E
9E
93
ENDCHAR
STARTCHAR 0E14
ENCODING 3604
SWIDTH 480 0
DWIDTH 8 0
BBX 7 7 0 0
BITMAP
7C
82
82
92
72
72
62
ENDCHAR
STARTCHAR 0E15
ENCODING 3605
SWIDTH 480 0
DWIDTH 8 0
BBX 7 7 0 0
BITMAP
6C
92
92
82
72
72
62
ENDCHAR
STARTCHAR 0E16
ENCODING 3606
SWIDTH 480 0
DWIDTH 8 0
BBX 7 7 0 0
BITMAP
7C
82
82
62
82
82
E2
ENDCHAR
STARTCHAR 0E17
ENCODING 3607
SWIDTH 480 0
DWIDTH 8 0
BBX 7 7 0 0
BITMAP
EC
72
72
72
62
62
62
ENDCHAR
STARTCHAR 0E18
ENCODING 3608
SWIDTH 480 0
DWIDTH 8 0
BBX 7 11 0 0
BITMAP
72
9C
9C
80
FC
62
62
62
62
62
FC
ENDCHAR
STARTCHAR 0E19
ENCODING 3609
SWIDTH 480 0
DWIDTH 8 0
BBX 7 7 0 0
BITMAP
EC
6C
6C
6C
7E
7E
6E
ENDCHAR
STARTCHAR 0E1A
ENCODING 3610
SWIDTH 480 0
DWIDTH 8 0
BBX 7 7 0 0
BITMAP
E2
62
62
62
62
62
FC
ENDCHAR
STARTCHAR 0E1B
ENCODING 3611
SWIDTH 480 0
DWIDTH 8 0
BBX 7 10 0 0
BITMAP
02
02
02
E2
62
62
62
62
62
FC
ENDCHAR
STARTCHAR 0E1C
ENCODING 3612
SWIDTH 480 0
DWIDTH 8 0
BBX 7 7 0 0
BITMAP
E2
82
82
92
EE
EE
82
ENDCHAR
STARTCHAR 0E1D
ENCODING 3613
SWIDTH 480 0
DWIDTH 8 0
BBX 7 10 0 0
BITMAP
02
02
02
E2
82
82
92
EE
EE
82
ENDCHAR
STARTCHAR 0E1E
ENCODING 3614
SWIDTH 480 0
DWIDTH 8 0
BBX 8 7 -1 0
BITMAP
C1
41
41
49
77
77
41
ENDCHAR
STARTCHAR 0E1F
ENCODING 3615
SWIDTH 480 0
DWIDTH 8 0
BBX 8 10 -1 0
BITMAP
01
01
01
C1
41
41
49
77
77
41
ENDCHAR
STARTCHAR 0E20
ENCODING 3616
SWIDTH 480 0
DWIDTH 8 0
BBX 7 7 0 0
BITMAP
1C
62
62
12
62
62
E2
ENDCHAR
STARTCHAR 0E21
ENCODING 3617
SWIDTH 480 0
DWIDTH 8 0
BBX 7 7 0 0
BITMAP
E2
62
62
62
F2
F2
EE
ENDCHAR
STARTCHAR 0E22
ENCODING 3618
SWIDTH 480 0
DWIDTH 8 0
BBX 7 7 0 0
BITMAP
E2
82
82
62
82
82
7C
ENDCHAR
STARTCHAR 0E23
ENCODING 3619
SWIDTH 480 0
DWIDTH 8 0
BBX 7 11 0 0
BITMAP
72
9C
9C
80
F0
0C
0C
0C
0C
0C
1C
ENDCHAR
STARTCHAR 0E24
ENCODING 3620
SWIDTH 480 0
DWIDTH 8 0
BBX 7 10 0 -3
BITMAP
7C
82
82
62
82
82
E2
02
02
02
ENDCHAR
STARTCHAR 0E25
ENCODING 3621
SWIDTH 480 0
DWIDTH 8 0
BBX 7 7 0 0
BITMAP
FC
02
02
72
8E
8E
E2
ENDCHAR
STARTCHAR 0E26
ENCODING 3622
SWIDTH 480 0
DWIDTH 8 0
BBX 7 10 0 -3
BITMAP
1C
62
62
12
62
62
E2
02
02
02
ENDCHAR
STARTCHAR 0E27
ENCODING 3623
SWIDTH 480 0
DWIDTH 8 0
BBX 7 7 0 0
BITMAP
7C
82
82
02
02
02
0E
ENDCHAR
STARTCHAR 0E28
ENCODING 3624
SWIDTH 480 0
DWIDTH 8 0
BBX 7 8 0 0
BITMAP
0C
7C
92
92
82
F2
F2
62
ENDCHAR
STARTCHAR 0E29
ENCODING 3625
SWIDTH 480 0
DWIDTH 8 0
BBX 8 7 0 0
BITMAP
E2
6E
6E
6F
62
62
FC
ENDCHAR
STARTCHAR 0E2A
ENCODING 3626
SWIDTH 480 0
DWIDTH 8 0
BBX 7 8 0 0
BITMAP
0C
FC
12
12
72
8E
8E
E2
ENDCHAR
STARTCHAR 0E2B
ENCODING 3627
SWIDTH 480 0
DWIDTH 8 0
BBX 7 7 0 0
BITMAP
EE
6E
6E
6C
72
72
62
ENDCHAR
STARTCHAR 0E2C
ENCODING 3628
SWIDTH 480 0
DWIDTH 8 0
BBX 9 10 -1 0
BITMAP
0700
0700
0780
C100
4100
4100
4900
7700
7700
4100
ENDCHAR
STARTCHAR 0E2D
ENCODING 3629
SWIDTH 480 0
DWIDTH 8 0
BBX 7 7 0 0
BITMAP
FC
02
02
E2
82
82
7C
ENDCHAR
STARTCHAR 0E2E
ENCODING 3630
SWIDTH 480 0
DWIDTH 8 0
BBX 7 8 0 0
BITMAP
F2
FC
02
02
E2
82
82
7C
ENDCHAR
STARTCHAR 0E2F
ENCODING 3631
SWIDTH 480 0
DWIDTH 8 0
BBX 7 7 0 0
BITMAP
EE
F2
F2
02
02
02
02
ENDCHAR
STARTCHAR 0E30
ENCODING 3632
SWIDTH 480 0
DWIDTH 8 0
BBX 7 7 0 0
BITMAP
E2
7C
7C
00
E2
E2
7C
ENDCHAR
STARTCHAR 0E31
ENCODING 3633
SWIDTH 0 0
DWIDTH 0 0
BBX 7 3 -4 8
BITMAP
E6
78
78
ENDCHAR
STARTCHAR 0E32
ENCODING 3634
SWIDTH 480 0
DWIDTH 8 0
BBX 6 7 1 0
BITMAP
38
C4
C4
04
04
04
04
ENDCHAR
STARTCHAR 0E33
ENCODING 3635
SWIDTH 480 0
DWIDTH 8 0
BBX 7 11 0 0
BITMAP
E0
E0
E0
00
1C
62
62
02
02
02
02
ENDCHAR
STARTCHAR 0E34
ENCODING 3636
SWIDTH 0 0
DWIDTH 0 0
BBX 7 5 -8 8
BITMAP
78
78
C6
BE
BE
ENDCHAR
STARTCHAR 0E35
ENCODING 3637
SWIDTH 0 0
DWIDTH 0 0
BBX 7 6 -8 8
BITMAP
08
78
78
C6
BE
BE
ENDCHAR
STARTCHAR 0E36
ENCODING 3638
SWIDTH 0 0
DWIDTH 0 0
BBX 7 6 -8 8
BITMAP
0E
7E
78
C6
BE
BE
ENDCHAR
STARTCHAR 0E37
ENCODING 3639
SWIDTH 0 0
DWIDTH 0 0
BBX 7 6 -8 8
BITMAP
36
76
78
C6
BE
BE
ENDCHAR
STARTCHAR 0E38
ENCODING 3640
SWIDTH 0 0
DWIDTH 0 0
BBX 3 5 -4 -6
BITMAP
E0
E0
E0
60
60
ENDCHAR
STARTCHAR 0E39
ENCODING 3641
SWIDTH 0 0
DWIDTH 0 0
BBX 6 5 -7 -6
BITMAP
EC
EC
6C
70
70
ENDCHAR
STARTCHAR 0E3A
ENCODING 3642
SWIDTH 0 0
DWIDTH 0 0
BBX 3 3 -4 -4
BITMAP
E0
E0
E0
ENDCHAR
STARTCHAR 0E3F
ENCODING 3647
SWIDTH 480 0
DWIDTH 8 0
BBX 7 12 0 -1
BITMAP
10
FC
FC
92
92
FC
FC
92
92
92
FC
10
ENDCHAR
STARTCHAR 0E40
ENCODING 3648
SWIDTH 480 0
DWIDTH 8 0
BBX 3 7 3 0
BITMAP
80
80
80
80
80
80
E0
ENDCHAR
STARTCHAR 0E41
ENCODING 3649
SWIDTH 480 0
DWIDTH 8 0
BBX 7 7 0 0
BITMAP
8C
8C
8C
8C
8C
8C
EE
ENDCHAR
STARTCHAR 0E42
ENCODING 3650
SWIDTH 480 0
DWIDTH 8 0
BBX 7 14 0 0
BITMAP
72
92
9C
80
F0
F0
0C
0C
0C
0C
0C
0C
0C
0E
ENDCHAR
STARTCHAR 0E43
ENCODING 3651
SWIDTH 480 0
DWIDTH 8 0
BBX 7 10 0 0
BITMAP
70
70
8C
EC
0C
0C
0C
0C
0C
0E
ENDCHAR
STARTCHAR 0E44
ENCODING 3652
SWIDTH 480 0
DWIDTH 8 0
BBX 7 10 0 0
BITMAP
90
90
6C
6C
0C
0C
0C
0C
0C
0E
ENDCHAR
STARTCHAR 0E45
ENCODING 3653
SWIDTH 480 0
DWIDTH 8 0
BBX 6 10 1 -3
BITMAP
38
C4
C4
04
04
04
04
04
04
04
ENDCHAR
STARTCHAR 0E46
ENCODING 3654
SWIDTH 480 0
DWIDTH 8 0
BBX 7 10 0 -3
BITMAP
6C
92
92
82
E2
E2
02
02
0C
0C
ENDCHAR
STARTCHAR 0E47
ENCODING 3655
SWIDTH 0 0
DWIDTH 0 0
BBX 7 6 -8 8
BITMAP
06
7E
78
B6
4E
4E
ENDCHAR
STARTCHAR 0E48
ENCODING 3656
SWIDTH 0 0
DWIDTH 0 0
BBX 2 5 -3 8
BITMAP
C0
C0
C0
C0
C0
ENDCHAR
STARTCHAR 0E49
ENCODING 3657
SWIDTH 0 0
DWIDTH 0 0
BBX 6 5 -7 8
BITMAP
6C
6C
6C
F0
F0
ENDCHAR
STARTCHAR 0E4A
ENCODING 3658
SWIDTH 0 0
DWIDTH 0 0
BBX 7 5 -8 8
BITMAP
46
46
B6
B8
B8
ENDCHAR
STARTCHAR 0E4B
ENCODING 3659
SWIDTH 0 0
DWIDTH 0 0
BBX 4 5 -4 8
BITMAP
60
60
F0
60
60
ENDCHAR
STARTCHAR 0E4C
ENCODING 3660
SWIDTH 0 0
DWIDTH 0 0
BBX 7 6 -6 8
BITMAP
02
3E
3C
D8
20
20
ENDCHAR
STARTCHAR 0E4D
ENCODING 3661
SWIDTH 0 0
DWIDTH 0 0
BBX 5 5 -6 8
BITMAP
20
20
D8
20
20
ENDCHAR
STARTCHAR 0E4E
ENCODING 3662
SWIDTH 0 0
DWIDTH 0 0
BBX 5 6 -6 8
BITMAP
38
38
20
C0
20
20
ENDCHAR
STARTCHAR 0E4F
ENCODING 3663
SWIDTH 480 0
DWIDTH 8 0
BBX 7 7 0 0
BITMAP
7C
82
82
92
82
82
7C
ENDCHAR
STARTCHAR 0E50
ENCODING 3664
SWIDTH 480 0
DWIDTH 8 0
BBX 7 7 0 0
BITMAP
7C
82
82
82
82
82
7C
ENDCHAR
STARTCHAR 0E51
ENCODING 3665
SWIDTH 480 0
DWIDTH 8 0
BBX 7 7 0 0
BITMAP
7C
82
82
92
92
92
62
ENDCHAR
STARTCHAR 0E52
ENCODING 3666
SWIDTH 480 0
DWIDTH 8 0
BBX 8 10 -1 0
BITMAP
80
80
40
4E
49
49
4F
41
41
3E
ENDCHAR
STARTCHAR 0E53
ENCODING 3667
SWIDTH 480 0
DWIDTH 8 0
BBX 7 7 0 0
BITMAP
6C
92
92
82
92
92
62
ENDCHAR
STARTCHAR 0E54
ENCODING 3668
SWIDTH 480 0
DWIDTH 8 0
BBX 8 10 0 0
BITMAP
02
02
1C
60
8E
8E
8E
82
82
7D
ENDCHAR
STARTCHAR 0E55
ENCODING 3669
SWIDTH 480 0
DWIDTH 8 0
BBX 8 10 0 0
BITMAP
12
12
1C
60
8E
8E
8E
82
82
7D
ENDCHAR
STARTCHAR 0E56
ENCODING 3670
SWIDTH 480 0
DWIDTH 8 0
BBX 7 10 0 0
BITMAP
80
80
60
7C
02
02
E2
82
82
7C
ENDCHAR
STARTCHAR 0E57
ENCODING 3671
SWIDTH 480 0
DWIDTH 8 0
BBX 7 10 0 0
BITMAP
1C
1C
02
6E
92
92
82
92
92
62
ENDCHAR
STARTCHAR 0E58
ENCODING 3672
SWIDTH 480 0
DWIDTH 8 0
BBX 7 10 0 0
BITMAP
02
02
02
72
9C
9C
80
92
92
6E
ENDCHAR
STARTCHAR 0E59
ENCODING 3673
SWIDTH 480 0
DWIDTH 8 0
BBX 7 8 0 0
BITMAP
02
6E
90
90
8C
92
92
72
ENDCHAR
STARTCHAR 0E5A
ENCODING 3674
SWIDTH 480 0
DWIDTH 8 0
BBX 8 7 -1 0
BITMAP
B9
C9
C9
09
09
09
09
ENDCHAR
STARTCHAR 0E5B
ENCODING 3675
SWIDTH 480 0
DWIDTH 8 0
BBX 11 7 -1 0
BITMAP
4000
B000
B000
B600
8680
8680
7960
ENDCHAR
STARTCHAR 13A0
ENCODING 5024
SWIDTH 480 0
DWIDTH 8 0
BBX 7 10 0 0
BITMAP
FC
FC
82
82
82
82
82
82
82
FC
ENDCHAR
STARTCHAR 13A1
ENCODING 5025
SWIDTH 480 0
DWIDTH 8 0
BBX 7 10 0 0
BITMAP
FC
FC
82
82
FC
FC
90
90
90
8E
ENDCHAR
STARTCHAR 13A2
ENCODING 5026
SWIDTH 480 0
DWIDTH 8 0
BBX 7 10 0 0
BITMAP
FE
FE
10
10
10
10
10
10
10
10
ENDCHAR
STARTCHAR 13A3
ENCODING 5027
SWIDTH 480 0
DWIDTH 8 0
BBX 7 10 0 0
BITMAP
10
10
10
1C
62
62
62
92
92
92
ENDCHAR
STARTCHAR 13A4
ENCODING 5028
SWIDTH 480 0
DWIDTH 8 0
BBX 7 10 0 0
BITMAP
60
60
90
92
92
92
9C
90
90
60
ENDCHAR
STARTCHAR 13A5
ENCODING 5029
SWIDTH 480 0
DWIDTH 8 0
BBX 5 10 1 0
BITMAP
20
20
00
20
20
20
20
20
20
F8
ENDCHAR
STARTCHAR 13A6
ENCODING 5030
SWIDTH 480 0
DWIDTH 8 0
BBX 7 10 0 0
BITMAP
7C
7C
8E
60
FE
FE
0C
E2
E2
7C
ENDCHAR
STARTCHAR 13A7
ENCODING 5031
SWIDTH 480 0
DWIDTH 8 0
BBX 7 10 0 0
BITMAP
7C
7C
02
62
92
92
E2
82
82
7C
ENDCHAR
STARTCHAR 13A8
ENCODING 5032
SWIDTH 480 0
DWIDTH 8 0
BBX 7 10 0 0
BITMAP
80
80
80
92
92
92
EC
80
80
80
ENDCHAR
STARTCHAR 13A9
ENCODING 5033
SWIDTH 480 0
DWIDTH 8 0
BBX 7 10 0 0
BITMAP
82
82
82
6C
6C
6C
10
90
90
60
ENDCHAR
STARTCHAR 13AA
ENCODING 5034
SWIDTH 480 0
DWIDTH 8 0
BBX 7 10 0 0
BITMAP
7C
7C
82
82
FE
FE
82
82
82
82
ENDCHAR
STARTCHAR 13AB
ENCODING 5035
SWIDTH 480 0
DWIDTH 8 0
BBX 7 10 0 0
BITMAP
1E
1E
0C
0C
0C
0C
0C
8C
8C
70
ENDCHAR
STARTCHAR 13AC
ENCODING 5036
SWIDTH 480 0
DWIDTH 8 0
BBX 7 10 0 0
BITMAP
FE
FE
80
80
F0
F0
80
80
80
FE
ENDCHAR
STARTCHAR 13AD
ENCODING 5037
SWIDTH 480 0
DWIDTH 8 0
BBX 7 10 0 0
BITMAP
10
10
10
90
FE
FE
92
1C
1C
10
ENDCHAR
STARTCHAR 13AE
ENCODING 5038
SWIDTH 480 0
DWIDTH 8 0
BBX 7 10 0 0
BITMAP
7C
7C
82
02
82
82
FC
80
80
80
ENDCHAR
STARTCHAR 13AF
ENCODING 5039
SWIDTH 480 0
DWIDTH 8 0
BBX 7 10 0 0
BITMAP
1C
1C
62
62
7E
7E
62
62
62
8C
ENDCHAR
STARTCHAR 13B0
ENCODING 5040
SWIDTH 480 0
DWIDTH 8 0
BBX 7 10 0 0
BITMAP
80
80
80
80
FE
FE
80
80
80
80
ENDCHAR
STARTCHAR 13B1
ENCODING 5041
SWIDTH 480 0
DWIDTH 8 0
BBX 7 10 0 0
BITMAP
FE
FE
80
80
80
80
80
80
80
80
ENDCHAR
STARTCHAR 13B2
ENCODING 5042
SWIDTH 480 0
DWIDTH 8 0
BBX 7 10 0 0
BITMAP
10
10
6C
6C
6C
6C
10
92
92
EC
ENDCHAR
STARTCHAR 13B3
ENCODING 5043
SWIDTH 480 0
DWIDTH 8 0
BBX 7 10 0 0
BITMAP
92
92
92
92
9C
9C
7C
6C
6C
6C
ENDCHAR
STARTCHAR 13B4
ENCODING 5044
SWIDTH 480 0
DWIDTH 8 0
BBX 7 10 0 0
BITMAP
0C
0C
12
70
8C
8C
8C
8C
8C
70
ENDCHAR
STARTCHAR 13B5
ENCODING 5045
SWIDTH 480 0
DWIDTH 8 0
BBX 7 10 0 0
BITMAP
7C
7C
82
92
8C
8C
80
80
80
80
ENDCHAR
STARTCHAR 13B6
ENCODING 5046
SWIDTH 480 0
DWIDTH 8 0
BBX 7 10 0 0
BITMAP
7C
7C
82
90
9C
9C
92
82
82
7C
ENDCHAR
STARTCHAR 13B7
ENCODING 5047
SWIDTH 480 0
DWIDTH 8 0
BBX 7 10 0 0
BITMAP
82
82
EE
92
92
92
82
82
82
82
ENDCHAR
STARTCHAR 13B8
ENCODING 5048
SWIDTH 480 0
DWIDTH 8 0
BBX 7 10 0 0
BITMAP
7C
7C
82
02
F2
F2
9E
02
02
02
ENDCHAR
STARTCHAR 13B9
ENCODING 5049
SWIDTH 480 0
DWIDTH 8 0
BBX 9 10 -1 0
BITMAP
0800
0800
0800
0980
3680
3680
F000
4800
4800
3000
ENDCHAR
STARTCHAR 13BA
ENCODING 5050
SWIDTH 480 0
DWIDTH 8 0
BBX 7 10 0 0
BITMAP
72
72
8E
8E
8E
8E
8E
8E
8E
72
ENDCHAR
STARTCHAR 13BB
ENCODING 5051
SWIDTH 480 0
DWIDTH 8 0
BBX 7 10 0 0
BITMAP
82
82
82
82
FE
FE
82
82
82
82
ENDCHAR
STARTCHAR 13BC
ENCODING 5052
SWIDTH 480 0
DWIDTH 8 0
BBX 7 10 0 0
BITMAP
F0
F0
60
7C
62
62
02
62
62
1C
ENDCHAR
STARTCHAR 13BD
ENCODING 5053
SWIDTH 480 0
DWIDTH 8 0
BBX 7 10 0 0
BITMAP
82
82
6C
6C
10
10
F0
90
90
60
ENDCHAR
STARTCHAR 13BE
ENCODING 5054
SWIDTH 480 0
DWIDTH 8 0
BBX 7 10 0 0
BITMAP
7C
7C
82
82
FE
FE
82
82
82
7C
ENDCHAR
STARTCHAR 13BF
ENCODING 5055
SWIDTH 480 0
DWIDTH 8 0
BBX 7 10 0 0
BITMAP
60
60
60
F0
60
60
6E
62
62
1E
ENDCHAR
STARTCHAR 13C0
ENCODING 5056
SWIDTH 480 0
DWIDTH 8 0
BBX 7 10 0 0
BITMAP
7C
7C
82
80
8E
8E
82
8E
8E
72
ENDCHAR
STARTCHAR 13C1
ENCODING 5057
SWIDTH 480 0
DWIDTH 8 0
BBX 7 10 0 0
BITMAP
10
10
6C
6C
6C
6C
62
62
62
82
ENDCHAR
STARTCHAR 13C2
ENCODING 5058
SWIDTH 480 0
DWIDTH 8 0
BBX 7 10 0 0
BITMAP
80
80
80
80
9C
9C
E2
82
82
82
ENDCHAR
STARTCHAR 13C3
ENCODING 5059
SWIDTH 480 0
DWIDTH 8 0
BBX 7 10 0 0
BITMAP
FE
FE
02
0C
10
10
60
80
80
FE
ENDCHAR
STARTCHAR 13C4
ENCODING 5060
SWIDTH 480 0
DWIDTH 8 0
BBX 7 10 0 0
BITMAP
7C
7C
82
02
82
82
7E
02
02
02
ENDCHAR
STARTCHAR 13C5
ENCODING 5061
SWIDTH 480 0
DWIDTH 8 0
BBX 7 10 0 0
BITMAP
60
60
90
92
9E
9E
90
90
90
60
ENDCHAR
STARTCHAR 13C6
ENCODING 5062
SWIDTH 480 0
DWIDTH 8 0
BBX 7 10 0 0
BITMAP
FE
FE
92
10
10
10
10
92
92
FE
ENDCHAR
STARTCHAR 13C7
ENCODING 5063
SWIDTH 480 0
DWIDTH 8 0
BBX 7 10 0 0
BITMAP
1C
1C
62
02
92
92
92
92
92
6C
ENDCHAR
STARTCHAR 13C8
ENCODING 5064
SWIDTH 480 0
DWIDTH 8 0
BBX 7 10 0 0
BITMAP
6C
6C
92
12
6C
6C
6C
6C
6C
10
ENDCHAR
STARTCHAR 13C9
ENCODING 5065
SWIDTH 480 0
DWIDTH 8 0
BBX 8 10 0 0
BITMAP
1C
1C
0F
6D
EC
EC
6C
10
10
10
ENDCHAR
STARTCHAR 13CA
ENCODING 5066
SWIDTH 480 0
DWIDTH 8 0
BBX 7 10 0 0
BITMAP
1C
1C
82
82
92
92
92
92
92
6C
ENDCHAR
STARTCHAR 13CB
ENCODING 5067
SWIDTH 480 0
DWIDTH 8 0
BBX 7 10 0 0
BITMAP
7C
7C
82
80
60
60
8E
82
82
7C
ENDCHAR
STARTCHAR 13CC
ENCODING 5068
SWIDTH 480 0
DWIDTH 8 0
BBX 7 10 0 0
BITMAP
82
82
82
82
FE
FE
82
82
82
7C
ENDCHAR
STARTCHAR 13CD
ENCODING 5069
SWIDTH 480 0
DWIDTH 8 0
BBX 7 10 0 0
BITMAP
1C
1C
62
02
72
72
92
92
92
6C
ENDCHAR
STARTCHAR 13CE
ENCODING 5070
SWIDTH 480 0
DWIDTH 8 0
BBX 7 10 0 0
BITMAP
10
10
70
92
FE
FE
12
10
10
10
ENDCHAR
STARTCHAR 13CF
ENCODING 5071
SWIDTH 480 0
DWIDTH 8 0
BBX 7 10 0 0
BITMAP
80
80
80
80
FC
FC
82
82
82
FC
ENDCHAR
STARTCHAR 13D0
ENCODING 5072
SWIDTH 480 0
DWIDTH 8 0
BBX 7 10 0 0
BITMAP
10
10
10
9E
F2
F2
10
10
10
10
ENDCHAR
STARTCHAR 13D1
ENCODING 5073
SWIDTH 480 0
DWIDTH 8 0
BBX 7 10 0 0
BITMAP
7C
7C
92
6C
60
60
90
90
90
60
ENDCHAR
STARTCHAR 13D2
ENCODING 5074
SWIDTH 480 0
DWIDTH 8 0
BBX 7 10 0 0
BITMAP
FC
FC
82
E2
9C
9C
8C
82
82
82
ENDCHAR
STARTCHAR 13D3
ENCODING 5075
SWIDTH 480 0
DWIDTH 8 0
BBX 7 10 0 0
BITMAP
80
80
80
80
80
80
80
82
82
7C
ENDCHAR
STARTCHAR 13D4
ENCODING 5076
SWIDTH 480 0
DWIDTH 8 0
BBX 7 10 0 0
BITMAP
EE
EE
EE
92
92
92
7C
6C
6C
6C
ENDCHAR
STARTCHAR 13D5
ENCODING 5077
SWIDTH 480 0
DWIDTH 8 0
BBX 7 10 0 0
BITMAP
7C
7C
8E
60
FE
FE
0C
82
82
7C
ENDCHAR
STARTCHAR 13D6
ENCODING 5078
SWIDTH 480 0
DWIDTH 8 0
BBX 7 10 0 0
BITMAP
FE
FE
90
10
12
12
12
12
12
0C
ENDCHAR
STARTCHAR 13D7
ENCODING 5079
SWIDTH 480 0
DWIDTH 8 0
BBX 7 10 0 0
BITMAP
02
02
02
02
02
02
0E
92
92
E2
ENDCHAR
STARTCHAR 13D8
ENCODING 5080
SWIDTH 480 0
DWIDTH 8 0
BBX 7 10 0 0
BITMAP
FE
FE
02
02
02
02
0E
92
92
E2
ENDCHAR
STARTCHAR 13D9
ENCODING 5081
SWIDTH 480 0
DWIDTH 8 0
BBX 7 10 0 0
BITMAP
82
82
82
6C
6C
6C
6C
10
10
10
ENDCHAR
STARTCHAR 13DA
ENCODING 5082
SWIDTH 480 0
DWIDTH 8 0
BBX 7 10 0 0
BITMAP
7C
7C
82
80
7C
7C
02
82
82
7C
ENDCHAR
STARTCHAR 13DB
ENCODING 5083
SWIDTH 480 0
DWIDTH 8 0
BBX 7 10 0 0
BITMAP
6C
6C
92
82
EC
EC
90
90
90
60
ENDCHAR
STARTCHAR 13DC
ENCODING 5084
SWIDTH 480 0
DWIDTH 8 0
BBX 7 10 0 0
BITMAP
10
10
6C
10
6C
6C
92
92
92
6C
ENDCHAR
STARTCHAR 13DD
ENCODING 5085
SWIDTH 480 0
DWIDTH 8 0
BBX 7 10 0 0
BITMAP
70
70
8C
80
80
80
80
80
80
FE
ENDCHAR
STARTCHAR 13DE
ENCODING 5086
SWIDTH 480 0
DWIDTH 8 0
BBX 7 10 0 0
BITMAP
80
80
80
80
80
80
80
80
80
FE
ENDCHAR
STARTCHAR 13DF
ENCODING 5087
SWIDTH 480 0
DWIDTH 8 0
BBX 7 10 0 0
BITMAP
7C
7C
82
80
80
80
80
82
82
7C
ENDCHAR
STARTCHAR 13E0
ENCODING 5088
SWIDTH 480 0
DWIDTH 8 0
BBX 7 10 0 0
BITMAP
02
02
02
E2
FE
FE
62
62
62
1C
ENDCHAR
STARTCHAR 13E1
ENCODING 5089
SWIDTH 480 0
DWIDTH 8 0
BBX 7 10 0 0
BITMAP
6C
6C
92
F0
6C
6C
6C
6C
6C
10
ENDCHAR
STARTCHAR 13E2
ENCODING 5090
SWIDTH 480 0
DWIDTH 8 0
BBX 7 10 0 0
BITMAP
FC
FC
82
82
FC
FC
80
80
80
80
ENDCHAR
STARTCHAR 13E3
ENCODING 5091
SWIDTH 480 0
DWIDTH 8 0
BBX 8 10 0 0
BITMAP
7C
7C
82
8F
80
80
8E
82
82
7C
ENDCHAR
STARTCHAR 13E4
ENCODING 5092
SWIDTH 480 0
DWIDTH 8 0
BBX 7 10 0 0
BITMAP
E2
E2
62
6C
6C
6C
70
70
70
60
ENDCHAR
STARTCHAR 13E5
ENCODING 5093
SWIDTH 480 0
DWIDTH 8 0
BBX 7 10 0 0
BITMAP
80
80
82
9C
EC
EC
8C
8C
8C
8C
ENDCHAR
STARTCHAR 13E6
ENCODING 5094
SWIDTH 480 0
DWIDTH 8 0
BBX 7 10 0 0
BITMAP
82
82
8C
90
E0
E0
90
8C
8C
82
ENDCHAR
STARTCHAR 13E7
ENCODING 5095
SWIDTH 480 0
DWIDTH 8 0
BBX 7 10 0 0
BITMAP
1E
1E
0C
0C
7C
7C
8C
8C
8C
70
ENDCHAR
STARTCHAR 13E8
ENCODING 5096
SWIDTH 480 0
DWIDTH 8 0
BBX 7 10 0 0
BITMAP
6C
6C
92
80
80
80
80
92
92
6C
ENDCHAR
STARTCHAR 13E9
ENCODING 5097
SWIDTH 480 0
DWIDTH 8 0
BBX 8 10 0 0
BITMAP
7C
7C
82
80
8E
8E
82
8E
8E
71
ENDCHAR
STARTCHAR 13EA
ENCODING 5098
SWIDTH 480 0
DWIDTH 8 0
BBX 7 10 0 0
BITMAP
6C
6C
92
9E
92
92
72
92
92
EC
ENDCHAR
STARTCHAR 13EB
ENCODING 5099
SWIDTH 480 0
DWIDTH 8 0
BBX 7 10 0 0
BITMAP
7C
7C
82
F2
92
92
9E
82
82
7C
ENDCHAR
STARTCHAR 13EC
ENCODING 5100
SWIDTH 480 0
DWIDTH 8 0
BBX 7 10 0 0
BITMAP
0C
0C
62
92
92
92
E2
82
82
7C
ENDCHAR
STARTCHAR 13ED
ENCODING 5101
SWIDTH 480 0
DWIDTH 8 0
BBX 7 10 0 0
BITMAP
1C
1C
62
62
12
12
0E
82
82
7C
ENDCHAR
STARTCHAR 13EE
ENCODING 5102
SWIDTH 480 0
DWIDTH 8 0
BBX 7 10 0 0
BITMAP
7C
7C
82
80
FC
FC
82
82
82
7C
ENDCHAR
STARTCHAR 13EF
ENCODING 5103
SWIDTH 480 0
DWIDTH 8 0
BBX 7 10 0 0
BITMAP
1C
1C
62
02
82
82
FE
92
92
6C
ENDCHAR
STARTCHAR 13F0
ENCODING 5104
SWIDTH 480 0
DWIDTH 8 0
BBX 7 11 0 -1
BITMAP
1C
1C
62
62
7C
7C
62
E2
E2
7C
60
ENDCHAR
STARTCHAR 13F1
ENCODING 5105
SWIDTH 480 0
DWIDTH 8 0
BBX 7 10 0 0
BITMAP
7C
7C
10
1C
12
12
92
E2
E2
8C
ENDCHAR
STARTCHAR 13F2
ENCODING 5106
SWIDTH 480 0
DWIDTH 8 0
BBX 7 10 0 0
BITMAP
7C
7C
82
80
9C
9C
E2
82
82
82
ENDCHAR
STARTCHAR 13F3
ENCODING 5107
SWIDTH 480 0
DWIDTH 8 0
BBX 7 10 0 0
BITMAP
72
72
9C
80
8E
8E
82
8E
8E
72
ENDCHAR
STARTCHAR 13F4
ENCODING 5108
SWIDTH 480 0
DWIDTH 8 0
BBX 7 10 0 0
BITMAP
FC
FC
82
82
FC
FC
82
82
82
FC
ENDCHAR
STARTCHAR 13F5
ENCODING 5109
SWIDTH 480 0
DWIDTH 8 0
BBX 7 11 0 0
BITMAP
0E
70
70
80
80
8E
8E
82
8E
8E
72
ENDCHAR
STARTCHAR 13F8
ENCODING 5112
SWIDTH 480 0
DWIDTH 8 0
BBX 7 8 0 -1
BITMAP
1C
62
62
7C
E2
E2
7C
60
ENDCHAR
STARTCHAR 13F9
ENCODING 5113
SWIDTH 480 0
DWIDTH 8 0
BBX 7 7 0 0
BITMAP
7C
10
10
9C
E2
E2
8C
ENDCHAR
STARTCHAR 13FA
ENCODING 5114
SWIDTH 480 0
DWIDTH 8 0
BBX 7 7 0 0
BITMAP
7C
80
80
9C
E2
E2
82
ENDCHAR
STARTCHAR 13FB
ENCODING 5115
SWIDTH 480 0
DWIDTH 8 0
BBX 7 8 0 0
BITMAP
12
6C
80
80
8E
82
82
7E
ENDCHAR
STARTCHAR 13FC
ENCODING 5116
SWIDTH 480 0
DWIDTH 8 0
BBX 7 7 0 0
BITMAP
FC
82
82
FC
82
82
FC
ENDCHAR
STARTCHAR 13FD
ENCODING 5117
SWIDTH 480 0
DWIDTH 8 0
BBX 7 8 0 0
BITMAP
0E
70
80
80
8E
82
82
7E
ENDCHAR
STARTCHAR 1680
ENCODING 5760
SWIDTH 480 0
DWIDTH 8 0
BBX 8 2 0 4
BITMAP
FF
FF
ENDCHAR
STARTCHAR 1681
ENCODING 5761
SWIDTH 480 0
DWIDTH 8 0
BBX 8 6 0 0
BITMAP
FF
FF
10
10
10
10
ENDCHAR
STARTCHAR 1682
ENCODING 5762
SWIDTH 480 0
DWIDTH 8 0
BBX 8 6 0 0
BITMAP
FF
FF
6C
6C
6C
6C
ENDCHAR
STARTCHAR 1683
ENCODING 5763
SWIDTH 1020 0
DWIDTH 17 0
BBX 17 6 0 0
BITMAP
FFFF80
FFFF80
0D2000
0D2000
0D2000
0D2000
ENDCHAR
STARTCHAR 1684
ENCODING 5764
SWIDTH 1020 0
DWIDTH 17 0
BBX 17 6 0 0
BITMAP
FFFF80
FFFF80
12D800
12D800
12D800
12D800
ENDCHAR
STARTCHAR 1685
ENCODING 5765
SWIDTH 1020 0
DWIDTH 17 0
BBX 17 6 0 0
BITMAP
FFFF80
FFFF80
6D2C00
6D2C00
6D2C00
6D2C00
ENDCHAR
STARTCHAR 1686
ENCODING 5766
SWIDTH 480 0
DWIDTH 8 0
BBX 8 6 0 4
BITMAP
10
10
10
10
FF
FF
ENDCHAR
STARTCHAR 1687
ENCODING 5767
SWIDTH 480 0
DWIDTH 8 0
BBX 8 6 0 4
BITMAP
6C
6C
6C
6C
FF
FF
ENDCHAR
STARTCHAR 1688
ENCODING 5768
SWIDTH 1020 0
DWIDTH 17 0
BBX 17 6 0 4
BITMAP
0D2000
0D2000
0D2000
0D2000
FFFF80
FFFF80
ENDCHAR
STARTCHAR 1689
ENCODING 5769
SWIDTH 1020 0
DWIDTH 17 0
BBX 17 6 0 4
BITMAP
12D800
12D800
12D800
12D800
FFFF80
FFFF80
ENDCHAR
STARTCHAR 168A
ENCODING 5770
SWIDTH 1020 0
DWIDTH 17 0
BBX 17 6 0 4
BITMAP
6D2C00
6D2C00
6D2C00
6D2C00
FFFF80
FFFF80
ENDCHAR
STARTCHAR 168B
ENCODING 5771
SWIDTH 480 0
DWIDTH 8 0
BBX 8 10 0 0
BITMAP
0C
0C
0C
10
FF
FF
10
60
60
60
ENDCHAR
STARTCHAR 168C
ENCODING 5772
SWIDTH 480 0
DWIDTH 8 0
BBX 8 10 0 0
BITMAP
12
12
12
6C
FF
FF
6C
90
90
90
ENDCHAR
STARTCHAR 168D
ENCODING 5773
SWIDTH 1020 0
DWIDTH 17 0
BBX 17 10 0 0
BITMAP
02D800
02D800
02D800
0D2000
FFFF80
FFFF80
0D2000
12C000
12C000
12C000
ENDCHAR
STARTCHAR 168E
ENCODING 5774
SWIDTH 1020 0
DWIDTH 17 0
BBX 17 10 0 0
BITMAP
0D2C00
0D2C00
0D2C00
12D800
FFFF80
FFFF80
12D800
6D2000
6D2000
6D2000
ENDCHAR
STARTCHAR 168F
ENCODING 5775
SWIDTH 1020 0
DWIDTH 17 0
BBX 17 10 0 0
BITMAP
12DA00
12DA00
12DA00
6D2C00
FFFF80
FFFF80
6D2C00
92D800
92D800
92D800
ENDCHAR
STARTCHAR 1690
ENCODING 5776
SWIDTH 480 0
DWIDTH 8 0
BBX 8 4 0 3
BITMAP
10
FF
FF
10
ENDCHAR
STARTCHAR 1691
ENCODING 5777
SWIDTH 480 0
DWIDTH 8 0
BBX 8 4 0 3
BITMAP
6C
FF
FF
6C
ENDCHAR
STARTCHAR 1692
ENCODING 5778
SWIDTH 1020 0
DWIDTH 17 0
BBX 17 4 0 3
BITMAP
0D2000
FFFF80
FFFF80
0D2000
ENDCHAR
STARTCHAR 1693
ENCODING 5779
SWIDTH 1020 0
DWIDTH 17 0
BBX 17 4 0 3
BITMAP
12D800
FFFF80
FFFF80
12D800
ENDCHAR
STARTCHAR 1694
ENCODING 5780
SWIDTH 1020 0
DWIDTH 17 0
BBX 17 4 0 3
BITMAP
6D2C00
FFFF80
FFFF80
6D2C00
ENDCHAR
STARTCHAR 1695
ENCODING 5781
SWIDTH 480 0
DWIDTH 8 0
BBX 8 10 0 0
BITMAP
82
82
6C
10
FF
FF
10
6C
6C
82
ENDCHAR
STARTCHAR 1696
ENCODING 5782
SWIDTH 480 0
DWIDTH 8 0
BBX 8 12 0 -1
BITMAP
10
6C
6C
6C
82
FF
FF
82
6C
6C
6C
10
ENDCHAR
STARTCHAR 1697
ENCODING 5783
SWIDTH 480 0
DWIDTH 8 0
BBX 8 7 0 -1
BITMAP
FF
FF
60
6E
6E
62
7E
ENDCHAR
STARTCHAR 1698
ENCODING 5784
SWIDTH 1020 0
DWIDTH 17 0
BBX 17 10 0 -4
BITMAP
FFFF80
FFFF80
12D800
12D800
12D800
0D2000
0D2000
12D800
12D800
12D800
ENDCHAR
STARTCHAR 1699
ENCODING 5785
SWIDTH 1020 0
DWIDTH 17 0
BBX 17 9 0 4
BITMAP
12D800
12D800
7FFC00
12D800
12D800
7FFC00
12D800
FFFF80
FFFF80
ENDCHAR
STARTCHAR 169A
ENCODING 5786
SWIDTH 480 0
DWIDTH 8 0
BBX 8 5 0 1
BITMAP
FF
FF
00
7E
7E
ENDCHAR
STARTCHAR 169B
ENCODING 5787
SWIDTH 480 0
DWIDTH 8 0
BBX 8 10 0 0
BITMAP
80
80
60
10
0F
0F
10
60
60
80
ENDCHAR
STARTCHAR 169C
ENCODING 5788
SWIDTH 480 0
DWIDTH 8 0
BBX 7 10 0 0
BITMAP
02
02
0C
10
E0
E0
10
0C
0C
02
ENDCHAR
STARTCHAR 16A0
ENCODING 5792
SWIDTH 480 0
DWIDTH 8 0
BBX 7 10 0 0
BITMAP
92
92
92
E2
8C
8C
F0
80
80
80
ENDCHAR
STARTCHAR 16A1
ENCODING 5793
SWIDTH 480 0
DWIDTH 8 0
BBX 7 10 0 0
BITMAP
F2
F2
92
E2
8C
8C
F0
80
80
80
ENDCHAR
STARTCHAR 16A2
ENCODING 5794
SWIDTH 480 0
DWIDTH 8 0
BBX 7 10 0 0
BITMAP
F0
F0
8C
82
82
82
82
82
82
82
ENDCHAR
STARTCHAR 16A3
ENCODING 5795
SWIDTH 480 0
DWIDTH 8 0
BBX 7 10 0 0
BITMAP
80
80
E0
90
90
90
8C
92
92
92
ENDCHAR
STARTCHAR 16A4
ENCODING 5796
SWIDTH 480 0
DWIDTH 8 0
BBX 7 10 0 0
BITMAP
F0
F0
8C
82
92
92
92
82
82
82
ENDCHAR
STARTCHAR 16A5
ENCODING 5797
SWIDTH 480 0
DWIDTH 8 0
BBX 7 10 0 0
BITMAP
F0
F0
8C
82
E2
E2
92
92
92
92
ENDCHAR
STARTCHAR 16A6
ENCODING 5798
SWIDTH 480 0
DWIDTH 8 0
BBX 5 10 1 0
BITMAP
C0
C0
E0
D8
D8
D8
D8
E0
E0
C0
ENDCHAR
STARTCHAR 16A7
ENCODING 5799
SWIDTH 480 0
DWIDTH 8 0
BBX 5 10 1 0
BITMAP
C0
C0
E0
D8
F8
F8
D8
E0
E0
C0
ENDCHAR
STARTCHAR 16A8
ENCODING 5800
SWIDTH 480 0
DWIDTH 8 0
BBX 5 10 1 0
BITMAP
C0
C0
E0
D8
E0
E0
D8
C0
C0
C0
ENDCHAR
STARTCHAR 16A9
ENCODING 5801
SWIDTH 480 0
DWIDTH 8 0
BBX 7 10 0 0
BITMAP
82
82
EC
92
EC
EC
90
80
80
80
ENDCHAR
STARTCHAR 16AA
ENCODING 5802
SWIDTH 480 0
DWIDTH 8 0
BBX 7 10 0 0
BITMAP
82
82
EC
90
E0
E0
90
80
80
80
ENDCHAR
STARTCHAR 16AB
ENCODING 5803
SWIDTH 480 0
DWIDTH 8 0
BBX 7 10 0 0
BITMAP
80
80
F0
8E
F0
F0
8E
80
80
80
ENDCHAR
STARTCHAR 16AC
ENCODING 5804
SWIDTH 480 0
DWIDTH 8 0
BBX 7 10 0 0
BITMAP
10
10
F0
1E
F0
F0
1E
10
10
10
ENDCHAR
STARTCHAR 16AD
ENCODING 5805
SWIDTH 480 0
DWIDTH 8 0
BBX 5 10 1 0
BITMAP
C0
C0
C0
E0
D8
D8
E0
D8
D8
C0
ENDCHAR
STARTCHAR 16AE
ENCODING 5806
SWIDTH 480 0
DWIDTH 8 0
BBX 5 10 1 0
BITMAP
18
18
18
38
D8
D8
38
D8
D8
18
ENDCHAR
STARTCHAR 16AF
ENCODING 5807
SWIDTH 480 0
DWIDTH 8 0
BBX 7 10 0 0
BITMAP
10
10
1E
F0
1E
1E
F0
10
10
10
ENDCHAR
STARTCHAR 16B0
ENCODING 5808
SWIDTH 480 0
DWIDTH 8 0
BBX 7 10 0 0
BITMAP
10
10
1E
F0
10
10
F0
10
10
10
ENDCHAR
STARTCHAR 16B1
ENCODING 5809
SWIDTH 480 0
DWIDTH 8 0
BBX 7 10 0 0
BITMAP
F0
F0
8C
8E
F0
F0
90
8C
8C
82
ENDCHAR
STARTCHAR 16B2
ENCODING 5810
SWIDTH 480 0
DWIDTH 8 0
BBX 5 7 1 1
BITMAP
18
20
C0
C0
20
18
18
ENDCHAR
STARTCHAR 16B3
ENCODING 5811
SWIDTH 480 0
DWIDTH 8 0
BBX 7 10 0 0
BITMAP
80
80
80
80
E0
E0
90
8C
8C
82
ENDCHAR
STARTCHAR 16B4
ENCODING 5812
SWIDTH 480 0
DWIDTH 8 0
BBX 7 10 0 0
BITMAP
82
82
82
8C
F0
F0
80
80
80
80
ENDCHAR
STARTCHAR 16B5
ENCODING 5813
SWIDTH 480 0
DWIDTH 8 0
BBX 7 10 0 0
BITMAP
92
92
82
8C
F0
F0
80
80
80
80
ENDCHAR
STARTCHAR 16B6
ENCODING 5814
SWIDTH 480 0
DWIDTH 8 0
BBX 7 10 0 0
BITMAP
82
82
82
EC
F0
F0
E0
80
80
80
ENDCHAR
STARTCHAR 16B7
ENCODING 5815
SWIDTH 480 0
DWIDTH 8 0
BBX 7 10 0 0
BITMAP
82
82
6C
6C
10
10
6C
6C
6C
82
ENDCHAR
STARTCHAR 16B8
ENCODING 5816
SWIDTH 480 0
DWIDTH 8 0
BBX 7 10 0 0
BITMAP
82
82
6C
7C
92
92
7C
6C
6C
82
ENDCHAR
STARTCHAR 16B9
ENCODING 5817
SWIDTH 480 0
DWIDTH 8 0
BBX 7 10 0 0
BITMAP
F0
F0
8C
8E
F0
F0
80
80
80
80
ENDCHAR
STARTCHAR 16BA
ENCODING 5818
SWIDTH 480 0
DWIDTH 8 0
BBX 7 10 0 0
BITMAP
82
82
82
E2
92
92
8E
82
82
82
ENDCHAR
STARTCHAR 16BB
ENCODING 5819
SWIDTH 480 0
DWIDTH 8 0
BBX 7 10 0 0
BITMAP
82
82
E2
92
EE
EE
92
8E
8E
82
ENDCHAR
STARTCHAR 16BC
ENCODING 5820
SWIDTH 480 0
DWIDTH 8 0
BBX 7 10 0 0
BITMAP
10
10
92
7C
10
10
7C
92
92
10
ENDCHAR
STARTCHAR 16BD
ENCODING 5821
SWIDTH 480 0
DWIDTH 8 0
BBX 5 10 1 0
BITMAP
20
20
20
F8
F8
F8
F8
20
20
20
ENDCHAR
STARTCHAR 16BE
ENCODING 5822
SWIDTH 480 0
DWIDTH 8 0
BBX 7 10 0 0
BITMAP
10
10
10
F0
1E
1E
10
10
10
10
ENDCHAR
STARTCHAR 16BF
ENCODING 5823
SWIDTH 480 0
DWIDTH 8 0
BBX 5 10 1 0
BITMAP
C0
C0
C0
C0
E0
E0
D8
C0
C0
C0
ENDCHAR
STARTCHAR 16C0
ENCODING 5824
SWIDTH 480 0
DWIDTH 8 0
BBX 7 10 0 0
BITMAP
10
10
90
7C
7C
7C
7C
12
12
10
ENDCHAR
STARTCHAR 16C1
ENCODING 5825
SWIDTH 480 0
DWIDTH 8 0
BBX 1 10 3 0
BITMAP
80
80
80
80
80
80
80
80
80
80
ENDCHAR
STARTCHAR 16C2
ENCODING 5826
SWIDTH 480 0
DWIDTH 8 0
BBX 5 10 1 0
BITMAP
20
20
20
F8
F8
F8
F8
20
20
20
ENDCHAR
STARTCHAR 16C3
ENCODING 5827
SWIDTH 480 0
DWIDTH 8 0
BBX 7 10 0 0
BITMAP
10
10
60
80
6C
6C
02
0C
0C
10
ENDCHAR
STARTCHAR 16C4
ENCODING 5828
SWIDTH 480 0
DWIDTH 8 0
BBX 7 10 0 0
BITMAP
10
10
10
7C
92
92
7C
10
10
10
ENDCHAR
STARTCHAR 16C5
ENCODING 5829
SWIDTH 480 0
DWIDTH 8 0
BBX 7 10 0 0
BITMAP
10
10
10
1E
F0
F0
10
10
10
10
ENDCHAR
STARTCHAR 16C6
ENCODING 5830
SWIDTH 480 0
DWIDTH 8 0
BBX 5 10 1 0
BITMAP
18
18
18
18
38
38
D8
18
18
18
ENDCHAR
STARTCHAR 16C7
ENCODING 5831
SWIDTH 480 0
DWIDTH 8 0
BBX 7 10 0 0
BITMAP
10
10
1C
12
10
10
90
70
70
10
ENDCHAR
STARTCHAR 16C8
ENCODING 5832
SWIDTH 480 0
DWIDTH 8 0
BBX 7 10 0 0
BITMAP
E2
E2
9C
80
80
80
80
9C
9C
E2
ENDCHAR
STARTCHAR 16C9
ENCODING 5833
SWIDTH 480 0
DWIDTH 8 0
BBX 7 10 0 0
BITMAP
92
92
7C
10
10
10
10
10
10
10
ENDCHAR
STARTCHAR 16CA
ENCODING 5834
SWIDTH 480 0
DWIDTH 8 0
BBX 5 10 1 0
BITMAP
18
18
E0
20
18
18
20
E0
E0
18
ENDCHAR
STARTCHAR 16CB
ENCODING 5835
SWIDTH 480 0
DWIDTH 8 0
BBX 7 10 0 0
BITMAP
80
80
80
8E
92
92
E2
02
02
02
ENDCHAR
STARTCHAR 16CC
ENCODING 5836
SWIDTH 480 0
DWIDTH 8 0
BBX 1 6 3 4
BITMAP
80
80
80
80
80
80
ENDCHAR
STARTCHAR 16CD
ENCODING 5837
SWIDTH 480 0
DWIDTH 8 0
BBX 5 7 1 3
BITMAP
20
20
20
F8
F8
F8
F8
ENDCHAR
STARTCHAR 16CE
ENCODING 5838
SWIDTH 480 0
DWIDTH 8 0
BBX 7 6 0 4
BITMAP
10
10
92
7C
10
10
ENDCHAR
STARTCHAR 16CF
ENCODING 5839
SWIDTH 480 0
DWIDTH 8 0
BBX 7 10 0 0
BITMAP
10
10
7C
92
10
10
10
10
10
10
ENDCHAR
STARTCHAR 16D0
ENCODING 5840
SWIDTH 480 0
DWIDTH 8 0
BBX 5 10 1 0
BITMAP
18
18
38
D8
18
18
18
18
18
18
ENDCHAR
STARTCHAR 16D1
ENCODING 5841
SWIDTH 480 0
DWIDTH 8 0
BBX 6 10 1 0
BITMAP
18
18
38
D8
3C
3C
3C
18
18
18
ENDCHAR
STARTCHAR 16D2
ENCODING 5842
SWIDTH 480 0
DWIDTH 8 0
BBX 7 10 0 0
BITMAP
F0
F0
8C
8E
F0
F0
8C
8E
8E
F0
ENDCHAR
STARTCHAR 16D3
ENCODING 5843
SWIDTH 480 0
DWIDTH 8 0
BBX 5 10 1 0
BITMAP
C0
C0
D8
E0
D8
D8
E0
C0
C0
C0
ENDCHAR
STARTCHAR 16D4
ENCODING 5844
SWIDTH 480 0
DWIDTH 8 0
BBX 7 10 0 0
BITMAP
FC
FC
82
92
FC
FC
82
92
92
FC
ENDCHAR
STARTCHAR 16D5
ENCODING 5845
SWIDTH 480 0
DWIDTH 8 0
BBX 7 10 0 0
BITMAP
82
82
8C
90
E0
E0
90
8C
8C
82
ENDCHAR
STARTCHAR 16D6
ENCODING 5846
SWIDTH 480 0
DWIDTH 8 0
BBX 7 10 0 0
BITMAP
82
82
EE
92
82
82
82
82
82
82
ENDCHAR
STARTCHAR 16D7
ENCODING 5847
SWIDTH 480 0
DWIDTH 8 0
BBX 7 10 0 0
BITMAP
82
82
EE
92
EE
EE
82
82
82
82
ENDCHAR
STARTCHAR 16D8
ENCODING 5848
SWIDTH 480 0
DWIDTH 8 0
BBX 7 10 0 0
BITMAP
92
92
92
7C
10
10
10
10
10
10
ENDCHAR
STARTCHAR 16D9
ENCODING 5849
SWIDTH 480 0
DWIDTH 8 0
BBX 5 10 1 0
BITMAP
F8
F8
F8
20
20
20
20
20
20
20
ENDCHAR
STARTCHAR 16DA
ENCODING 5850
SWIDTH 480 0
DWIDTH 8 0
BBX 5 10 1 0
BITMAP
C0
C0
E0
D8
C0
C0
C0
C0
C0
C0
ENDCHAR
STARTCHAR 16DB
ENCODING 5851
SWIDTH 480 0
DWIDTH 8 0
BBX 6 10 0 0
BITMAP
60
60
70
6C
F0
F0
F0
60
60
60
ENDCHAR
STARTCHAR 16DC
ENCODING 5852
SWIDTH 480 0
DWIDTH 8 0
BBX 7 7 0 1
BITMAP
10
6C
82
82
6C
10
10
ENDCHAR
STARTCHAR 16DD
ENCODING 5853
SWIDTH 480 0
DWIDTH 8 0
BBX 7 10 0 0
BITMAP
82
82
6C
7C
EE
EE
7C
6C
6C
82
ENDCHAR
STARTCHAR 16DE
ENCODING 5854
SWIDTH 480 0
DWIDTH 8 0
BBX 7 10 0 0
BITMAP
82
82
EE
92
92
92
92
EE
EE
82
ENDCHAR
STARTCHAR 16DF
ENCODING 5855
SWIDTH 480 0
DWIDTH 8 0
BBX 7 10 0 0
BITMAP
10
10
6C
82
6C
6C
10
6C
6C
82
ENDCHAR
STARTCHAR 16E0
ENCODING 5856
SWIDTH 480 0
DWIDTH 8 0
BBX 9 10 -1 0
BITMAP
0800
0800
BE80
4900
0800
0800
0800
0800
0800
0800
ENDCHAR
STARTCHAR 16E1
ENCODING 5857
SWIDTH 480 0
DWIDTH 8 0
BBX 7 10 0 0
BITMAP
10
10
92
7C
10
10
7C
92
92
10
ENDCHAR
STARTCHAR 16E2
ENCODING 5858
SWIDTH 480 0
DWIDTH 8 0
BBX 9 10 -1 0
BITMAP
0800
0800
0E80
0900
0800
0800
4800
B800
B800
0800
ENDCHAR
STARTCHAR 16E3
ENCODING 5859
SWIDTH 480 0
DWIDTH 8 0
BBX 7 10 0 0
BITMAP
10
10
10
10
10
10
10
7C
7C
92
ENDCHAR
STARTCHAR 16E4
ENCODING 5860
SWIDTH 480 0
DWIDTH 8 0
BBX 7 10 0 0
BITMAP
92
92
7C
7C
92
92
7C
7C
7C
92
ENDCHAR
STARTCHAR 16E5
ENCODING 5861
SWIDTH 480 0
DWIDTH 8 0
BBX 7 10 0 0
BITMAP
EE
EE
92
EE
82
82
EE
92
92
EE
ENDCHAR
STARTCHAR 16E6
ENCODING 5862
SWIDTH 480 0
DWIDTH 8 0
BBX 7 10 0 0
BITMAP
10
10
10
10
10
10
7C
92
92
92
ENDCHAR
STARTCHAR 16E7
ENCODING 5863
SWIDTH 480 0
DWIDTH 8 0
BBX 1 6 3 0
BITMAP
80
80
80
80
80
80
ENDCHAR
STARTCHAR 16E8
ENCODING 5864
SWIDTH 480 0
DWIDTH 8 0
BBX 7 10 0 0
BITMAP
10
10
7C
92
10
10
92
7C
7C
10
ENDCHAR
STARTCHAR 16E9
ENCODING 5865
SWIDTH 480 0
DWIDTH 8 0
BBX 5 10 1 0
BITMAP
18
18
38
D8
38
38
18
18
18
18
ENDCHAR
STARTCHAR 16EA
ENCODING 5866
SWIDTH 480 0
DWIDTH 8 0
BBX 9 10 -1 0
BITMAP
4000
4000
F000
4700
4900
4900
7100
0780
0780
0100
ENDCHAR
STARTCHAR 16EB
ENCODING 5867
SWIDTH 480 0
DWIDTH 8 0
BBX 5 4 1 3
BITMAP
F8
F8
F8
F8
ENDCHAR
STARTCHAR 16EC
ENCODING 5868
SWIDTH 480 0
DWIDTH 8 0
BBX 5 7 1 1
BITMAP
F8
F8
00
00
F8
F8
F8
ENDCHAR
STARTCHAR 16ED
ENCODING 5869
SWIDTH 480 0
DWIDTH 8 0
BBX 8 8 0 0
BITMAP
1C
1C
FF
FF
FF
1C
1C
1C
ENDCHAR
STARTCHAR 16EE
ENCODING 5870
SWIDTH 480 0
DWIDTH 8 0
BBX 7 10 0 0
BITMAP
10
10
1C
12
70
70
90
10
10
10
ENDCHAR
STARTCHAR 16EF
ENCODING 5871
SWIDTH 480 0
DWIDTH 8 0
BBX 7 10 0 0
BITMAP
92
92
92
7C
10
10
7C
92
92
92
ENDCHAR
STARTCHAR 16F0
ENCODING 5872
SWIDTH 480 0
DWIDTH 8 0
BBX 7 10 0 0
BITMAP
10
10
7C
92
92
92
92
7C
7C
10
ENDCHAR
STARTCHAR 16F1
ENCODING 5873
SWIDTH 480 0
DWIDTH 8 0
BBX 7 10 0 0
BITMAP
80
80
80
90
EC
EC
8C
82
82
82
ENDCHAR
STARTCHAR 16F2
ENCODING 5874
SWIDTH 480 0
DWIDTH 8 0
BBX 7 10 0 0
BITMAP
02
02
02
E2
92
92
8E
80
80
80
ENDCHAR
STARTCHAR 16F3
ENCODING 5875
SWIDTH 480 0
DWIDTH 8 0
BBX 7 10 0 0
BITMAP
7C
7C
92
7C
10
10
10
10
10
10
ENDCHAR
STARTCHAR 16F4
ENCODING 5876
SWIDTH 480 0
DWIDTH 8 0
BBX 7 10 0 0
BITMAP
60
60
60
6E
7C
7C
EC
0C
0C
0C
ENDCHAR
STARTCHAR 16F5
ENCODING 5877
SWIDTH 480 0
DWIDTH 8 0
BBX 3 10 3 0
BITMAP
60
60
80
60
80
80
60
80
80
60
ENDCHAR
STARTCHAR 16F6
ENCODING 5878
SWIDTH 480 0
DWIDTH 8 0
BBX 7 10 0 0
BITMAP
80
80
60
6E
10
10
EC
0C
0C
02
ENDCHAR
STARTCHAR 16F7
ENCODING 5879
SWIDTH 480 0
DWIDTH 8 0
BBX 7 10 0 0
BITMAP
80
80
80
F0
8C
8C
82
82
82
82
ENDCHAR
STARTCHAR 16F8
ENCODING 5880
SWIDTH 480 0
DWIDTH 8 0
BBX 7 10 0 0
BITMAP
10
10
10
10
10
10
10
6C
6C
82
ENDCHAR
STARTCHAR 1740
ENCODING 5952
SWIDTH 480 0
DWIDTH 8 0
BBX 7 10 0 0
BITMAP
02
02
02
E2
62
62
62
62
62
7E
ENDCHAR
STARTCHAR 1741
ENCODING 5953
SWIDTH 480 0
DWIDTH 8 0
BBX 7 13 0 -3
BITMAP
02
02
02
E2
62
62
62
62
62
7E
00
7E
7E
ENDCHAR
STARTCHAR 1742
ENCODING 5954
SWIDTH 480 0
DWIDTH 8 0
BBX 7 7 0 0
BITMAP
F0
10
10
1E
02
02
02
ENDCHAR
STARTCHAR 1743
ENCODING 5955
SWIDTH 480 0
DWIDTH 8 0
BBX 7 7 0 0
BITMAP
FE
00
00
00
00
00
FE
ENDCHAR
STARTCHAR 1744
ENCODING 5956
SWIDTH 480 0
DWIDTH 8 0
BBX 7 7 0 0
BITMAP
80
80
80
FE
02
02
02
ENDCHAR
STARTCHAR 1745
ENCODING 5957
SWIDTH 480 0
DWIDTH 8 0
BBX 7 7 0 0
BITMAP
F0
10
10
1E
10
10
F0
ENDCHAR
STARTCHAR 1746
ENCODING 5958
SWIDTH 480 0
DWIDTH 8 0
BBX 7 7 0 0
BITMAP
82
82
82
FE
EE
EE
EE
ENDCHAR
STARTCHAR 1747
ENCODING 5959
SWIDTH 480 0
DWIDTH 8 0
BBX 7 10 0 0
BITMAP
12
12
12
12
F2
F2
12
12
12
1E
ENDCHAR
STARTCHAR 1748
ENCODING 5960
SWIDTH 480 0
DWIDTH 8 0
BBX 7 8 0 0
BITMAP
FE
10
10
10
10
10
10
10
ENDCHAR
STARTCHAR 1749
ENCODING 5961
SWIDTH 480 0
DWIDTH 8 0
BBX 7 7 0 0
BITMAP
EE
6C
6C
6C
6C
6C
7C
ENDCHAR
STARTCHAR 174A
ENCODING 5962
SWIDTH 480 0
DWIDTH 8 0
BBX 7 7 0 0
BITMAP
FE
02
02
02
02
02
FE
ENDCHAR
STARTCHAR 174B
ENCODING 5963
SWIDTH 480 0
DWIDTH 8 0
BBX 7 10 0 0
BITMAP
02
02
82
FE
82
82
82
82
82
FE
ENDCHAR
STARTCHAR 174C
ENCODING 5964
SWIDTH 480 0
DWIDTH 8 0
BBX 7 7 0 0
BITMAP
EE
6E
6E
6E
72
72
72
ENDCHAR
STARTCHAR 174D
ENCODING 5965
SWIDTH 480 0
DWIDTH 8 0
BBX 7 1 0 3
BITMAP
FE
ENDCHAR
STARTCHAR 174E
ENCODING 5966
SWIDTH 480 0
DWIDTH 8 0
BBX 7 10 0 0
BITMAP
1E
1E
92
92
FE
FE
10
10
10
10
ENDCHAR
STARTCHAR 174F
ENCODING 5967
SWIDTH 480 0
DWIDTH 8 0
BBX 7 8 0 0
BITMAP
80
9E
92
92
92
82
82
FE
ENDCHAR
STARTCHAR 1750
ENCODING 5968
SWIDTH 480 0
DWIDTH 8 0
BBX 6 10 1 0
BITMAP
E0
E0
20
38
18
18
1C
04
04
04
ENDCHAR
STARTCHAR 1751
ENCODING 5969
SWIDTH 480 0
DWIDTH 8 0
BBX 7 7 0 0
BITMAP
80
80
80
80
80
80
FE
ENDCHAR
STARTCHAR 1752
ENCODING 5970
SWIDTH 0 0
DWIDTH 0 0
BBX 7 2 -8 8
BITMAP
FE
FE
ENDCHAR
STARTCHAR 1753
ENCODING 5971
SWIDTH 0 0
DWIDTH 0 0
BBX 7 2 -8 -3
BITMAP
FE
FE
ENDCHAR
STARTCHAR 1D00
ENCODING 7424
SWIDTH 480 0
DWIDTH 8 0
BBX 7 7 0 0
BITMAP
7C
82
82
FE
82
82
82
ENDCHAR
STARTCHAR 1D01
ENCODING 7425
SWIDTH 480 0
DWIDTH 8 0
BBX 7 7 0 0
BITMAP
7E
90
90
FC
90
90
9E
ENDCHAR
STARTCHAR 1D02
ENCODING 7426
SWIDTH 480 0
DWIDTH 8 0
BBX 7 7 0 0
BITMAP
FC
12
12
FC
90
90
6C
ENDCHAR
STARTCHAR 1D03
ENCODING 7427
SWIDTH 480 0
DWIDTH 8 0
BBX 7 7 0 0
BITMAP
7C
62
62
FC
62
62
7C
ENDCHAR
STARTCHAR 1D04
ENCODING 7428
SWIDTH 480 0
DWIDTH 8 0
BBX 7 7 0 0
BITMAP
7C
82
82
80
82
82
7C
ENDCHAR
STARTCHAR 1D05
ENCODING 7429
SWIDTH 480 0
DWIDTH 8 0
BBX 7 7 0 0
BITMAP
FC
82
82
82
82
82
FC
ENDCHAR
STARTCHAR 1D06
ENCODING 7430
SWIDTH 480 0
DWIDTH 8 0
BBX 7 7 0 0
BITMAP
7C
62
62
F2
62
62
7C
ENDCHAR
STARTCHAR 1D07
ENCODING 7431
SWIDTH 480 0
DWIDTH 8 0
BBX 7 7 0 0
BITMAP
FE
80
80
FC
80
80
FE
ENDCHAR
STARTCHAR 1D08
ENCODING 7432
SWIDTH 480 0
DWIDTH 8 0
BBX 7 7 0 0
BITMAP
7C
82
82
1C
82
82
7C
ENDCHAR
STARTCHAR 1D09
ENCODING 7433
SWIDTH 480 0
DWIDTH 8 0
BBX 5 10 1 -3
BITMAP
F8
20
20
20
20
20
38
00
20
20
ENDCHAR
STARTCHAR 1D0A
ENCODING 7434
SWIDTH 480 0
DWIDTH 8 0
BBX 7 7 0 0
BITMAP
1E
0C
0C
0C
8C
8C
70
ENDCHAR
STARTCHAR 1D0B
ENCODING 7435
SWIDTH 480 0
DWIDTH 8 0
BBX 7 7 0 0
BITMAP
8C
90
90
F0
8C
8C
82
ENDCHAR
STARTCHAR 1D0C
ENCODING 7436
SWIDTH 480 0
DWIDTH 8 0
BBX 7 7 0 0
BITMAP
60
70
70
E0
60
60
7E
ENDCHAR
STARTCHAR 1D0D
ENCODING 7437
SWIDTH 480 0
DWIDTH 8 0
BBX 7 7 0 0
BITMAP
82
EE
EE
92
92
92
82
ENDCHAR
STARTCHAR 1D0E
ENCODING 7438
SWIDTH 480 0
DWIDTH 8 0
BBX 7 7 0 0
BITMAP
82
8E
8E
92
E2
E2
82
ENDCHAR
STARTCHAR 1D0F
ENCODING 7439
SWIDTH 480 0
DWIDTH 8 0
BBX 7 7 0 0
BITMAP
7C
82
82
82
82
82
7C
ENDCHAR
STARTCHAR 1D10
ENCODING 7440
SWIDTH 480 0
DWIDTH 8 0
BBX 7 7 0 0
BITMAP
7C
82
82
02
82
82
7C
ENDCHAR
STARTCHAR 1D11
ENCODING 7441
SWIDTH 480 0
DWIDTH 8 0
BBX 7 7 0 0
BITMAP
7C
82
82
82
82
82
7C
ENDCHAR
STARTCHAR 1D12
ENCODING 7442
SWIDTH 480 0
DWIDTH 8 0
BBX 7 7 0 0
BITMAP
7C
82
82
82
82
82
8C
ENDCHAR
STARTCHAR 1D13
ENCODING 7443
SWIDTH 480 0
DWIDTH 8 0
BBX 7 7 0 0
BITMAP
9C
62
62
92
8C
8C
72
ENDCHAR
STARTCHAR 1D14
ENCODING 7444
SWIDTH 480 0
DWIDTH 8 0
BBX 7 7 0 0
BITMAP
EC
12
12
F2
92
92
6C
ENDCHAR
ENDFONT
